<?xml version="1.0" encoding="UTF-8"?>
<svg xmlns="http://www.w3.org/2000/svg" xmlns:xlink="http://www.w3.org/1999/xlink" viewBox="0 0 349.95 318.42">
  <defs>
    <style>
      .cls-1 {
        fill: url(#_Áåçûìÿííûé_ãğàäèåíò_83);
      }

      .cls-1, .cls-2, .cls-3, .cls-4, .cls-5, .cls-6, .cls-7, .cls-8, .cls-9, .cls-10, .cls-11, .cls-12, .cls-13, .cls-14, .cls-15, .cls-16, .cls-17, .cls-18, .cls-19, .cls-20, .cls-21, .cls-22, .cls-23, .cls-24, .cls-25, .cls-26, .cls-27, .cls-28, .cls-29, .cls-30, .cls-31, .cls-32, .cls-33, .cls-34, .cls-35, .cls-36, .cls-37, .cls-38, .cls-39, .cls-40, .cls-41, .cls-42, .cls-43, .cls-44, .cls-45, .cls-46 {
        stroke-width: 0px;
      }

      .cls-2 {
        fill: #4dd1ff;
      }

      .cls-3, .cls-28 {
        fill: #a42d6f;
      }

      .cls-4, .cls-44 {
        fill: #0041ae;
      }

      .cls-5 {
        fill: url(#_Áåçûìÿííûé_ãğàäèåíò_13);
      }

      .cls-5, .cls-14 {
        mix-blend-mode: color-dodge;
      }

      .cls-6 {
        fill: #001b8d;
      }

      .cls-7 {
        fill: #0037a2;
      }

      .cls-8 {
        fill: url(#_Áåçûìÿííûé_ãğàäèåíò_35);
      }

      .cls-9 {
        fill: url(#_Áåçûìÿííûé_ãğàäèåíò_7);
      }

      .cls-9, .cls-47, .cls-30, .cls-31, .cls-33, .cls-38 {
        mix-blend-mode: multiply;
      }

      .cls-9, .cls-47, .cls-30, .cls-38 {
        opacity: .88;
      }

      .cls-48 {
        isolation: isolate;
      }

      .cls-10 {
        fill: url(#_Áåçûìÿííûé_ãğàäèåíò_39-2);
      }

      .cls-11, .cls-15, .cls-16, .cls-17, .cls-24, .cls-28, .cls-29, .cls-33, .cls-38, .cls-44, .cls-46 {
        fill-rule: evenodd;
      }

      .cls-11, .cls-39 {
        fill: #e14192;
      }

      .cls-12, .cls-16, .cls-25 {
        fill: #58fffe;
      }

      .cls-12, .cls-17 {
        mix-blend-mode: soft-light;
      }

      .cls-12, .cls-18, .cls-33 {
        opacity: .5;
      }

      .cls-13 {
        fill: url(#_Áåçûìÿííûé_ãğàäèåíò_37);
      }

      .cls-14 {
        fill: url(#_Áåçûìÿííûé_ãğàäèåíò_14);
      }

      .cls-15 {
        fill: #19b8ff;
      }

      .cls-17, .cls-23 {
        fill: #fff;
      }

      .cls-18 {
        fill: #65b1db;
      }

      .cls-19 {
        fill: #7cfff6;
      }

      .cls-20 {
        fill: url(#_Áåçûìÿííûé_ãğàäèåíò_53);
      }

      .cls-21 {
        fill: url(#_Áåçûìÿííûé_ãğàäèåíò_90);
      }

      .cls-22, .cls-24, .cls-30, .cls-33, .cls-38 {
        fill: #197de5;
      }

      .cls-26 {
        fill: #d49af0;
      }

      .cls-27 {
        fill: #ae41e2;
      }

      .cls-29 {
        fill: #199fff;
      }

      .cls-31 {
        fill: #a4a0e5;
        opacity: .3;
      }

      .cls-32 {
        fill: #19e0ff;
      }

      .cls-34 {
        fill: #f4f4f4;
      }

      .cls-35 {
        fill: #002d95;
      }

      .cls-36 {
        fill: #a92fe5;
      }

      .cls-37 {
        fill: url(#_Áåçûìÿííûé_ãğàäèåíò_39);
      }

      .cls-40 {
        fill: url(#_Áåçûìÿííûé_ãğàäèåíò_41);
        mix-blend-mode: screen;
      }

      .cls-41 {
        fill: #6fcef6;
      }

      .cls-42 {
        fill: #31a8ff;
      }

      .cls-43 {
        fill: #00379f;
      }

      .cls-45 {
        fill: #6fe0f6;
      }

      .cls-46 {
        fill: url(#_Áåçûìÿííûé_ãğàäèåíò_37-2);
      }
    </style>
    <linearGradient id="_Áåçûìÿííûé_ãğàäèåíò_35" data-name="Áåçûìÿííûé ãğàäèåíò 35" x1="-331.54" y1="161.5" x2="-309.08" y2="159.14" gradientTransform="translate(-31.81) rotate(-180) scale(1 -1)" gradientUnits="userSpaceOnUse">
      <stop offset="0" stop-color="#0056e5"/>
      <stop offset=".07" stop-color="#136de9"/>
      <stop offset=".2" stop-color="#3193ef"/>
      <stop offset=".34" stop-color="#4ab1f5"/>
      <stop offset=".48" stop-color="#5ec9f9"/>
      <stop offset=".63" stop-color="#6cdafc"/>
      <stop offset=".8" stop-color="#74e4fe"/>
      <stop offset="1" stop-color="#77e8ff"/>
    </linearGradient>
    <radialGradient id="_Áåçûìÿííûé_ãğàäèåíò_13" data-name="Áåçûìÿííûé ãğàäèåíò 13" cx="-99.22" cy="53.77" fx="-99.22" fy="53.77" r="56.45" gradientTransform="translate(-31.81) rotate(-180) scale(1 -1)" gradientUnits="userSpaceOnUse">
      <stop offset="0" stop-color="#000"/>
      <stop offset="1" stop-color="#02b3c4"/>
    </radialGradient>
    <radialGradient id="_Áåçûìÿííûé_ãğàäèåíò_14" data-name="Áåçûìÿííûé ãğàäèåíò 14" cx="-25.71" cy="324.15" fx="-25.71" fy="324.15" r="16.8" gradientTransform="translate(446.22 254.08) rotate(-90) scale(.95 -.8)" gradientUnits="userSpaceOnUse">
      <stop offset="0" stop-color="#02689b"/>
      <stop offset="1" stop-color="#000"/>
    </radialGradient>
    <linearGradient id="_Áåçûìÿííûé_ãğàäèåíò_7" data-name="Áåçûìÿííûé ãğàäèåíò 7" x1="-235.22" y1="202.8" x2="-235.22" y2="111.67" gradientTransform="translate(342.51 -89.15) rotate(-94.31) scale(1 -1)" gradientUnits="userSpaceOnUse">
      <stop offset="0" stop-color="#58fffe"/>
      <stop offset="1" stop-color="#002d95"/>
    </linearGradient>
    <radialGradient id="_Áåçûìÿííûé_ãğàäèåíò_41" data-name="Áåçûìÿííûé ãğàäèåíò 41" cx="-316.45" cy="209.37" fx="-316.45" fy="209.37" r="24.52" gradientTransform="translate(-155.33 -8.6) rotate(-177.93) scale(1.27 -1)" gradientUnits="userSpaceOnUse">
      <stop offset="0" stop-color="#000"/>
      <stop offset=".11" stop-color="#00090a"/>
      <stop offset=".29" stop-color="#002428"/>
      <stop offset=".53" stop-color="#005057"/>
      <stop offset=".82" stop-color="#018b98"/>
      <stop offset="1" stop-color="#02b3c4"/>
    </radialGradient>
    <linearGradient id="_Áåçûìÿííûé_ãğàäèåíò_37" data-name="Áåçûìÿííûé ãğàäèåíò 37" x1="-362.7" y1="232.47" x2="-332.03" y2="191.77" gradientTransform="translate(-24.18 -3.43) rotate(-177.94) scale(1 -1)" gradientUnits="userSpaceOnUse">
      <stop offset="0" stop-color="#0020a9"/>
      <stop offset="1" stop-color="#0063b3"/>
    </linearGradient>
    <linearGradient id="_Áåçûìÿííûé_ãğàäèåíò_53" data-name="Áåçûìÿííûé ãğàäèåíò 53" x1="-225.29" y1="80.63" x2="-145.25" y2="80.63" gradientTransform="translate(-16.56 5.9) rotate(-171.71) scale(1 -1)" gradientUnits="userSpaceOnUse">
      <stop offset="0" stop-color="#197de5"/>
      <stop offset=".23" stop-color="#1670d9"/>
      <stop offset=".7" stop-color="#135ac4"/>
      <stop offset="1" stop-color="#1252bd"/>
    </linearGradient>
    <linearGradient id="_Áåçûìÿííûé_ãğàäèåíò_39" data-name="Áåçûìÿííûé ãğàäèåíò 39" x1="-129.77" y1="156.85" x2="-129.77" y2="46.7" gradientTransform="translate(-29.95 .62) rotate(-179.24) scale(1 -1)" gradientUnits="userSpaceOnUse">
      <stop offset="0" stop-color="#58fffe"/>
      <stop offset=".27" stop-color="#48daf1"/>
      <stop offset=".58" stop-color="#38b6e5"/>
      <stop offset=".84" stop-color="#2fa0dd"/>
      <stop offset="1" stop-color="#2c98db"/>
    </linearGradient>
    <linearGradient id="_Áåçûìÿííûé_ãğàäèåíò_83" data-name="Áåçûìÿííûé ãğàäèåíò 83" x1="-142.62" y1="102.6" x2="-142.62" y2="61.15" gradientTransform="translate(-16.56 5.9) rotate(-171.71) scale(1 -1)" gradientUnits="userSpaceOnUse">
      <stop offset="0" stop-color="#0043b3"/>
      <stop offset=".22" stop-color="#004bb8"/>
      <stop offset=".55" stop-color="#0061c6"/>
      <stop offset=".97" stop-color="#0085de"/>
      <stop offset="1" stop-color="#0088e0"/>
    </linearGradient>
    <linearGradient id="_Áåçûìÿííûé_ãğàäèåíò_90" data-name="Áåçûìÿííûé ãğàäèåíò 90" x1="-124.03" y1="97.5" x2="-124.03" y2="63.69" gradientTransform="translate(-16.56 5.9) rotate(-171.71) scale(1 -1)" gradientUnits="userSpaceOnUse">
      <stop offset="0" stop-color="#00349a"/>
      <stop offset=".25" stop-color="#003ca0"/>
      <stop offset=".63" stop-color="#0052b2"/>
      <stop offset="1" stop-color="#006dc9"/>
    </linearGradient>
    <linearGradient id="_Áåçûìÿííûé_ãğàäèåíò_39-2" data-name="Áåçûìÿííûé ãğàäèåíò 39" x1="-122.26" y1="93.47" x2="-122.26" y2="67.72" gradientTransform="translate(173.41 -18.98) rotate(-90) scale(1 -1)" xlink:href="#_Áåçûìÿííûé_ãğàäèåíò_39"/>
    <linearGradient id="_Áåçûìÿííûé_ãğàäèåíò_37-2" data-name="Áåçûìÿííûé ãğàäèåíò 37" x1="-187.44" y1="255.44" x2="-162.82" y2="255.44" gradientTransform="translate(-31.81) rotate(-180) scale(1 -1)" xlink:href="#_Áåçûìÿííûé_ãğàäèåíò_37"/>
  </defs>
  <g class="cls-48">
    <g id="katman_2" data-name="katman 2">
      <g id="digital">
        <g>
          <g>
            <path class="cls-8" d="m260.55,318.24c7.13.65,20.18,0,22.99-9.7l8.62-80.09,1.34-12.48,21.44-199.2c-.61-8.43-12.21-15.88-20.09-16.63l-21.23,196.87-5.41,50.17-7.66,71.06Z"/>
            <path class="cls-41" d="m117.95,306.64l141.22,11.55c7.31.6,13.77-4.72,14.59-12L306.37,15.08c.95-8.38-5.92-15.58-14.33-15.05l-135.5,8.51c-6.42.41-11.68,5.27-12.58,11.65l-.95,6.71-11.7,82.75-10.71,75.67-4.75,33.59-10.23,72.3c-1.1,7.74,4.55,14.79,12.33,15.43Z"/>
            <path class="cls-22" d="m120.45,290.23c.82.3,1.69.48,2.61.55l134.68,8.94c4.99.33,9.36-3.32,9.91-8.29l29.92-266.96c.23-2.01-.2-3.94-1.11-5.57h-.01c-1.65-2.98-4.9-4.99-8.63-4.81l-128.99,6.28c-4.48.22-8.17,3.59-8.8,8.03l-35.61,251.73c-.62,4.47,2.01,8.62,6.03,10.1Z"/>
            <path class="cls-6" d="m120.45,290.23c.82.3,1.69.48,2.61.55l134.68,8.94c4.99.33,9.36-3.32,9.91-8.29l.97-8.64,28.95-258.32c.23-2.01-.2-3.94-1.11-5.57h-.01c-1.13-.42-2.37-.62-3.67-.56l-128.99,6.28c-4.47.22-8.17,3.59-8.8,8.03l-34.12,241.2-1.49,10.54c-.29,2.1.13,4.13,1.08,5.84Z"/>
          </g>
          <path class="cls-42" d="m250.55,9.42l-.04.31c-.15,1.19-1.13,2.09-2.33,2.15l-54.71,2.66c-1.41.07-2.59-1.05-2.59-2.46h0c0-1.31,1.02-2.39,2.33-2.46l54.75-2.98c1.54-.08,2.78,1.25,2.58,2.78Z"/>
          <path class="cls-22" d="m287.03,39.72l-8.89,70.09c-.51,3.99-3.89,6.98-7.9,6.99l-109.94.45c-4.9.02-8.66-4.32-7.95-9.17l9.65-65.34c.5-3.36,3.31-5.9,6.7-6.05l110.97-4.96c4.4-.2,7.91,3.62,7.36,7.98Z"/>
          <path class="cls-35" d="m272.31,163.91l-2.27,18.77c-.49,4.07-4.02,7.09-8.12,6.94l-109.77-4.02c-4.65-.17-8.14-4.31-7.54-8.92l2.33-17.64c.53-4,3.99-6.96,8.03-6.86l109.71,2.89c4.65.12,8.19,4.22,7.63,8.84Z"/>
          <path class="cls-6" d="m237.11,89.59h32.65c1.66,0,3.06-1.24,3.27-2.88l3.77-30.02c.25-2.02-1.37-3.79-3.41-3.7l-32.83,1.44c-1.6.07-2.92,1.29-3.12,2.88l-3.59,28.58c-.25,1.97,1.29,3.7,3.27,3.7Z"/>
          <path class="cls-7" d="m266.08,204.39l-2.27,18.74c-.5,4.11-4.09,7.14-8.22,6.94l-109.59-5.38c-4.61-.23-8.04-4.34-7.44-8.91l2.25-17.07c.53-4.03,4.03-6.99,8.09-6.86l109.61,3.71c4.63.16,8.12,4.24,7.57,8.83Z"/>
          <path class="cls-4" d="m286.11,46.98l-125.43,4.7,1.48-10.03c.4-2.73,2.68-4.79,5.44-4.91l113.66-5.08c3.57-.16,6.42,2.93,5.97,6.48l-1.12,8.84Z"/>
          <path class="cls-25" d="m166.8,44.87l3.25,3.56,4.15-2.01.83-5.22-3.31-3.2-4.23,2.56-.69,4.31Zm2.39-1.92c.19-1.18,1.06-2.03,1.95-1.88.89.14,1.45,1.21,1.26,2.39-.19,1.18-1.06,2.03-1.95,1.88-.89-.14-1.45-1.21-1.26-2.4Z"/>
          <g>
            <path class="cls-34" d="m276.17,42.86l-4.37.14.18-1.21,2.99-.1.78-5.21,1.38-.05-.96,6.42Z"/>
            <path class="cls-34" d="m268.23,43.22c-1.87.06-3.05-1.29-2.75-3.2.29-1.9,1.89-3.35,3.76-3.41,1.88-.07,3.04,1.29,2.75,3.2-.29,1.9-1.88,3.36-3.76,3.41Zm.19-1.26c1.06-.03,1.99-.89,2.17-2.11.18-1.22-.49-2.02-1.55-1.98-1.06.04-1.99.89-2.17,2.11-.19,1.21.49,2.02,1.55,1.98Z"/>
            <path class="cls-34" d="m258.67,43.42l1.65-2.09c-.72-.33-1.06-1.01-.91-1.97.22-1.42,1.35-2.34,2.94-2.4l2.57-.09-.98,6.37-1.38.04.27-1.77-1.2.04h-.07s-1.42,1.81-1.42,1.81l-1.48.05Zm2.14-4.1c-.11.69.25,1.09,1.09,1.07l1.12-.04.34-2.22-1.12.04c-.84.03-1.33.45-1.44,1.15Z"/>
            <path class="cls-34" d="m256.51,42.31l.23-1.47-2.76.09.18-1.14,2.76-.09.22-1.38-3.13.11.19-1.18,4.49-.16-.99,6.35-4.61.15.19-1.18,3.24-.1Z"/>
            <path class="cls-34" d="m245.27,43.84l1.03-6.3,1.13-.04,1.57,3.84,2.85-4,1.14-.04-1,6.33-1.29.04.59-3.71-2.23,3.1-.62.02-1.25-3.06-.62,3.78-1.29.04Z"/>
            <path class="cls-34" d="m241.46,43.96l-1.38.04,1.02-6.28,1.38-.05-1.02,6.28Z"/>
            <path class="cls-34" d="m237.12,37.87l2.57-.09-1.03,6.27-1.38.04.28-1.73-1.2.04c-1.59.05-2.44-.78-2.21-2.17.23-1.4,1.37-2.3,2.96-2.36Zm-.48,3.35l1.12-.04.36-2.17-1.12.04c-.84.03-1.33.45-1.45,1.13-.11.68.25,1.07,1.09,1.04Z"/>
            <path class="cls-34" d="m230.46,44.41c-1.7.05-2.38-.81-2.2-1.85.38-2.29,3.71-1.61,3.9-2.76.07-.39-.2-.7-1.01-.67-.53.02-1.12.2-1.73.55l-.24-1.08c.61-.38,1.41-.6,2.16-.63,1.69-.06,2.36.79,2.18,1.86-.38,2.32-3.71,1.63-3.91,2.8-.06.38.22.66,1.04.63.71-.02,1.51-.31,2.07-.71l.29,1.07c-.6.45-1.6.77-2.55.8Z"/>
            <path class="cls-34" d="m224.35,44.6c-1.69.05-2.53-.92-2.22-2.75l.59-3.47,1.36-.05-.58,3.42c-.2,1.18.2,1.65,1.04,1.62.83-.03,1.41-.53,1.61-1.71l.58-3.43,1.38-.05-.59,3.48c-.31,1.83-1.48,2.88-3.18,2.93Z"/>
            <path class="cls-34" d="m213.59,44.84l1.09-6.17,1.13-.04,1.53,3.76,2.89-3.92,1.14-.04-1.06,6.2-1.29.04.62-3.63-2.25,3.04-.62.02-1.23-3-.65,3.7-1.29.04Z"/>
          </g>
          <g>
            <g>
              <path class="cls-5" d="m134.77,19l-8.89,70.09c-.51,3.99-3.89,6.98-7.9,6.99l-109.94.45c-4.9.02-8.66-4.33-7.95-9.17L9.73,22.03c.5-3.36,3.31-5.9,6.7-6.05l110.97-4.96c4.4-.2,7.91,3.62,7.36,7.98Z"/>
              <path class="cls-25" d="m8.1,96.53l109.94-.45c4.02-.02,7.4-3.01,7.9-6.99l8.89-70.09c.12-.94.04-1.85-.19-2.7.81,1.32,1.21,2.92.99,4.6l-8.89,70.09c-.51,3.99-3.89,6.98-7.91,6.99l-109.94.45c-3.73.02-6.8-2.51-7.74-5.85,1.39,2.36,3.94,3.97,6.93,3.96Z"/>
            </g>
            <g>
              <path class="cls-25" d="m16.06,14.02l8.18-.23c1.31-.04,2.4-1.02,2.56-2.3l.91-7.52c.19-1.58-1.09-2.97-2.71-2.92l-8.18.23c-1.31.04-2.4,1.02-2.56,2.3l-.91,7.52c-.19,1.58,1.09,2.97,2.71,2.92Z"/>
              <path class="cls-36" d="m15.96,13.71l7.88-.22c1.26-.04,2.31-.99,2.46-2.25l.87-7.34c.18-1.55-1.05-2.89-2.6-2.85l-7.88.22c-1.26.04-2.31.99-2.46,2.25l-.87,7.34c-.18,1.55,1.05,2.89,2.6,2.85Z"/>
              <path class="cls-23" d="m17.03,10.46c.23,0,.46-.09.64-.26l6.02-5.91c.36-.35.37-.93.01-1.29-.35-.36-.93-.37-1.29-.01l-6.02,5.91c-.36.35-.37.93-.01,1.29.18.18.42.27.65.27Z"/>
              <path class="cls-23" d="m22.65,10.73c.22,0,.45-.08.62-.24.37-.34.39-.92.05-1.29l-5.16-5.59c-.34-.37-.92-.39-1.29-.05-.37.34-.39.92-.05,1.29l5.16,5.59c.18.2.43.29.67.29Z"/>
            </g>
            <polygon class="cls-25" points="118.08 127.82 118.08 127.01 49.64 126.88 54.15 95.83 53.36 95.72 48.71 127.69 49.17 127.69 118.08 127.82"/>
            <path class="cls-25" d="m115.54,127.12c-.2,1.73.78,3.27,2.18,3.43s2.69-1.12,2.89-2.85c.2-1.73-.78-3.27-2.18-3.43-1.4-.16-2.69,1.12-2.89,2.85Z"/>
            <path class="cls-25" d="m50.98,96.21c-.2,1.73.78,3.27,2.18,3.43,1.4.16,2.69-1.12,2.89-2.85.2-1.73-.78-3.27-2.18-3.43-1.4-.16-2.69,1.12-2.89,2.85Z"/>
          </g>
          <path class="cls-43" d="m120.45,290.23c.82.3,1.69.48,2.61.55l134.68,8.94c4.99.33,9.36-3.32,9.91-8.29l.97-8.64-147.76-8.94-1.49,10.54c-.29,2.1.13,4.13,1.08,5.84Z"/>
          <path class="cls-43" d="m174.56,279c-.58,7.63,4.37,14.22,11.05,14.73,6.68.5,12.55-5.27,13.13-12.9.58-7.63-4.37-14.22-11.05-14.73-6.68-.5-12.55,5.27-13.13,12.9Z"/>
          <path class="cls-25" d="m181,277.64l-.91,7.18,10.86.75.98-7.34,2.57.18-7.59-6.7-8.48,5.74,2.57.19Zm2.68,4.12c.1-1.41,1.08-2.48,2.19-2.39,1.11.08,1.92,1.29,1.81,2.69-.1,1.41-1.09,2.48-2.19,2.39-1.11-.08-1.92-1.29-1.81-2.69Z"/>
          <ellipse class="cls-14" cx="186.46" cy="278.46" rx="13.47" ry="15.94" transform="translate(-98.14 455.4) rotate(-88.06)"/>
          <path class="cls-23" d="m143.39,288.03c.21,0,.41-.07.58-.22.37-.32.41-.88.09-1.25l-2.52-2.92,3.28-2.96c.36-.33.39-.89.06-1.25-.33-.36-.89-.39-1.25-.06l-4.57,4.12,3.66,4.23c.18.2.42.31.67.31Z"/>
          <path class="cls-23" d="m234.82,293.32c.18,0,.37-.06.53-.17l4.93-3.66-3.95-4.73c-.31-.38-.87-.43-1.25-.11-.38.31-.43.87-.11,1.25l2.75,3.29-3.43,2.54c-.39.29-.48.85-.18,1.24.17.23.44.36.71.36Z"/>
          <g>
            <ellipse class="cls-12" cx="62.73" cy="48.65" rx="22.58" ry="18.22" transform="translate(7.33 105.51) rotate(-83.55)"/>
            <path class="cls-25" d="m53.95,47.7c-.65,5.76,2.59,10.86,7.24,11.39s8.95-3.72,9.6-9.48c.65-5.76-2.59-10.86-7.24-11.39-4.65-.53-8.95,3.72-9.6,9.48Z"/>
            <path class="cls-25" d="m93.41,59.66c-.2,1.73.78,3.27,2.18,3.43,1.4.16,2.69-1.12,2.89-2.85.2-1.73-.78-3.27-2.18-3.43-1.4-.16-2.69,1.12-2.89,2.85Z"/>
            <path class="cls-25" d="m29.88,63.66c-.2,1.73.78,3.27,2.18,3.43,1.4.16,2.69-1.12,2.89-2.85.2-1.73-.78-3.27-2.18-3.43-1.4-.16-2.69,1.12-2.89,2.85Z"/>
            <path class="cls-36" d="m29.88,46.76c-.2,1.73.78,3.27,2.18,3.43,1.4.16,2.69-1.12,2.89-2.85.2-1.73-.78-3.27-2.18-3.43-1.4-.16-2.69,1.12-2.89,2.85Z"/>
            <path class="cls-26" d="m82.4,35.14c-.2,1.73.78,3.27,2.18,3.43,1.4.16,2.69-1.12,2.89-2.85.2-1.73-.78-3.27-2.18-3.43s-2.69,1.12-2.89,2.85Z"/>
            <path class="cls-23" d="m63.1,51.71l3.36-3.27c.29-.28.29-.74.01-1.02-.28-.29-.74-.29-1.02-.01l-2.23,2.17-3.97-4.83c-.25-.31-.71-.35-1.02-.1-.31.25-.35.71-.1,1.02l4.97,6.05Z"/>
            <polygon class="cls-25" points="72.96 59.79 93.41 59.79 93.41 59.52 73.05 59.52 68.29 55.81 68.12 56.02 72.96 59.79"/>
            <polygon class="cls-25" points="68.31 40.78 72.63 35.28 82.4 35.28 82.4 35.01 72.5 35.01 68.1 40.62 68.31 40.78"/>
            <polygon class="cls-25" points="53.81 48.77 53.94 48.53 51.59 47.2 34.95 47.2 34.95 47.47 51.52 47.47 53.81 48.77"/>
            <polygon class="cls-25" points="34.95 64.37 54.77 64.37 58.8 57.86 58.57 57.71 54.62 64.1 34.95 64.1 34.95 64.37"/>
          </g>
          <ellipse class="cls-9" cx="203.41" cy="157.24" rx="45.67" ry="19.99" transform="translate(31.32 348.24) rotate(-85.69)"/>
          <g>
            <path class="cls-25" d="m252.04,65.21c-.1,1.98,1.16,3.65,2.82,3.74,1.66.09,3.09-1.45,3.2-3.42s-1.16-3.65-2.82-3.74c-1.66-.09-3.09,1.45-3.2,3.42Z"/>
            <path class="cls-25" d="m254.82,69.82c2.95.15,5.19,3.12,5,6.63l-10.67-.09c.18-3.51,2.72-6.69,5.67-6.54Z"/>
          </g>
          <path class="cls-38" d="m242.25,255.47c-.09,0-.19,0-.28,0,.17.01.35.03.52.03.89.04,1.77.01,2.65-.06.82.11,1.66.19,2.51.22h.01c7.75.28,14.97-2.95,20.55-8.49,1.41-1.4,2.72-2.94,3.9-4.61,3.08-4.32,5.33-9.51,6.49-15.21,0-.01.02-.01.03-.02l13.35.67c.06.15.12.29.18.44l1.34-12.48c-.15.19-.29.4-.43.62l-13.65-.69c-.41-7.03-2.5-13.53-5.8-18.89-.98-1.62-2.09-3.14-3.29-4.54-5.19-6.02-12.2-9.82-20.03-10.11h-.01c-.9-.03-1.79-.01-2.68.05-.83-.12-1.66-.2-2.51-.23-15.91-.58-29.39,15.37-30.12,35.61-.72,20.16,11.47,36.97,27.27,37.68Zm3.34-7.1c.2.02.4.04.61.05-.19-.01-.37-.03-.56-.04-.01,0-.03,0-.05-.01Z"/>
          <g>
            <path class="cls-45" d="m209.27,214.08c-.73,20.24,12.33,37.15,29.18,37.76,9.71.35,18.57-4.8,24.46-13.11,3.17-4.47,5.49-9.85,6.61-15.78.41-2.16.67-4.39.75-6.66.73-20.24-12.33-37.15-29.17-37.75-16.85-.61-31.09,15.31-31.82,35.56Zm5.65.2c.59-16.27,11.42-29.09,24.2-28.63,12.79.46,22.67,14.03,22.09,30.3-.59,16.27-11.42,29.09-24.21,28.63-12.78-.46-22.67-14.02-22.08-30.3Z"/>
            <g>
              <path class="cls-19" d="m236.45,244.54c-.19,0-.38,0-.57,0-12.78-.46-22.67-14.02-22.08-30.3.59-16.27,11.42-29.09,24.2-28.63.19,0,.38.03.57.04-12.53-.07-23.06,12.6-23.63,28.63-.58,16.03,9.01,29.42,21.51,30.26Z"/>
              <path class="cls-19" d="m261.78,238.68c3.17-4.47,5.49-9.85,6.61-15.78.41-2.16.67-4.39.75-6.66.72-20.01-12.04-36.75-28.6-37.72.19,0,.38,0,.57,0,16.84.61,29.9,17.51,29.17,37.76-.08,2.28-.34,4.51-.75,6.66-1.12,5.93-3.44,11.32-6.61,15.78-5.89,8.31-14.74,13.46-24.46,13.11-.14,0-.28-.02-.42-.03,9.43.08,17.99-5.02,23.73-13.12Z"/>
            </g>
            <path class="cls-40" d="m214.93,214.28c-.59,16.27,9.3,29.83,22.08,30.3,12.79.46,23.62-12.35,24.21-28.63.59-16.27-9.3-29.83-22.09-30.3-12.78-.46-23.62,12.36-24.2,28.63Z"/>
            <path class="cls-33" d="m252.25,237.11l10.66,1.61c3.17-4.47,5.49-9.85,6.61-15.78l-5.12-5.39-12.15,19.56Z"/>
            <path class="cls-22" d="m205.78,213.95c-.73,20.24,11.57,37.12,27.47,37.69,15.9.57,29.39-15.37,30.12-35.62s-11.57-37.12-27.47-37.69c-15.9-.57-29.39,15.37-30.12,35.62Zm4.83.17c.61-16.85,11.83-30.12,25.06-29.64,13.23.48,23.47,14.52,22.86,31.37-.61,16.85-11.83,30.12-25.06,29.64-13.23-.48-23.47-14.52-22.86-31.37Z"/>
            <g>
              <path class="cls-2" d="m232.83,245.45c-.18,0-.35,0-.53,0-13.23-.48-23.47-14.52-22.86-31.37.61-16.85,11.83-30.12,25.06-29.64.18,0,.35.02.53.04-13-.11-23.93,13.02-24.53,29.64s9.36,30.51,22.34,31.33Z"/>
              <path class="cls-2" d="m262.35,216.02c.72-20.02-11.3-36.73-26.95-37.66.18,0,.35,0,.53,0,15.9.57,28.2,17.45,27.47,37.69-.73,20.24-14.21,36.19-30.12,35.62-.18,0-.35-.03-.53-.04,15.67.2,28.87-15.6,29.59-35.62Z"/>
            </g>
            <path class="cls-19" d="m264.39,217.55c-.01,3.14,1.64,5.71,3.69,5.74,2.05.03,3.72-2.49,3.73-5.63,0-3.14-1.64-5.71-3.69-5.74-2.05-.03-3.72,2.49-3.73,5.63Z"/>
            <polygon class="cls-19" points="267.51 222.81 294.61 224.18 295.25 213.32 268.15 211.95 267.51 222.81"/>
            <path class="cls-41" d="m264.37,218.14c0,3.14,1.64,5.71,3.69,5.74,2.05.03,3.72-2.49,3.73-5.63,0-3.14-1.64-5.71-3.69-5.74-2.05-.03-3.72,2.49-3.73,5.63Z"/>
            <polygon class="cls-41" points="267.49 223.4 294.59 224.77 295.23 213.91 268.13 212.54 267.49 223.4"/>
            <path class="cls-13" d="m288.74,209.68l53.63-.14-2.39,25.4-52.35-6.4c-3.4-.17-5.92-4.53-5.61-9.74.31-5.21,3.32-9.29,6.72-9.12Z"/>
            <path class="cls-18" d="m288.79,209.69l53.63-.14h0l-52.84.74c-3.4-.17-6.41,3.91-6.72,9.12-.21,3.6.92,6.79,2.77,8.48-2.3-1.43-3.8-4.98-3.56-9.07.31-5.21,3.32-9.29,6.72-9.12Z"/>
            <path class="cls-6" d="m333.34,221.8c-.41,7,2.96,12.87,7.54,13.1,4.58.23,8.63-5.26,9.04-12.27.41-7-2.96-12.87-7.54-13.1-4.58-.23-8.63,5.26-9.04,12.26Z"/>
            <path class="cls-17" d="m218.05,202.78c-1.42,4.83,0,9.25,3.16,9.87,3.17.62,6.89-2.79,8.31-7.62,1.42-4.83,0-9.25-3.16-9.87-3.17-.62-6.89,2.79-8.31,7.62Z"/>
            <path class="cls-17" d="m217.6,216.64c-.06,1.61,1.18,2.97,2.76,3.02s2.91-1.2,2.97-2.82-1.18-2.97-2.76-3.02c-1.58-.06-2.91,1.2-2.97,2.82Z"/>
          </g>
          <g>
            <ellipse class="cls-27" cx="208.39" cy="124.78" rx="13.82" ry="10.43" transform="translate(54.87 313) rotate(-81.71)"/>
            <ellipse class="cls-39" cx="202.35" cy="123.9" rx="17.48" ry="13.19" transform="translate(50.57 306.27) rotate(-81.71)"/>
            <path class="cls-11" d="m187.48,101.82l17.9,4.85-4.29,34.63s-16.21-.24-19.8-.56l6.19-38.92Z"/>
            <ellipse class="cls-3" cx="183.15" cy="121.1" rx="19.97" ry="15.07" transform="translate(36.91 284.88) rotate(-81.71)"/>
            <path class="cls-20" d="m107.42,162.41l48.29-14.94,28.02-8.67c9.76-3,15.97-27.32,5.22-35.81l-24.23-19.38-40.95-32.76-16.35,111.55Z"/>
            <ellipse class="cls-39" cx="102.07" cy="104.64" rx="63.44" ry="38" transform="translate(-16.18 190.56) rotate(-81.71)"/>
            <ellipse class="cls-3" cx="98.45" cy="104.11" rx="63.44" ry="38" transform="translate(-18.76 186.52) rotate(-81.71)"/>
            <path class="cls-37" d="m64.72,115.5c.81,23.07,10.94,41.25,25.74,43.41,8.69,1.27,17.42-3.23,24.64-11.6,2.88-3.33,5.52-7.28,7.82-11.73h.01c3.95-7.65,6.89-16.74,8.35-26.69.22-1.54.4-3.08.55-4.62.03-.35.07-.7.09-1.06.08-.91.14-1.82.2-2.72.73-13.73-1.74-26.27-6.57-35.52-4.54-8.7-11.16-14.5-19.12-15.66-13.62-1.99-27.33,10.17-35.16,29.17h-.01c-2.58,6.29-4.54,13.32-5.63,20.84-.81,5.55-1.1,10.99-.91,16.18Z"/>
            <path class="cls-31" d="m99.77,115.36c.54,15.3,6.42,27.79,15.34,31.95,2.88-3.33,5.52-7.28,7.82-11.73h.01c3.95-7.65,6.89-16.74,8.35-26.69.22-1.54.4-3.08.55-4.62.03-.35.07-.7.09-1.06.08-.91.14-1.82.2-2.72.73-13.73-1.74-26.27-6.57-35.52-8.25,2.04-15.95,10.35-20.77,22.03h0c-1.98,4.81-3.48,10.21-4.31,15.97-.63,4.25-.84,8.42-.7,12.39Z"/>
            <path class="cls-31" d="m65.63,99.32c-.81,5.55-1.1,10.99-.91,16.18,14.51-8.56,32.35-15.22,43.09-5.14,16.96,15.92,15.25,24.54,15.12,25.22,3.96-7.64,6.9-16.74,8.35-26.69.22-1.54.41-3.08.55-4.62.04-.36.07-.71.1-1.07.08-.91.14-1.81.19-2.72,1.42-26.65-9.25-48.79-25.68-51.18-13.62-1.98-27.32,10.17-35.16,29.18h0c-2.59,6.29-4.54,13.32-5.64,20.84Z"/>
            <path class="cls-1" d="m97,86.81l35,2.54c1.07,13.05-.96,27.66-6.59,40.92l-33.28-10,4.87-33.46Z"/>
            <path class="cls-21" d="m84.54,102.08c-1.35,9.24,2.05,17.38,7.59,18.19,5.54.81,11.11-6.03,12.46-15.27,1.35-9.24-2.05-17.38-7.59-18.19-5.54-.81-11.11,6.03-12.46,15.27Z"/>
            <ellipse class="cls-10" cx="92.81" cy="103.29" rx="12.87" ry="7.71" transform="translate(-22.78 180.23) rotate(-81.71)"/>
          </g>
          <g class="cls-47">
            <polygon class="cls-22" points="189.94 229.23 192.73 234.26 189.52 265.25 172.26 264.2 168.33 261.53 171.93 228.71 189.94 229.23"/>
            <polygon class="cls-22" points="109.4 264.94 193.24 269.72 201.32 190.55 202.16 190.63 194 270.61 109.22 265.78 109.4 264.94"/>
            <polygon class="cls-22" points="144.59 202.87 137.7 262.36 118.32 260.96 113.07 258.75 121.04 195.5 138.93 195.6 144.59 202.87"/>
            <polygon class="cls-22" points="165.32 263.66 165.31 263.79 164.96 263.64 149 262.65 142.95 260.31 140.7 260.19 147.1 205.62 165.03 205.85 170.28 213.34 165.39 263.02 167.26 263.79 165.32 263.66"/>
            <path class="cls-22" d="m175.2,211.68c-2.22-1.64-4.44-3.71-6.79-5.89-8.84-8.23-19.83-18.48-41.91-16.57l-.07-.84c22.44-1.93,33.6,8.45,42.55,16.79,2.33,2.17,4.53,4.22,6.71,5.83,10.25,7.57,19.72,8.07,19.81,8.08l-.04.85c-.1,0-9.81-.51-20.28-8.24Z"/>
          </g>
          <g>
            <polygon class="cls-15" points="156.69 254.98 174.84 255.93 178.31 222.69 160.29 222.16 156.69 254.98"/>
            <polygon class="cls-24" points="129.06 253.65 147.21 254.59 153.39 199.31 135.46 199.08 129.06 253.65"/>
            <polygon class="cls-28" points="101.43 252.21 119.58 253.15 127.29 189.06 109.4 188.96 101.43 252.21"/>
            <polygon class="cls-25" points="182.36 264.07 190.53 184.09 189.68 184 181.6 263.18 91.34 258.03 91.29 258.88 182.36 264.07"/>
            <polygon class="cls-11" points="127.29 189.06 132.96 196.33 126.06 255.82 119.58 253.15 127.29 189.06"/>
            <polygon class="cls-15" points="153.39 199.31 158.64 206.8 153.68 257.24 147.21 254.59 153.39 199.31"/>
            <polygon class="cls-16" points="174.84 255.93 177.89 258.71 181.09 227.72 178.31 222.69 174.84 255.93"/>
            <polygon class="cls-28" points="119.58 253.15 126.06 255.82 106.69 254.41 101.43 252.21 119.58 253.15"/>
            <polygon class="cls-46" points="131.01 253.65 137.37 256.11 155.63 257.24 149.16 254.59 131.01 253.65"/>
            <polygon class="cls-15" points="156.69 254.98 160.62 257.66 177.89 258.71 174.84 255.93 156.69 254.98"/>
            <path class="cls-25" d="m183.84,213.38l.04-.85c-.09,0-9.56-.51-19.81-8.08-2.18-1.61-4.38-3.66-6.71-5.83-8.96-8.34-20.11-18.72-42.56-16.79l.07.84c22.08-1.92,33.07,8.34,41.91,16.57,2.35,2.19,4.57,4.25,6.79,5.89,10.47,7.73,20.18,8.24,20.28,8.24Z"/>
          </g>
          <g>
            <polygon class="cls-25" points="231.38 87.65 234.86 54.85 234.02 54.76 230.62 86.78 169.83 85.62 169.81 86.46 231.38 87.65"/>
            <polygon class="cls-25" points="200.09 75.24 210.27 74.21 231.15 67.44 230.89 66.63 210.09 73.39 200.27 74.37 189.88 68.6 169.99 66.63 169.91 67.47 189.71 69.43 200.09 75.24"/>
            <path class="cls-25" d="m227.8,66.7c-.16,1.44.65,2.72,1.81,2.85,1.17.13,2.24-.93,2.41-2.38s-.65-2.72-1.81-2.85c-1.17-.13-2.24.93-2.41,2.38Z"/>
            <path class="cls-25" d="m208.11,74.01c-.16,1.44.65,2.72,1.81,2.85,1.17.13,2.24-.93,2.41-2.38.16-1.44-.65-2.72-1.81-2.85-1.17-.13-2.24.93-2.41,2.38Z"/>
            <path class="cls-26" d="m198.07,74.62c-.16,1.44.65,2.72,1.81,2.85,1.17.13,2.24-.93,2.41-2.38.16-1.44-.65-2.72-1.81-2.85-1.17-.13-2.24.93-2.41,2.38Z"/>
            <path class="cls-25" d="m187.48,69.39c-.16,1.44.65,2.72,1.81,2.85,1.17.13,2.24-.93,2.41-2.38.16-1.44-.65-2.72-1.81-2.85-1.17-.13-2.24.93-2.41,2.38Z"/>
            <path class="cls-26" d="m167.71,66.7c-.16,1.44.65,2.72,1.81,2.85,1.17.13,2.24-.93,2.41-2.38s-.65-2.72-1.81-2.85c-1.17-.13-2.24.93-2.41,2.38Z"/>
          </g>
          <polygon class="cls-44" points="207.73 58.3 230.86 57.61 231.25 55.01 208.12 55.7 207.73 58.3"/>
          <polygon class="cls-44" points="240.88 95.64 264.01 95.74 264.4 93.14 241.27 93.04 240.88 95.64"/>
          <polygon class="cls-24" points="150.24 158.96 173.37 159.69 173.76 157.09 150.63 156.36 150.24 158.96"/>
          <polygon class="cls-24" points="233.6 265.31 257.04 266.43 257.43 263.83 233.99 262.71 233.6 265.31"/>
          <polygon class="cls-24" points="243.64 270.11 256.66 270.75 257.05 268.15 244.03 267.51 243.64 270.11"/>
          <polygon class="cls-24" points="149.9 162.94 161.92 163.31 162.31 160.71 150.29 160.34 149.9 162.94"/>
          <g>
            <ellipse class="cls-30" cx="274.08" cy="146.64" rx="34.22" ry="23.84" transform="translate(97.57 402.5) rotate(-83.55)"/>
            <ellipse class="cls-32" cx="265.92" cy="138.08" rx="34.22" ry="23.84" transform="translate(98.82 386.79) rotate(-83.55)"/>
            <path class="cls-15" d="m247.59,162.5c3.18,4.84,7.5,8.01,12.53,8.58,11.95,1.35,23.34-12.51,25.42-30.96,2.09-18.45-5.91-34.5-17.86-35.85-11.86-1.34-23.14,12.27-25.37,30.48-.02.16-.04.32-.06.48-1.21,10.69.97,20.58,5.34,27.27Z"/>
            <path class="cls-28" d="m263.9,137.68l-7.83-34.19s-13.66,6.19-17.58,30.69l25.41,3.5Z"/>
            <path class="cls-24" d="m253.83,171.03s-5.18-2.56-7.17-7.08l17.25-26.27-10.07,33.35Z"/>
            <polygon class="cls-29" points="263.9 137.68 255.96 169.96 258.07 171.14 253.83 171.03 263.9 137.68"/>
            <polygon class="cls-11" points="260.09 105.43 256.07 103.49 263.9 137.68 258.39 106.04 260.09 105.43"/>
            <path class="cls-26" d="m247.59,162.5l16.31-24.83-21.59-2.92c-.02.16-.04.32-.06.48-1.21,10.69.97,20.58,5.34,27.27Z"/>
          </g>
        </g>
      </g>
    </g>
  </g>
</svg>