<?xml version="1.0" encoding="UTF-8"?>
<svg id="katman_2" data-name="katman 2" xmlns="http://www.w3.org/2000/svg" xmlns:xlink="http://www.w3.org/1999/xlink" viewBox="0 0 2301.16 1360.47">
  <defs>
    <style>
      .cls-1 {
        fill: url(#linear-gradient-38);
      }

      .cls-1, .cls-2, .cls-3, .cls-4, .cls-5, .cls-6, .cls-7, .cls-8, .cls-9, .cls-10, .cls-11, .cls-12, .cls-13, .cls-14, .cls-15, .cls-16, .cls-17, .cls-18, .cls-19, .cls-20, .cls-21, .cls-22, .cls-23, .cls-24, .cls-25, .cls-26, .cls-27, .cls-28, .cls-29, .cls-30, .cls-31, .cls-32, .cls-33, .cls-34, .cls-35, .cls-36, .cls-37, .cls-38, .cls-39, .cls-40, .cls-41, .cls-42, .cls-43, .cls-44, .cls-45, .cls-46, .cls-47, .cls-48, .cls-49, .cls-50, .cls-51, .cls-52, .cls-53, .cls-54, .cls-55, .cls-56, .cls-57, .cls-58, .cls-59, .cls-60, .cls-61, .cls-62, .cls-63, .cls-64, .cls-65, .cls-66, .cls-67, .cls-68, .cls-69, .cls-70, .cls-71, .cls-72, .cls-73, .cls-74, .cls-75 {
        stroke-width: 0px;
      }

      .cls-2 {
        fill: url(#linear-gradient-12);
      }

      .cls-3 {
        fill: url(#linear-gradient-17);
      }

      .cls-4 {
        fill: url(#linear-gradient-19);
      }

      .cls-5 {
        fill: url(#linear-gradient-33);
      }

      .cls-6 {
        fill: url(#linear-gradient);
      }

      .cls-7 {
        fill: url(#linear-gradient-62);
      }

      .cls-8 {
        fill: url(#linear-gradient-67);
      }

      .cls-9 {
        fill: url(#linear-gradient-57);
      }

      .cls-10 {
        fill: url(#linear-gradient-21);
      }

      .cls-11 {
        fill: url(#linear-gradient-6);
      }

      .cls-12 {
        fill: #7d97f4;
      }

      .cls-13 {
        fill: #bdd0fb;
      }

      .cls-14 {
        fill: url(#linear-gradient-42);
      }

      .cls-15 {
        opacity: .5;
      }

      .cls-15, .cls-36, .cls-75 {
        fill: #fff;
      }

      .cls-16 {
        fill: url(#linear-gradient-15);
      }

      .cls-17 {
        fill: url(#linear-gradient-11);
      }

      .cls-18 {
        fill: #dce5fe;
      }

      .cls-19 {
        fill: url(#linear-gradient-5);
      }

      .cls-20 {
        fill: none;
      }

      .cls-21 {
        fill: url(#linear-gradient-31);
      }

      .cls-22 {
        fill: url(#linear-gradient-58);
      }

      .cls-23 {
        fill: url(#linear-gradient-63);
      }

      .cls-24 {
        fill: url(#linear-gradient-34);
      }

      .cls-25 {
        fill: url(#linear-gradient-41);
      }

      .cls-26 {
        fill: url(#linear-gradient-40);
      }

      .cls-27 {
        fill: url(#linear-gradient-66);
      }

      .cls-28 {
        fill: url(#linear-gradient-13);
      }

      .cls-29 {
        fill: url(#linear-gradient-23);
      }

      .cls-30 {
        fill: url(#linear-gradient-25);
      }

      .cls-31 {
        fill: url(#linear-gradient-43);
      }

      .cls-32 {
        fill: url(#linear-gradient-16);
      }

      .cls-33 {
        fill: url(#linear-gradient-22);
      }

      .cls-34 {
        fill: url(#linear-gradient-54);
      }

      .cls-35 {
        fill: url(#linear-gradient-55);
      }

      .cls-37 {
        fill: url(#linear-gradient-35);
      }

      .cls-38 {
        fill: url(#linear-gradient-50);
      }

      .cls-39 {
        fill: url(#linear-gradient-32);
      }

      .cls-40 {
        fill: url(#linear-gradient-60);
      }

      .cls-41 {
        fill: url(#linear-gradient-59);
      }

      .cls-42 {
        fill: url(#linear-gradient-20);
      }

      .cls-43 {
        fill: url(#linear-gradient-14);
      }

      .cls-44 {
        fill: url(#linear-gradient-2);
      }

      .cls-45 {
        fill: url(#linear-gradient-52);
      }

      .cls-46 {
        fill: url(#linear-gradient-45);
      }

      .cls-47 {
        fill: url(#linear-gradient-7);
      }

      .cls-48 {
        fill: url(#linear-gradient-39);
      }

      .cls-49 {
        fill: url(#linear-gradient-3);
      }

      .cls-76 {
        clip-path: url(#clippath);
      }

      .cls-50 {
        fill: url(#linear-gradient-9);
      }

      .cls-51 {
        fill: url(#linear-gradient-27);
      }

      .cls-52 {
        fill: url(#linear-gradient-53);
      }

      .cls-53 {
        fill: url(#linear-gradient-65);
      }

      .cls-54 {
        fill: url(#linear-gradient-36);
      }

      .cls-55 {
        fill: url(#linear-gradient-48);
      }

      .cls-56 {
        fill: url(#linear-gradient-49);
      }

      .cls-57 {
        fill: url(#linear-gradient-8);
      }

      .cls-58 {
        fill: url(#linear-gradient-47);
      }

      .cls-59 {
        fill: url(#linear-gradient-24);
      }

      .cls-60 {
        fill: url(#linear-gradient-26);
      }

      .cls-61 {
        fill: url(#linear-gradient-61);
      }

      .cls-62 {
        fill: url(#linear-gradient-18);
      }

      .cls-63 {
        fill: url(#linear-gradient-51);
      }

      .cls-64 {
        fill: url(#linear-gradient-30);
      }

      .cls-65 {
        fill: url(#linear-gradient-44);
      }

      .cls-66 {
        fill: url(#linear-gradient-29);
      }

      .cls-67 {
        fill: url(#linear-gradient-46);
      }

      .cls-68 {
        fill: url(#linear-gradient-64);
      }

      .cls-69 {
        fill: #91b3fa;
      }

      .cls-70 {
        fill: url(#linear-gradient-28);
      }

      .cls-71 {
        fill: url(#linear-gradient-56);
      }

      .cls-72 {
        fill: url(#linear-gradient-10);
      }

      .cls-73 {
        fill: url(#linear-gradient-4);
      }

      .cls-74 {
        fill: url(#linear-gradient-37);
      }

      .cls-75 {
        opacity: .57;
      }
    </style>
    <linearGradient id="linear-gradient" x1="-84.41" y1="1723.55" x2="2216.96" y2="52.33" gradientUnits="userSpaceOnUse">
      <stop offset="0" stop-color="#dae3fe"/>
      <stop offset="1" stop-color="#e9effd"/>
    </linearGradient>
    <linearGradient id="linear-gradient-2" x1="2025.56" y1="349.06" x2="1420.41" y2="1152.5" gradientTransform="translate(2194.21 -1206.21) rotate(81.96)" gradientUnits="userSpaceOnUse">
      <stop offset="0" stop-color="#e1473d"/>
      <stop offset="1" stop-color="#e9605a"/>
    </linearGradient>
    <linearGradient id="linear-gradient-3" x1="-1251.43" y1="3367.37" x2="-1347.45" y2="3757.46" gradientTransform="translate(3356.41 -3283.52)" gradientUnits="userSpaceOnUse">
      <stop offset="0" stop-color="#09005d"/>
      <stop offset="1" stop-color="#1a0f91"/>
    </linearGradient>
    <linearGradient id="linear-gradient-4" x1="-1333.3" y1="3449.37" x2="-1362.64" y2="3764.12" gradientTransform="translate(-1564.95 2129.29) rotate(-135)" gradientUnits="userSpaceOnUse">
      <stop offset="0" stop-color="#4042e2"/>
      <stop offset="1" stop-color="#4f52ff"/>
    </linearGradient>
    <linearGradient id="linear-gradient-5" x1="-1358.63" y1="3881.54" x2="-1398.63" y2="4310.68" xlink:href="#linear-gradient-4"/>
    <linearGradient id="linear-gradient-6" x1="603.54" y1="3881.54" x2="563.54" y2="4310.68" gradientTransform="translate(-1057.9 2636.33) rotate(45) scale(1 -1)" xlink:href="#linear-gradient-4"/>
    <linearGradient id="linear-gradient-7" x1="576.62" y1="1259.45" x2="856.17" y2="884.45" gradientTransform="matrix(1,0,0,1,0,0)" xlink:href="#linear-gradient-3"/>
    <linearGradient id="linear-gradient-8" x1="1047.41" y1="352.58" x2="1556.25" y2="1258.83" gradientTransform="matrix(1,0,0,1,0,0)" xlink:href="#linear-gradient-4"/>
    <linearGradient id="linear-gradient-9" x1="2007.58" y1="468.53" x2="1489.36" y2="684.45" gradientTransform="matrix(1,0,0,1,0,0)" xlink:href="#linear-gradient-3"/>
    <linearGradient id="linear-gradient-10" x1="1555.64" y1="1316.6" x2="1579.47" y2="595.07" gradientTransform="matrix(1,0,0,1,0,0)" xlink:href="#linear-gradient-4"/>
    <clipPath id="clippath">
      <path class="cls-20" d="m1577.72,1007.29c-7.06-7.18-22.44-34.88-35.63-106.52-12.75-69.23-19.76-159.02-19.76-252.83s7.02-183.61,19.76-252.83c13.19-71.63,28.57-99.34,35.63-106.52,7.06,7.18,22.44,34.88,35.63,106.52,12.75,69.23,113.31,159.02,113.31,252.83s-100.57,183.61-113.31,252.83c-13.19,71.63-28.57,99.34-35.63,106.52Z"/>
    </clipPath>
    <linearGradient id="linear-gradient-11" x1="1744.87" y1="635.24" x2="1190.29" y2="667.06" gradientUnits="userSpaceOnUse">
      <stop offset="0" stop-color="#020039"/>
      <stop offset="1" stop-color="#090056"/>
    </linearGradient>
    <linearGradient id="linear-gradient-12" x1="694.34" y1="832.28" x2="673.89" y2="317.5" gradientTransform="matrix(1,0,0,1,0,0)" xlink:href="#linear-gradient-3"/>
    <linearGradient id="linear-gradient-13" x1="1183.25" y1="523.6" x2="1160.25" y2="675.36" gradientUnits="userSpaceOnUse">
      <stop offset="0" stop-color="#2b3582"/>
      <stop offset="1" stop-color="#150e42"/>
    </linearGradient>
    <linearGradient id="linear-gradient-14" x1="1174.17" y1="591.94" x2="1125.12" y2="770.6" gradientUnits="userSpaceOnUse">
      <stop offset="0" stop-color="#53d8ff"/>
      <stop offset="1" stop-color="#3840f7"/>
    </linearGradient>
    <linearGradient id="linear-gradient-15" x1="1172.35" y1="591.44" x2="1123.31" y2="770.1" xlink:href="#linear-gradient-14"/>
    <linearGradient id="linear-gradient-16" x1="1167.79" y1="590.19" x2="1118.75" y2="768.85" xlink:href="#linear-gradient-14"/>
    <linearGradient id="linear-gradient-17" x1="1166.57" y1="589.85" x2="1117.53" y2="768.52" xlink:href="#linear-gradient-14"/>
    <linearGradient id="linear-gradient-18" x1="1177.84" y1="456.58" x2="1181.84" y2="174.58" gradientUnits="userSpaceOnUse">
      <stop offset="0" stop-color="#fe7062"/>
      <stop offset="1" stop-color="#ff928e"/>
    </linearGradient>
    <linearGradient id="linear-gradient-19" x1="1208.15" y1="391.27" x2="1219.16" y2="741.1" gradientTransform="matrix(1,0,0,1,0,0)" xlink:href="#linear-gradient-2"/>
    <linearGradient id="linear-gradient-20" x1="1147.5" y1="393.18" x2="1158.51" y2="743.01" gradientTransform="matrix(1,0,0,1,0,0)" xlink:href="#linear-gradient-2"/>
    <linearGradient id="linear-gradient-21" x1="1208.04" y1="151.16" x2="1190.04" y2="267.16" gradientUnits="userSpaceOnUse">
      <stop offset="0" stop-color="#ff928e"/>
      <stop offset="1" stop-color="#feb3b1"/>
    </linearGradient>
    <linearGradient id="linear-gradient-22" x1="1271.46" y1="64.29" x2="1273.46" y2="156.29" xlink:href="#linear-gradient-21"/>
    <linearGradient id="linear-gradient-23" x1="1295.6" y1="63.76" x2="1297.6" y2="155.76" xlink:href="#linear-gradient-21"/>
    <linearGradient id="linear-gradient-24" x1="1081.6" y1="1122.78" x2="1191.6" y2="1067.78" xlink:href="#linear-gradient-21"/>
    <linearGradient id="linear-gradient-25" x1="1361.82" y1="625.18" x2="1331.82" y2="988.22" gradientTransform="matrix(1,0,0,1,0,0)" xlink:href="#linear-gradient-3"/>
    <linearGradient id="linear-gradient-26" x1="392.05" y1="1113.65" x2="991.1" y2="1113.65" gradientTransform="matrix(1,0,0,1,0,0)" xlink:href="#linear-gradient-3"/>
    <linearGradient id="linear-gradient-27" x1="883.95" y1="1225.16" x2="224.4" y2="825.33" gradientTransform="matrix(1,0,0,1,0,0)" xlink:href="#linear-gradient-4"/>
    <linearGradient id="linear-gradient-28" x1="1310.07" y1="1113.65" x2="1909.12" y2="1113.65" gradientTransform="matrix(1,0,0,1,0,0)" xlink:href="#linear-gradient-3"/>
    <linearGradient id="linear-gradient-29" x1="1676.09" y1="968.27" x2="1505.07" y2="1283.31" xlink:href="#linear-gradient-18"/>
    <linearGradient id="linear-gradient-30" x1="931.35" y1="897.17" x2="831.14" y2="999.42" xlink:href="#linear-gradient-18"/>
    <linearGradient id="linear-gradient-31" x1="844.02" y1="1064.76" x2="1139.51" y2="895.26" xlink:href="#linear-gradient-21"/>
    <linearGradient id="linear-gradient-32" x1="842.23" y1="1061.64" x2="1137.72" y2="892.14" xlink:href="#linear-gradient-21"/>
    <linearGradient id="linear-gradient-33" x1="849.23" y1="1073.84" x2="1144.72" y2="904.35" xlink:href="#linear-gradient-21"/>
    <linearGradient id="linear-gradient-34" x1="951.19" y1="824.05" x2="417.44" y2="1528.05" xlink:href="#linear-gradient-18"/>
    <linearGradient id="linear-gradient-35" x1="854.58" y1="799.69" x2="805.08" y2="894.18" xlink:href="#linear-gradient-21"/>
    <linearGradient id="linear-gradient-36" x1="814.85" y1="969.7" x2="1027.84" y2="1112.2" xlink:href="#linear-gradient-21"/>
    <linearGradient id="linear-gradient-37" x1="738.87" y1="1019.57" x2="810.77" y2="1019.57" gradientTransform="matrix(1,0,0,1,0,0)" xlink:href="#linear-gradient-2"/>
    <linearGradient id="linear-gradient-38" x1="756.11" y1="940.44" x2="879.17" y2="940.44" gradientTransform="matrix(1,0,0,1,0,0)" xlink:href="#linear-gradient-2"/>
    <linearGradient id="linear-gradient-39" x1="816.19" y1="723.19" x2="891.18" y2="846.19" xlink:href="#linear-gradient-21"/>
    <linearGradient id="linear-gradient-40" x1="780.98" y1="744.66" x2="855.98" y2="867.66" xlink:href="#linear-gradient-21"/>
    <linearGradient id="linear-gradient-41" x1="1080.59" y1="1120.77" x2="1190.59" y2="1065.77" xlink:href="#linear-gradient-21"/>
    <linearGradient id="linear-gradient-42" x1="1586.51" y1="643.75" x2="1556.51" y2="1006.79" gradientTransform="matrix(1,0,0,1,0,0)" xlink:href="#linear-gradient-3"/>
    <linearGradient id="linear-gradient-43" x1="1481.11" y1="830.1" x2="1505.11" y2="942.1" xlink:href="#linear-gradient-21"/>
    <linearGradient id="linear-gradient-44" x1="1661.93" y1="1112.5" x2="1727.38" y2="1405.97" gradientTransform="matrix(1,0,0,1,0,0)" xlink:href="#linear-gradient-4"/>
    <linearGradient id="linear-gradient-45" x1="1676.08" y1="651.15" x2="1646.08" y2="1014.19" gradientTransform="matrix(1,0,0,1,0,0)" xlink:href="#linear-gradient-3"/>
    <linearGradient id="linear-gradient-46" x1="1542.29" y1="1012.89" x2="1673.3" y2="1082.64" gradientTransform="matrix(1,0,0,1,0,0)" xlink:href="#linear-gradient-4"/>
    <linearGradient id="linear-gradient-47" x1="1760.82" y1="991.56" x2="1661.12" y2="1183.29" xlink:href="#linear-gradient-21"/>
    <linearGradient id="linear-gradient-48" x1="1407.19" y1="748.32" x2="1483.19" y2="797.32" xlink:href="#linear-gradient-21"/>
    <linearGradient id="linear-gradient-49" x1="1397.78" y1="775.89" x2="1543.06" y2="775.89" gradientTransform="matrix(1,0,0,1,0,0)" xlink:href="#linear-gradient-2"/>
    <linearGradient id="linear-gradient-50" x1="3029.44" y1="3955.99" x2="3117.88" y2="3865.25" gradientTransform="translate(6453.86 435.95) rotate(-133.27) scale(1 -1)" xlink:href="#linear-gradient-21"/>
    <linearGradient id="linear-gradient-51" x1="842.75" y1="1232.04" x2="846.84" y2="1433.47" gradientTransform="matrix(1,0,0,1,0,0)" xlink:href="#linear-gradient-3"/>
    <linearGradient id="linear-gradient-52" x1="1454.65" y1="1219.62" x2="1458.74" y2="1421.06" gradientTransform="matrix(1,0,0,1,0,0)" xlink:href="#linear-gradient-3"/>
    <linearGradient id="linear-gradient-53" x1="291.8" y1="1168.66" x2="358.06" y2="1168.66" xlink:href="#linear-gradient"/>
    <linearGradient id="linear-gradient-54" x1="240.45" y1="1169.32" x2="408.77" y2="1169.32" xlink:href="#linear-gradient"/>
    <linearGradient id="linear-gradient-55" x1="512.93" y1="1041.94" x2="550.27" y2="1041.94" xlink:href="#linear-gradient"/>
    <linearGradient id="linear-gradient-56" x1="486.55" y1="1042.28" x2="576.31" y2="1042.28" xlink:href="#linear-gradient"/>
    <linearGradient id="linear-gradient-57" x1="340.36" y1="487.2" x2="358.94" y2="487.2" xlink:href="#linear-gradient"/>
    <linearGradient id="linear-gradient-58" x1="371.42" y1="512.2" x2="390" y2="512.2" xlink:href="#linear-gradient"/>
    <linearGradient id="linear-gradient-59" x1="402.47" y1="450.43" x2="421.06" y2="450.43" xlink:href="#linear-gradient"/>
    <linearGradient id="linear-gradient-60" x1="433.53" y1="533.62" x2="452.12" y2="533.62" xlink:href="#linear-gradient"/>
    <linearGradient id="linear-gradient-61" x1="464.59" y1="465.07" x2="483.18" y2="465.07" xlink:href="#linear-gradient"/>
    <linearGradient id="linear-gradient-62" x1="495.65" y1="481.49" x2="514.23" y2="481.49" xlink:href="#linear-gradient"/>
    <linearGradient id="linear-gradient-63" x1="526.71" y1="499.34" x2="545.29" y2="499.34" xlink:href="#linear-gradient"/>
    <linearGradient id="linear-gradient-64" x1="557.76" y1="428.29" x2="576.35" y2="428.29" xlink:href="#linear-gradient"/>
    <linearGradient id="linear-gradient-65" x1="588.82" y1="442.22" x2="607.41" y2="442.22" xlink:href="#linear-gradient"/>
    <linearGradient id="linear-gradient-66" x1="619.88" y1="463.28" x2="638.47" y2="463.28" xlink:href="#linear-gradient"/>
    <linearGradient id="linear-gradient-67" x1="650.94" y1="536.06" x2="669.53" y2="536.06" xlink:href="#linear-gradient"/>
  </defs>
  <g id="Illustration">
    <g>
      <path class="cls-6" d="m2261.11,642.22c-61.07-81.21-190.5-124.72-193.87-246.42-2.18-79.08,35.5-121.94-24.81-189.45-145.79-163.18-370.45-182.3-562.27-114.13-191.76,68.14-345.01,204.74-558.21,196.51-116.11-4.48-223.98-56.96-338.91-66.81-35.41-3.03-68.49-.43-99.42,7.12-115.97,28.29-218.37,134.54-256.93,252.57-31.26,95.68,8.68,190.14-40.4,283.84-52.31,99.87-155.33,169.24-181.28,284.54-31.15,138.38,87.87,258.73,215.72,262.49,81.38,2.4,232.22-9.99,301.35-57.81,84.18-58.23,166.91-62.06,265.05-59.83,186.76,4.25,373.51,44.27,557.86,72.77,157.96,24.42,313.66,60.58,473.75,65.17,117.57,3.37,217.35,4.89,280.97-116.73,76.04-145.37,289.5-403.49,161.41-573.82Z"/>
      <g>
        <g>
          <circle class="cls-75" cx="1791.42" cy="659.92" r="314.91"/>
          <g>
            <circle class="cls-69" cx="1791.42" cy="659.92" r="268.76" transform="translate(58.06 1460.01) rotate(-45)"/>
            <path class="cls-36" d="m1791.42,941.17c-155.08,0-281.24-126.17-281.24-281.24s126.17-281.24,281.24-281.24,281.24,126.17,281.24,281.24-126.17,281.24-281.24,281.24Zm0-537.53c-141.32,0-256.28,114.97-256.28,256.28s114.97,256.28,256.28,256.28,256.28-114.97,256.28-256.28-114.97-256.28-256.28-256.28Z"/>
          </g>
          <g>
            <circle class="cls-69" cx="1791.42" cy="659.92" r="163.85" transform="translate(58.06 1460.01) rotate(-45)"/>
            <path class="cls-36" d="m1791.42,836.25c-97.23,0-176.33-79.1-176.33-176.33s79.1-176.33,176.33-176.33,176.33,79.1,176.33,176.33-79.1,176.33-176.33,176.33Zm0-327.7c-83.47,0-151.37,67.91-151.37,151.37s67.91,151.37,151.37,151.37,151.37-67.9,151.37-151.37-67.91-151.37-151.37-151.37Z"/>
          </g>
          <g>
            <circle class="cls-44" cx="1791.42" cy="659.92" r="63.48" transform="translate(887.35 2341.39) rotate(-81.96)"/>
            <path class="cls-36" d="m1791.42,735.88c-41.89,0-75.96-34.08-75.96-75.96s34.08-75.96,75.96-75.96,75.96,34.08,75.96,75.96-34.08,75.96-75.96,75.96Zm0-126.96c-28.12,0-51,22.88-51,51s22.88,51,51,51,51-22.88,51-51-22.88-51-51-51Z"/>
          </g>
        </g>
        <g>
          <rect class="cls-49" x="2010.73" y="214.85" width="12" height="454.51" transform="translate(3130.19 2180.75) rotate(-135)"/>
          <path class="cls-73" d="m1857.81,578.08c4.87-4.87,27.82,18.09,22.95,22.95l-85.14,66.93c-3.15,2.47-7.22-1.6-4.75-4.75l66.93-85.14Z"/>
          <path class="cls-19" d="m2181.49,285.84l43.24,4.3-59.36,59.36c-19.45,19.45-46.59,29.15-73.96,26.43h0l90.08-90.08Z"/>
          <path class="cls-11" d="m2173,277.35l-4.3-43.24-59.36,59.36c-19.45,19.45-29.15,46.59-26.43,73.96h0l90.08-90.08Z"/>
        </g>
      </g>
      <g>
        <path class="cls-13" d="m668.14,823.04s124.6-413.62,344.32-630.16c14.77-14.56,39.78-7.1,44.05,13.19,28.53,135.7,74.34,544.86-388.37,616.97Z"/>
        <path class="cls-18" d="m711.56,798.5c-1.08.94.18,2.6,1.38,1.82,44.27-28.97,217.41-173.98,296.43-478.95.25-.98-1.18-1.44-1.52-.49-24.87,70.3-124.81,329.02-296.29,477.62Z"/>
      </g>
      <g>
        <path class="cls-13" d="m1580.35,1345.48s124.6-413.62,344.32-630.16c14.77-14.56,39.78-7.1,44.05,13.19,28.53,135.7,74.34,544.86-388.37,616.97Z"/>
        <path class="cls-18" d="m1623.78,1320.93c-1.08.94.18,2.6,1.38,1.82,44.27-28.97,217.41-173.98,296.43-478.95.25-.98-1.18-1.44-1.52-.49-24.87,70.3-124.81,329.02-296.29,477.62Z"/>
      </g>
      <g>
        <path class="cls-13" d="m749.13,1102.91s-167.4-402.82-410.23-597.93c-16.32-13.12-40.69-3.07-42.91,17.75-14.81,139.24-19.07,554.97,453.14,580.19Z"/>
        <path class="cls-18" d="m702.99,1082.69c1.19.83.09,2.63-1.2,1.97-47.43-24.59-236.17-152.6-346.69-450.91-.36-.96,1.04-1.57,1.48-.65,32.16,68.09,158.97,317.8,346.42,449.59Z"/>
      </g>
      <g>
        <path class="cls-13" d="m846.39,919.82s-57.07-454.56-248.48-719.88c-12.87-17.84-40.34-14.47-48.39,5.99-53.86,136.84-174.19,556.57,296.87,713.89Z"/>
        <path class="cls-15" d="m805.33,886.46c.97,1.17-.65,2.69-1.76,1.66-41.16-38.13-196.53-220.41-225.18-553.29-.09-1.07,1.49-1.3,1.68-.24,13.56,77.91,72.26,366.14,225.26,551.88Z"/>
      </g>
      <g>
        <path class="cls-47" d="m603.04,796.38s127.93,337.4,168.35,407.59c46.92,81.48,183.94,29.56,177.12-38.63-6.82-68.19-166.91-350.02-166.91-350.02l-178.56-18.94Z"/>
        <polygon class="cls-57" points="775.9 550.6 1571.04 274.91 1562.69 1020.97 754.17 840.57 775.9 550.6"/>
        <ellipse class="cls-50" cx="1571.79" cy="650.11" rx="78.12" ry="383.41"/>
        <path class="cls-72" d="m1577.72,1007.29c-7.06-7.18-22.44-34.88-35.63-106.52-12.75-69.23-19.76-159.02-19.76-252.83s7.02-183.61,19.76-252.83c13.19-71.63,28.57-99.34,35.63-106.52,7.06,7.18,22.44,34.88,35.63,106.52,12.75,69.23,19.76,159.02,19.76,252.83s-7.02,183.61-19.76,252.83c-13.19,71.63-28.57,99.34-35.63,106.52Z"/>
        <g class="cls-76">
          <path class="cls-17" d="m1677.85,645.09c0,65.15-35.09,117.96-104.55,117.96s-125.77-52.81-125.77-117.96,56.31-117.96,125.77-117.96,104.55,52.81,104.55,117.96Z"/>
        </g>
        <path class="cls-2" d="m647.65,534.56c37.4-4.34,91.04-5.91,149.04,7.37-19.11,99.81-16.22,203.84,5.88,311.56h-163.58c-26.08,0-48.32-18.94-52.38-44.7-8.15-51.64-18.12-138.42-7.49-208.13,5.33-34.98,33.39-62.03,68.54-66.11Z"/>
        <path class="cls-69" d="m871.59,1207.75c-6.01,0-12.08-.65-18.14-1.97-26.5-5.78-48.08-23.25-59.2-47.95l-101.82-226.21c-1.17-2.61-.01-5.67,2.6-6.85,2.6-1.17,5.67-.01,6.85,2.6l101.82,226.21c9.76,21.67,28.7,37.01,51.96,42.08,22.85,4.97,45.98-.93,63.45-16.22.95-.83,1.9-1.69,2.86-2.56,2.11-1.93,5.38-1.79,7.31.32,1.93,2.11,1.79,5.39-.32,7.31-1.02.93-2.03,1.84-3.04,2.72-15.32,13.41-34.46,20.51-54.33,20.51Z"/>
        <path class="cls-69" d="m682.09,901.23c-1.97,0-3.86-1.14-4.73-3.05l-11.36-25.24c-1.17-2.61-.01-5.67,2.6-6.85,2.6-1.17,5.68-.01,6.85,2.6l11.36,25.24c1.17,2.61.01,5.67-2.6,6.84-.69.31-1.41.46-2.12.46Z"/>
        <path class="cls-13" d="m1659.23,643.59c-2.69,0-4.96-2.08-5.16-4.81-2.22-31.32-13.02-54.65-32.09-69.32-33.05-25.42-80.61-16.72-81.1-16.62-2.81.53-5.52-1.3-6.06-4.11-.54-2.8,1.3-5.52,4.1-6.06,2.13-.41,52.5-9.71,89.3,18.54,21.56,16.55,33.72,42.4,36.17,76.84.2,2.85-1.94,5.33-4.8,5.53-.12.01-.25.01-.37.01Z"/>
        <g>
          <path class="cls-69" d="m753.16,607.07h-132.36c-4.49,0-8.46-2.36-10.6-6.3-2.15-3.95-1.97-8.56.47-12.33,1.02-1.58,3.13-2.02,4.71-1.01,1.58,1.02,2.03,3.13,1.01,4.71-1.06,1.64-1.14,3.65-.2,5.37.94,1.72,2.67,2.75,4.62,2.75h132.36c2.9,0,5.26-2.36,5.26-5.26v-9.42c0-2.9-2.36-5.26-5.26-5.26h-133.34c-1.88,0-3.4-1.52-3.4-3.4s1.52-3.4,3.4-3.4h133.34c6.66,0,12.07,5.42,12.07,12.07v9.42c0,6.65-5.41,12.07-12.07,12.07Z"/>
          <path class="cls-69" d="m741.36,665.69h-132.36c-4.49,0-8.46-2.36-10.6-6.3-2.15-3.95-1.97-8.56.47-12.33,1.02-1.58,3.13-2.02,4.71-1.01,1.58,1.02,2.03,3.13,1.01,4.71-1.06,1.64-1.14,3.65-.2,5.37.94,1.72,2.67,2.75,4.62,2.75h132.36c2.9,0,5.26-2.36,5.26-5.26v-9.42c0-2.9-2.36-5.26-5.26-5.26h-133.34c-1.88,0-3.4-1.52-3.4-3.4s1.52-3.4,3.4-3.4h133.34c6.66,0,12.07,5.42,12.07,12.07v9.42c0,6.65-5.41,12.07-12.07,12.07Z"/>
          <path class="cls-69" d="m753.16,734.34h-132.36c-4.49,0-8.46-2.36-10.6-6.3-2.15-3.95-1.97-8.56.47-12.33,1.02-1.58,3.13-2.03,4.71-1.01,1.58,1.02,2.03,3.13,1.01,4.71-1.06,1.65-1.14,3.66-.2,5.38.94,1.72,2.66,2.75,4.62,2.75h132.36c2.9,0,5.26-2.36,5.26-5.26v-9.42c0-2.9-2.36-5.26-5.26-5.26h-133.34c-1.88,0-3.4-1.52-3.4-3.4s1.52-3.4,3.4-3.4h133.34c6.66,0,12.07,5.42,12.07,12.07v9.42c0,6.66-5.41,12.07-12.07,12.07Z"/>
          <path class="cls-69" d="m765.56,810.54h-132.36c-4.49,0-8.46-2.36-10.6-6.3-2.15-3.95-1.97-8.56.47-12.33,1.02-1.58,3.13-2.03,4.71-1.01,1.58,1.02,2.03,3.13,1.01,4.71-1.06,1.65-1.14,3.66-.2,5.38.94,1.72,2.66,2.75,4.62,2.75h132.36c2.9,0,5.26-2.36,5.26-5.26v-9.42c0-2.9-2.36-5.26-5.26-5.26h-133.34c-1.88,0-3.4-1.52-3.4-3.4s1.52-3.4,3.4-3.4h133.34c6.66,0,12.07,5.42,12.07,12.07v9.42c0,6.65-5.41,12.07-12.07,12.07Z"/>
        </g>
        <g>
          <path class="cls-13" d="m895.05,535.13c-1.4,0-2.7-.9-3.15-2.3-.55-1.74.41-3.6,2.15-4.15l607.58-193.34c1.74-.55,3.6.41,4.15,2.15.55,1.74-.41,3.6-2.15,4.15l-607.58,193.34c-.33.11-.67.15-1,.15Z"/>
          <path class="cls-13" d="m812.89,568.72c-1.3,0-2.54-.77-3.06-2.06-.69-1.69.12-3.62,1.81-4.31l31.27-12.78c1.69-.7,3.62.12,4.31,1.81.69,1.69-.12,3.62-1.81,4.31l-31.27,12.78c-.41.17-.83.25-1.25.25Z"/>
        </g>
      </g>
      <g>
        <path class="cls-69" d="m1079.29,695.69c-62.84,58.7-332.69,335.1-187.49,629.97,2.82,5.74,10.7,6.47,14.53,1.35,40.63-54.51,215.29-309.23,187.3-625.8-.63-7.1-9.13-10.38-14.34-5.52Z"/>
        <path class="cls-18" d="m1045.13,788.78c.72-1.3-1.13-2.45-1.96-1.22-38.04,56.33-144.38,237.99-140.85,503.87,0,0,9.35-263.04,142.81-502.65Z"/>
      </g>
      <g>
        <path class="cls-13" d="m1189.23,950.4c-57.04,22.47-308.35,135.12-289.26,368.67.37,4.54,5.4,7.1,9.28,4.7,41.21-25.51,223.72-148.7,288.04-365.95,1.44-4.87-3.34-9.27-8.06-7.41Z"/>
        <path class="cls-18" d="m1142.2,1003.19c.82-.67-.11-1.92-.98-1.32-39.97,27.4-158.05,120.01-225.32,297.26,0,0,75.07-171.98,226.3-295.93Z"/>
      </g>
      <g>
        <path class="cls-13" d="m161.63,885.3c61.23,2.99,335.4,29.07,392.23,256.4,1.11,4.42-2.84,8.45-7.28,7.43-47.22-10.94-259.6-69.08-390.21-254.22-2.93-4.15.19-9.85,5.26-9.61Z"/>
        <path class="cls-18" d="m223.1,920.22c-.99-.37-.51-1.86.51-1.57,46.65,13.13,188.2,62.98,308.76,209.27,0,0-126.27-138.82-309.27-207.7Z"/>
      </g>
      <g>
        <path class="cls-69" d="m2130.59,1089.62c-61.26-2.28-336.66.16-412.8,221.78-1.48,4.31,2.11,8.67,6.62,8.02,47.98-6.85,264.57-46.53,410.59-219.78,3.27-3.88.66-9.83-4.42-10.02Z"/>
        <path class="cls-18" d="m2066.34,1119.13c1.02-.29.67-1.8-.37-1.61-47.6,9.07-192.91,46.59-325.59,181.99,0,0,137.72-127.46,325.96-180.39Z"/>
      </g>
      <g>
        <path class="cls-28" d="m1236.3,535.23c-.2-2.48-2.73-4.62-7.02-6.34,4.66-2.57,7.23-5.32,7.02-8.02-.66-8.17-26.53-12.75-57.79-10.23-31.26,2.52-56.06,11.19-55.4,19.36.2,2.48,2.73,4.62,7.02,6.34-4.66,2.57-7.23,5.32-7.02,8.02.2,2.48,2.73,4.62,7.02,6.34-4.66,2.57-7.23,5.32-7.02,8.02.2,2.48,2.73,4.62,7.02,6.34-4.66,2.57-7.23,5.32-7.02,8.02.29,3.61,5.52,6.52,13.96,8.43-.11,2.67-.05,5.6.21,8.83,1.22,15.05,18.16,26.86,40.55,26.86s41.78-16.09,42-31.2c.05-3.7-.1-6.96-.44-9.85,10.72-3.58,17.24-7.95,16.9-12.19-.2-2.48-2.73-4.62-7.02-6.34,4.66-2.57,7.23-5.32,7.02-8.02-.2-2.48-2.73-4.62-7.02-6.34,4.66-2.57,7.23-5.32,7.02-8.02Z"/>
        <g>
          <path class="cls-43" d="m1164.05,584.76c-9.28,0-17.78-.68-24.79-2.03-.41-.08-.67-.47-.6-.88.08-.41.47-.67.88-.6,10.98,2.1,25.65,2.57,41.3,1.3,12.81-1.03,24.78-3.1,34.64-5.97.4-.12.81.11.93.51.12.4-.11.81-.51.93-9.95,2.9-22.03,4.99-34.94,6.03-5.81.47-11.5.7-16.91.7Z"/>
          <path class="cls-16" d="m1164.21,570.38c-12.06,0-22.84-1.13-30.44-3.3-.4-.11-.63-.53-.52-.93.11-.4.53-.63.93-.52,10.83,3.08,28.28,4.04,46.66,2.56,18.19-1.47,35.15-5.16,45.37-9.87.38-.17.82,0,1,.37.17.38,0,.82-.37,1-10.38,4.78-27.53,8.53-45.88,10-5.73.46-11.37.69-16.75.69Z"/>
          <path class="cls-32" d="m1164.05,556.03c-13.02,0-24.42-1.33-32.09-3.86-.39-.13-.61-.55-.48-.95.13-.39.55-.61.95-.48,10.67,3.52,28.77,4.67,48.41,3.09,18.19-1.47,35.15-5.16,45.37-9.87.38-.17.82,0,1,.37.17.38,0,.82-.37,1-10.38,4.79-27.53,8.53-45.88,10.01-5.82.47-11.5.7-16.91.7Z"/>
          <path class="cls-3" d="m1164.15,541.66c-10.33,0-19.73-.84-27.03-2.46-.4-.09-.66-.49-.57-.9.09-.41.49-.66.9-.57,10.98,2.44,26.8,3.07,43.39,1.74,18.02-1.45,34.9-5.1,45.14-9.77.38-.17.82,0,.99.37.17.38,0,.82-.37.99-10.39,4.73-27.45,8.43-45.64,9.9-5.75.46-11.41.69-16.81.69Z"/>
        </g>
        <path class="cls-62" d="m1102.13,462.72c-3.8-13.45-10.24-26.01-18.93-36.96-18.61-23.45-48.96-71.14-52.7-136.24-5.44-94.68,78.54-142.08,155.16-135.65,76.62,6.43,152.23,63.49,143.96,151.57-5.09,54.2-35.43,95.31-58.01,118.91-14.34,14.99-24.57,33.35-30.11,53.35-6.78,24.47-22.91,54.97-61.25,56.83-49.61,2.41-70.22-43.84-78.12-71.82Z"/>
        <path class="cls-4" d="m1192.92,515.66l26.81-174.38c.55-3.6,2.33-6.02,3.96-5.4,1.63.62,2.51,4.04,1.95,7.64-.01.1-.03.21-.05.31l-30.54,172.76c-.23,1.3-.89,2.12-1.47,1.83-.57-.28-.85-1.5-.66-2.76Z"/>
        <path class="cls-42" d="m1165.09,517.04l-26.81-174.38c-.55-3.6-2.33-6.02-3.96-5.4-1.63.62-2.51,4.04-1.95,7.64.01.1.03.21.05.31l30.54,172.76c.23,1.3.89,2.12,1.47,1.83.57-.28.85-1.5.66-2.76Z"/>
        <path class="cls-10" d="m1219.54,326.31c-.68-1.09-2.26-1.5-3.52-.91l-14.93,6.98-5.18-14.77c-.27-.77-.91-1.45-1.82-1.83-1.72-.71-3.77-.07-4.59,1.41l-.03.05-12.28,22.39-11.39-31.87-.02-.05c-.28-.78-.87-1.48-1.72-1.94-1.91-1.04-4.43-.55-5.64,1.11l-17.16,23.63c-.7.97-.46,2.27.61,2.98,1.13.76,2.77.59,3.65-.4l15.11-16.86,13.61,30.31v.02c.23.48.64.91,1.21,1.17,1.28.6,2.87.19,3.56-.92l13.13-21.07,4.94,10.66.04.09c.04.08.08.15.12.23.68,1.09,2.25,1.5,3.52.91l17.72-8.28c1.26-.59,1.74-1.96,1.05-3.05Z"/>
        <path class="cls-33" d="m1272.19,401.88c-.71,0-1.42-.22-2.03-.67-1.51-1.12-1.82-3.25-.7-4.76,4.56-6.15,8.75-12.5,12.44-18.89.94-1.63,3.03-2.19,4.65-1.25,1.63.94,2.19,3.02,1.25,4.65-3.82,6.62-8.15,13.19-12.87,19.55-.67.9-1.7,1.37-2.74,1.37Z"/>
        <path class="cls-29" d="m1294.25,364.03c-.45,0-.91-.09-1.35-.28-1.72-.75-2.52-2.75-1.77-4.48,28.33-65.25,3.9-120.01,3.65-120.55-.78-1.71-.03-3.73,1.68-4.51,1.71-.78,3.73-.03,4.51,1.68,1.07,2.34,25.94,58.1-3.59,126.1-.56,1.28-1.81,2.05-3.12,2.05Z"/>
      </g>
      <g>
        <g>
          <path class="cls-12" d="m435.23,800.64l-2.78-5.25c-.34-.65-.1-1.45.55-1.8.65-.34,1.45-.1,1.8.55h0s.03.05.03.05l2.71,5.15.03.05c.34.65.09,1.45-.55,1.79-.65.34-1.45.09-1.79-.55Z"/>
          <path class="cls-12" d="m426.98,782.65l-1.85-5.66c-.23-.7.15-1.46.86-1.69.7-.23,1.46.15,1.69.86h0s.02.08.02.08l1.79,5.52.02.07c.23.7-.16,1.46-.86,1.69-.7.23-1.46-.15-1.69-.86Z"/>
          <path class="cls-12" d="m422.21,763.39c-.26-1.97-.46-3.96-.58-5.95-.05-.75.52-1.39,1.27-1.44.75-.05,1.39.52,1.44,1.27h0c.12,1.92.3,3.84.56,5.75.1.74-.42,1.42-1.16,1.52-.74.1-1.42-.42-1.52-1.16Z"/>
          <path class="cls-12" d="m422.01,743.5c.24-1.98.55-3.95.94-5.91.15-.74.87-1.22,1.61-1.07.74.15,1.22.87,1.07,1.61h0c-.38,1.89-.68,3.79-.91,5.7-.09.75-.77,1.28-1.52,1.19-.75-.09-1.28-.77-1.19-1.51Z"/>
          <path class="cls-12" d="m426.92,724.22c.74-1.85,1.54-3.68,2.41-5.47.33-.68,1.16-.97,1.84-.64.68.33.97,1.16.64,1.84h0c-.84,1.73-1.62,3.49-2.34,5.28-.28.71-1.08,1.05-1.79.77-.71-.28-1.05-1.08-.77-1.79Z"/>
          <path class="cls-12" d="m436.4,706.76l3.56-4.78c.46-.62,1.33-.74,1.95-.28.62.46.74,1.33.28,1.95h0s-.05.07-.05.07l-3.47,4.64-.05.07c-.46.61-1.33.74-1.94.28-.61-.46-.74-1.33-.28-1.94Z"/>
          <path class="cls-12" d="m449.28,691.68l4.35-4.05c.57-.53,1.46-.5,1.98.07.53.57.5,1.45-.07,1.98h0s-.05.05-.05.05l-4.26,3.96-.05.05c-.57.53-1.45.49-1.98-.07-.53-.57-.5-1.45.07-1.98Z"/>
          <path class="cls-12" d="m464.43,678.96l4.87-3.39c.64-.45,1.52-.29,1.97.35.45.64.29,1.52-.35,1.97h0s-.04.03-.04.03l-4.78,3.32-.04.03c-.64.44-1.52.29-1.97-.35-.44-.64-.29-1.52.35-1.96Z"/>
          <path class="cls-12" d="m481.09,668.35l5.21-2.82c.69-.38,1.56-.12,1.94.58.37.69.12,1.56-.58,1.94h0s-.04.02-.04.02l-5.14,2.77-.04.02c-.69.37-1.56.11-1.93-.58-.37-.69-.12-1.56.58-1.93Z"/>
          <path class="cls-12" d="m498.75,659.56l5.44-2.32c.73-.31,1.58.03,1.89.76.31.73-.03,1.58-.76,1.89h0s-.03.01-.03.01l-5.38,2.28h-.03c-.73.32-1.57-.02-1.88-.75-.31-.73.03-1.57.76-1.88Z"/>
          <path class="cls-12" d="m517.1,652.36l5.6-1.88c.76-.26,1.58.15,1.84.92.26.76-.15,1.58-.92,1.84h0s-.03.01-.03.01l-5.55,1.85h-.03c-.76.26-1.58-.15-1.83-.91-.25-.76.15-1.58.91-1.83Z"/>
          <path class="cls-12" d="m535.92,646.57l5.72-1.49c.78-.2,1.58.27,1.79,1.05.2.78-.27,1.58-1.05,1.79h0s-.03,0-.03,0l-5.66,1.47h-.03c-.78.21-1.58-.26-1.78-1.04-.2-.78.26-1.58,1.05-1.78Z"/>
          <path class="cls-12" d="m555.07,642.03l5.79-1.13c.8-.16,1.58.37,1.73,1.17.16.8-.37,1.58-1.17,1.73h0s-.03,0-.03,0l-5.74,1.11h-.03c-.8.16-1.57-.36-1.73-1.16-.15-.8.37-1.57,1.16-1.73Z"/>
          <path class="cls-12" d="m574.46,638.65l5.85-.8c.81-.11,1.57.46,1.68,1.27.11.82-.46,1.57-1.27,1.68h0s-.02,0-.02,0l-5.8.79h-.02c-.81.11-1.56-.46-1.67-1.27-.11-.81.46-1.56,1.27-1.67Z"/>
          <path class="cls-12" d="m594,636.35l5.88-.49c.83-.07,1.55.55,1.62,1.37.07.83-.55,1.55-1.37,1.62h-.03s-5.84.48-5.84.48h-.02c-.82.07-1.55-.54-1.61-1.37-.07-.82.54-1.55,1.37-1.61Z"/>
          <path class="cls-12" d="m613.63,635.08l5.9-.19c.84-.03,1.53.63,1.56,1.46.03.84-.63,1.53-1.46,1.56h-.02s-5.85.18-5.85.18h-.02c-.83.03-1.53-.63-1.56-1.46-.03-.83.63-1.53,1.46-1.56Z"/>
          <path class="cls-12" d="m633.3,634.79l5.9.1c.84.01,1.51.71,1.5,1.55-.01.84-.71,1.51-1.55,1.5h-.02s-5.86-.11-5.86-.11h-.02c-.84-.02-1.51-.71-1.49-1.55.02-.84.71-1.51,1.55-1.49Z"/>
          <path class="cls-12" d="m652.95,635.47l5.89.39c.85.06,1.49.79,1.43,1.64-.06.85-.79,1.49-1.64,1.43h-.02s-5.84-.39-5.84-.39h-.02c-.85-.06-1.48-.79-1.43-1.64.06-.85.79-1.48,1.63-1.43Z"/>
          <path class="cls-12" d="m672.55,637.07l5.86.61c.85.09,1.47.85,1.38,1.7-.09.85-.85,1.47-1.7,1.38h-.01s-5.83-.61-5.83-.61h-.01c-.85-.09-1.47-.85-1.38-1.7.09-.85.85-1.47,1.7-1.38Z"/>
          <path class="cls-12" d="m692.06,639.27l5.84.76c.85.11,1.46.89,1.34,1.75-.11.85-.89,1.46-1.75,1.34h0s-.01,0-.01,0l-5.82-.76h-.01c-.85-.11-1.45-.89-1.34-1.75.11-.85.89-1.45,1.74-1.34Z"/>
          <path class="cls-12" d="m711.51,641.99l5.82.91c.86.13,1.44.94,1.31,1.79-.13.86-.94,1.44-1.79,1.31h0s-.01,0-.01,0l-5.8-.91h-.01c-.85-.14-1.44-.94-1.3-1.79.13-.85.93-1.44,1.79-1.3Z"/>
          <path class="cls-12" d="m730.88,645.18l5.8,1.05c.86.16,1.43.98,1.27,1.84-.16.86-.98,1.43-1.83,1.27h0s-.01,0-.01,0l-5.77-1.05h-.01c-.86-.16-1.42-.98-1.27-1.83.16-.86.97-1.42,1.83-1.27Z"/>
          <path class="cls-12" d="m750.17,648.84l5.77,1.18c.86.18,1.41,1.02,1.24,1.88s-1.02,1.41-1.88,1.24h0s-.01,0-.01,0l-5.75-1.19h-.01c-.86-.18-1.41-1.02-1.23-1.88.18-.86,1.01-1.41,1.87-1.23Z"/>
          <path class="cls-12" d="m769.37,652.94l5.74,1.31c.86.2,1.4,1.05,1.2,1.92-.2.86-1.05,1.4-1.92,1.2h0s-.01,0-.01,0l-5.72-1.31h-.01c-.86-.2-1.4-1.06-1.2-1.92.2-.86,1.05-1.4,1.91-1.2Z"/>
          <path class="cls-12" d="m788.48,657.46l5.71,1.43c.86.22,1.38,1.09,1.17,1.95-.22.86-1.09,1.39-1.95,1.17h0s0,0,0,0l-5.69-1.44h0c-.86-.22-1.38-1.09-1.16-1.95.22-.86,1.09-1.38,1.95-1.16Z"/>
          <path class="cls-12" d="m807.48,662.38l5.68,1.55c.86.24,1.37,1.13,1.14,1.99s-1.13,1.37-1.99,1.14h-.01s-5.66-1.55-5.66-1.55c-.86-.23-1.37-1.12-1.14-1.98.23-.86,1.12-1.37,1.99-1.14Z"/>
          <path class="cls-12" d="m826.38,667.67l5.65,1.66c.86.25,1.36,1.16,1.1,2.02-.25.86-1.16,1.36-2.02,1.1h-.01s-5.63-1.66-5.63-1.66c-.86-.25-1.36-1.15-1.11-2.01.25-.86,1.16-1.36,2.02-1.11Z"/>
          <path class="cls-12" d="m845.18,673.32l5.62,1.76c.86.27,1.34,1.19,1.07,2.05-.27.86-1.19,1.34-2.05,1.07h0s-5.6-1.76-5.6-1.76c-.86-.27-1.35-1.18-1.08-2.05.27-.86,1.19-1.35,2.05-1.08Z"/>
          <path class="cls-12" d="m863.87,679.29l5.59,1.85c.86.29,1.33,1.22,1.05,2.08-.29.86-1.22,1.33-2.08,1.05h0s-5.57-1.86-5.57-1.86c-.86-.28-1.34-1.21-1.05-2.08.28-.86,1.22-1.33,2.08-1.05Z"/>
          <path class="cls-12" d="m882.46,685.57l5.56,1.94c.86.3,1.32,1.25,1.02,2.11-.3.86-1.25,1.32-2.11,1.02h0s-5.54-1.94-5.54-1.94c-.86-.3-1.32-1.24-1.03-2.11.3-.86,1.25-1.32,2.11-1.02Z"/>
          <path class="cls-12" d="m900.96,692.13l5.53,2.02c.87.32,1.31,1.27.99,2.14-.32.87-1.27,1.31-2.14.99h0s-5.51-2.02-5.51-2.02c-.87-.31-1.31-1.27-1-2.13s1.27-1.31,2.14-1Z"/>
          <path class="cls-12" d="m919.35,698.94l5.5,2.09c.87.33,1.3,1.3.97,2.17-.33.87-1.3,1.3-2.17.97h0s-5.49-2.1-5.49-2.1c-.87-.33-1.3-1.29-.98-2.16.33-.87,1.3-1.3,2.16-.97Z"/>
          <path class="cls-12" d="m937.66,706l5.47,2.16c.87.34,1.29,1.32.95,2.19-.34.87-1.32,1.29-2.19.95h0s-5.46-2.16-5.46-2.16c-.87-.34-1.29-1.32-.96-2.18.34-.87,1.32-1.29,2.19-.95Z"/>
          <path class="cls-12" d="m955.88,713.27l5.45,2.22c.87.35,1.29,1.35.93,2.21-.35.87-1.35,1.29-2.21.93h0s-5.44-2.22-5.44-2.22c-.87-.35-1.29-1.34-.94-2.21.35-.87,1.34-1.29,2.21-.93Z"/>
          <path class="cls-12" d="m974.02,720.73l5.43,2.27c.87.36,1.28,1.37.92,2.24-.36.87-1.37,1.28-2.24.92h0s-5.42-2.28-5.42-2.28c-.87-.36-1.28-1.36-.92-2.23.36-.87,1.36-1.28,2.23-.92Z"/>
          <path class="cls-12" d="m992.08,728.37l5.41,2.32c.87.37,1.28,1.39.9,2.26-.37.87-1.39,1.28-2.26.9h0s-5.4-2.32-5.4-2.32c-.87-.37-1.28-1.38-.9-2.25.37-.87,1.38-1.27,2.25-.9Z"/>
          <path class="cls-12" d="m1010.08,736.15l5.39,2.36c.87.38,1.27,1.4.89,2.28-.38.87-1.4,1.27-2.28.89h0s-5.38-2.37-5.38-2.37c-.87-.38-1.27-1.4-.89-2.27.38-.87,1.4-1.27,2.27-.89Z"/>
          <path class="cls-12" d="m1028.02,744.06l5.37,2.4c.88.39,1.27,1.42.88,2.3-.39.88-1.42,1.27-2.3.88h0s-5.36-2.4-5.36-2.4c-.88-.39-1.27-1.42-.88-2.29.39-.88,1.42-1.27,2.29-.88Z"/>
          <path class="cls-12" d="m1045.91,752.08l5.36,2.42c.88.4,1.27,1.43.87,2.31-.4.88-1.43,1.27-2.31.87h0s-5.35-2.43-5.35-2.43c-.88-.4-1.27-1.43-.87-2.31.4-.88,1.43-1.27,2.31-.87Z"/>
          <path class="cls-12" d="m1063.76,760.19l5.35,2.45c.88.4,1.27,1.45.87,2.33-.4.88-1.45,1.27-2.33.87h0s-5.34-2.45-5.34-2.45c-.88-.4-1.27-1.45-.87-2.33.4-.88,1.45-1.27,2.33-.87Z"/>
          <path class="cls-12" d="m1081.58,768.36l5.34,2.46c.89.41,1.27,1.46.87,2.35-.41.89-1.46,1.28-2.35.87h0s-5.34-2.47-5.34-2.47c-.89-.41-1.27-1.46-.86-2.34s1.46-1.27,2.34-.86Z"/>
          <path class="cls-12" d="m1099.38,776.57l5.34,2.47c.89.41,1.28,1.47.87,2.36-.41.89-1.47,1.28-2.36.87h0s-5.33-2.47-5.33-2.47c-.89-.41-1.28-1.47-.86-2.36.41-.89,1.47-1.28,2.36-.87Z"/>
          <path class="cls-12" d="m1117.16,784.79l5.34,2.47c.9.41,1.29,1.48.87,2.37-.41.9-1.48,1.29-2.37.87h0s-5.33-2.47-5.33-2.47c-.89-.41-1.28-1.48-.87-2.37.41-.89,1.47-1.28,2.37-.87Z"/>
          <path class="cls-12" d="m1134.95,793l5.34,2.46c.9.41,1.3,1.48.88,2.39-.42.9-1.48,1.3-2.39.88h0s-5.34-2.47-5.34-2.47c-.9-.42-1.29-1.48-.88-2.38.42-.9,1.48-1.29,2.38-.88Z"/>
          <path class="cls-12" d="m1152.75,801.18l5.34,2.44c.91.41,1.31,1.49.9,2.4-.41.91-1.49,1.31-2.4.9h0s-5.35-2.45-5.35-2.45c-.91-.42-1.3-1.49-.89-2.39s1.49-1.3,2.39-.89Z"/>
          <path class="cls-12" d="m1170.58,809.3l5.35,2.42c.92.41,1.32,1.49.91,2.41-.41.92-1.49,1.32-2.41.91h0s-5.36-2.43-5.36-2.43c-.91-.41-1.32-1.49-.9-2.4.41-.91,1.49-1.32,2.4-.9Z"/>
          <path class="cls-12" d="m1188.44,817.34l5.37,2.39c.92.41,1.34,1.49.93,2.41-.41.92-1.49,1.34-2.41.93h0s-5.37-2.4-5.37-2.4c-.92-.41-1.33-1.49-.92-2.41.41-.92,1.49-1.33,2.41-.92Z"/>
          <path class="cls-12" d="m1206.34,825.28l5.38,2.36c.93.41,1.36,1.49.95,2.42-.41.93-1.49,1.36-2.42.95h0s-5.38-2.37-5.38-2.37c-.93-.41-1.35-1.49-.94-2.42.41-.93,1.49-1.35,2.42-.94Z"/>
          <path class="cls-12" d="m1224.3,833.1l5.4,2.32c.94.4,1.38,1.49.97,2.43-.4.94-1.49,1.38-2.43.97h0s-5.4-2.33-5.4-2.33c-.94-.4-1.37-1.49-.96-2.43.4-.94,1.49-1.37,2.43-.96Z"/>
          <path class="cls-12" d="m1242.31,840.78l5.42,2.27c.95.39,1.4,1.48,1,2.43-.39.95-1.48,1.4-2.43,1h0s-5.42-2.28-5.42-2.28c-.94-.4-1.39-1.49-.99-2.43.4-.94,1.49-1.39,2.43-.99Z"/>
          <path class="cls-12" d="m1260.39,848.29l5.44,2.22c.96.39,1.42,1.48,1.03,2.43-.39.96-1.48,1.42-2.43,1.03h0s-5.45-2.23-5.45-2.23c-.95-.39-1.41-1.48-1.02-2.43.39-.95,1.48-1.41,2.44-1.02Z"/>
          <path class="cls-12" d="m1278.54,855.61l5.46,2.16c.97.38,1.44,1.47,1.07,2.43-.38.97-1.47,1.44-2.43,1.07h0s-5.47-2.17-5.47-2.17c-.96-.38-1.43-1.47-1.05-2.43.38-.96,1.48-1.43,2.44-1.05Z"/>
          <path class="cls-12" d="m1296.78,862.72l5.49,2.09c.98.37,1.47,1.46,1.1,2.43-.37.98-1.46,1.47-2.43,1.1h0s-5.5-2.1-5.5-2.1c-.97-.37-1.46-1.46-1.09-2.43.37-.97,1.47-1.46,2.44-1.09Z"/>
          <path class="cls-12" d="m1315.1,869.59l5.51,2.01c.99.36,1.5,1.44,1.14,2.43-.36.99-1.44,1.5-2.43,1.14h0s-5.53-2.03-5.53-2.03c-.98-.36-1.49-1.45-1.13-2.43.36-.98,1.45-1.49,2.44-1.13Z"/>
          <path class="cls-12" d="m1333.52,876.21l5.54,1.93c1,.34,1.53,1.43,1.19,2.43-.34,1-1.43,1.53-2.43,1.19h-.01s-5.56-1.95-5.56-1.95c-.99-.35-1.52-1.43-1.17-2.43.35-.99,1.44-1.52,2.43-1.17Z"/>
          <path class="cls-12" d="m1352.03,882.55l5.57,1.84c1.01.33,1.56,1.41,1.23,2.42-.33,1.01-1.41,1.56-2.42,1.23h-.01s-5.59-1.86-5.59-1.86c-1-.33-1.55-1.42-1.21-2.42.33-1,1.42-1.55,2.43-1.21Z"/>
          <path class="cls-12" d="m1370.64,888.59l5.6,1.75h0c1.02.32,1.58,1.4,1.27,2.42-.32,1.02-1.4,1.58-2.42,1.27h0s-5.62-1.76-5.62-1.76c-1.01-.32-1.58-1.4-1.26-2.41.32-1.01,1.4-1.58,2.41-1.26h0Z"/>
          <path class="cls-12" d="m1389.34,894.3l5.63,1.65h.01c1.03.3,1.62,1.38,1.32,2.41-.3,1.03-1.38,1.62-2.4,1.32h0s-5.65-1.66-5.65-1.66c-1.03-.3-1.61-1.38-1.31-2.4.3-1.03,1.38-1.61,2.4-1.31h0Z"/>
          <path class="cls-12" d="m1408.15,899.66l5.66,1.54h.01c1.04.29,1.65,1.36,1.37,2.39-.28,1.04-1.35,1.65-2.39,1.37h0s-5.68-1.55-5.68-1.55c-1.04-.28-1.65-1.35-1.37-2.39.28-1.04,1.35-1.65,2.39-1.37h0Z"/>
          <path class="cls-12" d="m1427.06,904.65l5.69,1.42h.01c1.05.27,1.69,1.33,1.43,2.38-.26,1.05-1.33,1.69-2.38,1.43h0s-5.71-1.43-5.71-1.43c-1.05-.26-1.68-1.33-1.42-2.37.26-1.05,1.33-1.68,2.37-1.42h0Z"/>
          <path class="cls-12" d="m1446.07,909.25l5.72,1.3h.01c1.06.24,1.72,1.3,1.48,2.36-.24,1.06-1.3,1.72-2.36,1.48h0s-5.74-1.31-5.74-1.31c-1.06-.24-1.72-1.3-1.48-2.35.24-1.06,1.3-1.72,2.35-1.48h.01Z"/>
          <path class="cls-12" d="m1465.17,913.44l5.75,1.17h.01c1.07.22,1.76,1.27,1.54,2.34-.22,1.07-1.26,1.76-2.33,1.54h0s-5.77-1.18-5.77-1.18c-1.07-.22-1.76-1.26-1.54-2.33.22-1.07,1.26-1.76,2.33-1.54h.01Z"/>
          <path class="cls-12" d="m1484.36,917.19l5.77,1.04h.01c1.08.2,1.8,1.23,1.61,2.31-.19,1.08-1.23,1.8-2.31,1.61h0s-5.8-1.05-5.8-1.05c-1.08-.2-1.8-1.23-1.6-2.31.2-1.08,1.23-1.8,2.31-1.6h.01Z"/>
          <path class="cls-12" d="m1503.62,920.49l5.79.89h.02c1.09.17,1.84,1.19,1.67,2.28-.17,1.09-1.19,1.84-2.28,1.67h0s-5.83-.9-5.83-.9c-1.09-.17-1.84-1.19-1.67-2.28.17-1.09,1.19-1.84,2.28-1.67h.01Z"/>
          <path class="cls-12" d="m1522.96,923.26l5.82.72h.02c1.1.14,1.88,1.14,1.75,2.24-.14,1.1-1.14,1.88-2.24,1.75h0s-5.85-.73-5.85-.73c-1.1-.14-1.88-1.14-1.74-2.24.14-1.1,1.14-1.88,2.24-1.74h.02Z"/>
          <path class="cls-12" d="m1542.38,925.48l5.84.56h.02c1.11.11,1.92,1.09,1.82,2.2-.11,1.11-1.09,1.92-2.2,1.82h0s-5.87-.57-5.87-.57c-1.11-.11-1.92-1.09-1.81-2.2.11-1.11,1.09-1.92,2.2-1.81h.02Z"/>
          <path class="cls-12" d="m1561.84,927.15l5.85.39h.02c1.12.08,1.96,1.04,1.89,2.16-.08,1.12-1.04,1.96-2.16,1.89h0s-5.88-.4-5.88-.4c-1.12-.08-1.96-1.04-1.88-2.16.08-1.12,1.04-1.96,2.16-1.88h.02Z"/>
          <path class="cls-12" d="m1581.35,928.26l5.86.23h.02c1.13.04,2,.99,1.96,2.12-.04,1.12-.99,2-2.12,1.96h0s-5.89-.23-5.89-.23c-1.12-.04-2-.99-1.95-2.11.04-1.12.99-2,2.11-1.95h.02Z"/>
          <path class="cls-12" d="m1600.88,928.82l5.86.06h.02c1.13.01,2.04.94,2.03,2.07-.01,1.13-.94,2.04-2.07,2.03h0l-5.9-.06c-1.13-.01-2.04-.94-2.02-2.07.01-1.13.94-2.04,2.07-2.02h.02Z"/>
          <path class="cls-12" d="m1620.42,928.81l5.86-.11h.02c1.14-.02,2.08.88,2.1,2.02.02,1.14-.88,2.08-2.02,2.1h0l-5.9.11c-1.14.02-2.07-.88-2.09-2.02-.02-1.14.88-2.07,2.02-2.09h.02Z"/>
          <path class="cls-12" d="m1639.94,928.22l5.85-.29h.02c1.14-.06,2.11.82,2.17,1.96.06,1.14-.82,2.11-1.96,2.17h0l-5.89.29c-1.14.06-2.11-.82-2.16-1.96-.06-1.14.82-2.11,1.96-2.16h.02Z"/>
          <path class="cls-12" d="m1659.44,927.05l5.84-.47h.02c1.14-.09,2.15.76,2.24,1.9.09,1.14-.76,2.15-1.91,2.24h0l-5.88.47c-1.14.09-2.14-.76-2.23-1.91-.09-1.14.76-2.14,1.91-2.23h.02Z"/>
          <path class="cls-12" d="m1678.89,925.27l5.82-.65h.02c1.15-.13,2.18.69,2.31,1.84.13,1.15-.7,2.18-1.84,2.31h0s-5.86.65-5.86.65c-1.14.13-2.18-.7-2.3-1.84-.13-1.14.7-2.18,1.84-2.3h.02Z"/>
          <path class="cls-12" d="m1698.27,922.87l5.8-.85h.02c1.15-.17,2.21.62,2.38,1.77.17,1.15-.63,2.21-1.77,2.38h0s-5.84.85-5.84.85c-1.15.17-2.21-.63-2.37-1.77-.17-1.15.63-2.21,1.77-2.37h.02Z"/>
          <path class="cls-12" d="m1717.56,919.82l5.76-1.04h.02c1.15-.21,2.24.55,2.45,1.69.21,1.15-.55,2.24-1.7,2.45h0s-5.81,1.05-5.81,1.05c-1.14.21-2.24-.55-2.45-1.7-.21-1.14.55-2.24,1.7-2.45h.02Z"/>
          <path class="cls-12" d="m1736.73,916.1l5.72-1.25h.02c1.14-.25,2.27.47,2.52,1.61.25,1.14-.47,2.27-1.62,2.52h0s-5.77,1.26-5.77,1.26c-1.14.25-2.27-.48-2.52-1.62-.25-1.14.48-2.27,1.62-2.52h.02Z"/>
          <path class="cls-12" d="m1755.74,911.68l5.67-1.47h.02c1.14-.3,2.3.38,2.59,1.52.29,1.14-.39,2.3-1.53,2.59h0s-5.72,1.47-5.72,1.47c-1.14.29-2.3-.39-2.59-1.53s.39-2.3,1.53-2.59h.02Z"/>
          <path class="cls-12" d="m1774.56,906.53l5.6-1.69h.03c1.13-.35,2.32.29,2.67,1.42.34,1.13-.3,2.32-1.43,2.67h0s-5.66,1.7-5.66,1.7c-1.13.34-2.32-.3-2.66-1.43-.34-1.13.3-2.32,1.43-2.66h.02Z"/>
          <path class="cls-12" d="m1793.15,900.62l5.52-1.93h.03c1.12-.4,2.35.19,2.74,1.31.39,1.12-.2,2.35-1.32,2.74h0s-5.58,1.94-5.58,1.94c-1.12.39-2.34-.2-2.73-1.32-.39-1.12.2-2.34,1.32-2.73h.02Z"/>
          <path class="cls-12" d="m1811.46,893.91l5.43-2.17h.03c1.11-.45,2.36.08,2.81,1.19.44,1.11-.1,2.36-1.2,2.81h0s-5.49,2.19-5.49,2.19c-1.11.44-2.36-.1-2.8-1.2-.44-1.11.1-2.36,1.2-2.8h.03Z"/>
          <path class="cls-12" d="m1829.44,886.37l5.32-2.43h.03c1.09-.51,2.38-.03,2.87,1.06.5,1.09.02,2.38-1.07,2.87h0s-5.38,2.45-5.38,2.45c-1.09.5-2.37.02-2.87-1.07-.5-1.09-.02-2.37,1.07-2.87h.03Z"/>
          <path class="cls-12" d="m1847.02,877.96l5.19-2.7.03-.02c1.07-.56,2.38-.14,2.94.93.56,1.07.14,2.38-.93,2.94h0s-5.25,2.72-5.25,2.72c-1.07.55-2.38.14-2.93-.93-.55-1.07-.14-2.38.93-2.93h.03Z"/>
          <path class="cls-12" d="m1864.13,868.65l5.03-2.97.03-.02c1.04-.62,2.38-.27,3,.77.62,1.04.27,2.38-.77,3h0s-5.1,3.01-5.1,3.01c-1.04.61-2.38.27-2.99-.77-.61-1.04-.27-2.38.77-2.99l.03-.02Z"/>
          <path class="cls-12" d="m1880.69,858.41l4.85-3.26.03-.02c1.01-.68,2.37-.41,3.05.6s.41,2.37-.6,3.05h0s-4.91,3.3-4.91,3.3c-1.01.68-2.37.41-3.05-.6-.68-1.01-.41-2.37.6-3.05l.03-.02Z"/>
          <path class="cls-12" d="m1896.6,847.21l4.64-3.55.03-.03c.97-.74,2.35-.56,3.1.41.74.97.56,2.35-.41,3.1h0s-4.71,3.6-4.71,3.6c-.97.74-2.35.55-3.09-.41-.74-.97-.55-2.35.41-3.09l.03-.02Z"/>
          <path class="cls-12" d="m1911.78,835.04l4.39-3.84.03-.03c.92-.81,2.32-.71,3.13.21.81.92.71,2.32-.21,3.13h0s-4.46,3.89-4.46,3.89c-.92.8-2.32.71-3.13-.21-.8-.92-.71-2.32.21-3.13l.03-.03Z"/>
          <path class="cls-12" d="m1926.12,821.91l4.13-4.13.03-.03c.87-.87,2.28-.87,3.15,0,.87.87.87,2.28,0,3.15h0s-4.19,4.19-4.19,4.19c-.87.87-2.28.87-3.15,0-.87-.87-.87-2.28,0-3.15l.03-.03Z"/>
          <path class="cls-12" d="m1939.54,807.84l3.84-4.39.03-.03c.81-.93,2.23-1.03,3.16-.21.93.81,1.03,2.23.21,3.16h0s-3.9,4.46-3.9,4.46c-.81.93-2.23,1.02-3.15.21-.93-.81-1.02-2.23-.21-3.15l.03-.03Z"/>
          <path class="cls-12" d="m1951.98,792.9l3.53-4.64.03-.04c.75-.99,2.16-1.18,3.15-.43.99.75,1.18,2.16.43,3.15h0s-3.59,4.71-3.59,4.71c-.75.99-2.16,1.18-3.15.42-.99-.75-1.18-2.16-.42-3.15l.03-.03Z"/>
          <path class="cls-12" d="m1963.39,777.15l3.21-4.87.02-.04c.69-1.04,2.09-1.33,3.13-.64,1.04.69,1.33,2.09.64,3.13h0s-3.27,4.94-3.27,4.94c-.69,1.04-2.09,1.32-3.13.64-1.04-.69-1.32-2.09-.64-3.13l.02-.04Z"/>
          <path class="cls-12" d="m1973.72,760.68l2.89-5.07.02-.04c.62-1.09,2-1.47,3.09-.85,1.09.62,1.47,2,.85,3.09h0s-2.94,5.15-2.94,5.15c-.62,1.09-2,1.47-3.09.85-1.09-.62-1.47-2-.85-3.09l.02-.04Z"/>
          <path class="cls-12" d="m1982.95,743.56l2.55-5.25.02-.04c.55-1.13,1.91-1.6,3.05-1.05s1.6,1.91,1.05,3.05h0s-2.6,5.32-2.6,5.32c-.55,1.13-1.91,1.6-3.04,1.05-1.13-.55-1.6-1.91-1.05-3.04l.02-.04Z"/>
          <path class="cls-12" d="m1991.07,725.89l2.22-5.4.02-.04c.48-1.17,1.82-1.73,2.99-1.25,1.17.48,1.73,1.82,1.25,2.99h0s-2.26,5.48-2.26,5.48c-.48,1.17-1.82,1.72-2.98,1.24-1.17-.48-1.72-1.82-1.24-2.98l.02-.04Z"/>
          <path class="cls-12" d="m1998.09,707.74l1.89-5.52v-.04c.42-1.2,1.73-1.84,2.93-1.43,1.2.41,1.84,1.72,1.43,2.92h0s-1.92,5.6-1.92,5.6c-.41,1.2-1.72,1.84-2.92,1.43-1.2-.41-1.84-1.72-1.43-2.92v-.04Z"/>
          <path class="cls-12" d="m2004,689.2l1.56-5.63v-.04c.35-1.23,1.62-1.95,2.85-1.61,1.23.34,1.95,1.61,1.61,2.84h0s-1.59,5.7-1.59,5.7c-.34,1.23-1.61,1.94-2.84,1.6-1.23-.34-1.94-1.61-1.6-2.84v-.04Z"/>
          <path class="cls-12" d="m2008.83,670.35l1.24-5.71v-.04c.28-1.25,1.51-2.05,2.77-1.77,1.25.27,2.05,1.51,1.77,2.76h0s-1.26,5.78-1.26,5.78c-.27,1.25-1.51,2.04-2.76,1.77-1.25-.27-2.04-1.51-1.77-2.76v-.04Z"/>
          <path class="cls-12" d="m2012.59,651.25l.92-5.77v-.04c.21-1.27,1.4-2.13,2.67-1.93,1.27.2,2.13,1.4,1.93,2.67h0s-.94,5.84-.94,5.84c-.2,1.27-1.4,2.13-2.67,1.93-1.27-.2-2.13-1.4-1.93-2.67v-.04Z"/>
          <path class="cls-12" d="m2015.31,631.97l.61-5.81v-.04c.14-1.28,1.29-2.22,2.58-2.08,1.28.14,2.22,1.29,2.08,2.57h0s-.63,5.89-.63,5.89c-.14,1.28-1.29,2.21-2.57,2.07-1.28-.14-2.21-1.29-2.07-2.57v-.03Z"/>
          <path class="cls-12" d="m2017,612.57l.31-5.83v-.04c.07-1.3,1.18-2.29,2.47-2.22,1.3.07,2.29,1.17,2.22,2.47h0s-.32,5.91-.32,5.91c-.07,1.29-1.18,2.29-2.47,2.22-1.29-.07-2.29-1.18-2.22-2.47v-.03Z"/>
          <path class="cls-12" d="m2017.69,593.1l.02-5.84v-.03c0-1.3,1.06-2.36,2.37-2.35,1.3,0,2.35,1.06,2.35,2.37h0s-.03,5.92-.03,5.92c0,1.3-1.06,2.35-2.37,2.35-1.3,0-2.35-1.07-2.35-2.37v-.03Z"/>
          <path class="cls-12" d="m2017.42,573.62l-.26-5.84v-.03c-.06-1.31.95-2.41,2.26-2.47,1.31-.06,2.41.95,2.47,2.26h0s.26,5.91.26,5.91c.06,1.31-.95,2.41-2.26,2.47-1.31.06-2.41-.95-2.47-2.26v-.03Z"/>
          <path class="cls-12" d="m2016.22,554.18l-.54-5.82v-.03c-.12-1.31.84-2.47,2.14-2.59,1.31-.12,2.47.84,2.59,2.15h0s.54,5.89.54,5.89c.12,1.31-.84,2.46-2.15,2.58-1.31.12-2.46-.84-2.58-2.15v-.03Z"/>
          <path class="cls-12" d="m2014.1,534.81l-.81-5.79v-.03c-.19-1.31.72-2.51,2.03-2.7,1.31-.18,2.51.73,2.7,2.03h0s.82,5.86.82,5.86c.18,1.3-.73,2.51-2.03,2.69-1.3.18-2.51-.73-2.69-2.03v-.03Z"/>
          <path class="cls-12" d="m2011.07,515.57l-1.08-5.74v-.03c-.25-1.3.6-2.56,1.91-2.8,1.3-.25,2.56.61,2.8,1.91h0s1.09,5.81,1.09,5.81c.24,1.3-.61,2.55-1.91,2.8-1.3.24-2.55-.61-2.8-1.91v-.03Z"/>
          <path class="cls-12" d="m2007.15,496.48l-1.34-5.69v-.03c-.31-1.29.49-2.59,1.78-2.9,1.29-.31,2.59.5,2.9,1.79h0s1.35,5.76,1.35,5.76c.3,1.29-.5,2.59-1.79,2.89-1.29.3-2.59-.5-2.89-1.79v-.03Z"/>
          <path class="cls-12" d="m2002.37,477.59l-1.6-5.62v-.03c-.37-1.28.37-2.62,1.66-2.99,1.28-.37,2.62.38,2.99,1.66h0s1.61,5.69,1.61,5.69c.36,1.28-.38,2.62-1.67,2.98-1.28.36-2.62-.38-2.98-1.67v-.03Z"/>
          <path class="cls-12" d="m1996.75,458.93l-1.85-5.55v-.03c-.43-1.27.25-2.65,1.53-3.07,1.27-.42,2.65.26,3.07,1.54h0s1.86,5.61,1.86,5.61c.42,1.27-.27,2.64-1.54,3.07-1.27.42-2.64-.27-3.07-1.54v-.03Z"/>
          <path class="cls-12" d="m1990.31,440.53l-2.09-5.46v-.03c-.49-1.26.14-2.67,1.4-3.15,1.26-.48,2.67.15,3.15,1.41h0s2.1,5.53,2.1,5.53c.48,1.26-.15,2.66-1.41,3.14-1.26.48-2.66-.15-3.14-1.41v-.03Z"/>
          <path class="cls-12" d="m1983.09,422.43l-2.32-5.37v-.03c-.55-1.24.02-2.68,1.26-3.22,1.24-.54,2.68.04,3.22,1.28h0s2.34,5.43,2.34,5.43c.53,1.24-.04,2.68-1.28,3.21-1.24.53-2.68-.04-3.21-1.28v-.03Z"/>
          <path class="cls-12" d="m1975.09,404.65l-2.54-5.27v-.03c-.6-1.22-.09-2.69,1.13-3.28s2.69-.08,3.28,1.15h0s2.56,5.33,2.56,5.33c.59,1.22.07,2.69-1.15,3.28s-2.69.07-3.28-1.15v-.03Z"/>
          <path class="cls-12" d="m1966.36,387.22l-2.76-5.16v-.03c-.66-1.2-.2-2.7,1-3.34,1.2-.64,2.7-.19,3.34,1.01h0s2.78,5.22,2.78,5.22c.64,1.2.19,2.69-1.01,3.34-1.2.64-2.69.19-3.34-1.01v-.02Z"/>
          <path class="cls-12" d="m1956.92,370.17l-2.97-5.04-.02-.03c-.69-1.18-.3-2.7.88-3.39,1.18-.69,2.7-.3,3.39.88h0s2.99,5.1,2.99,5.1c.69,1.18.3,2.7-.88,3.39-1.18.69-2.7.3-3.39-.88v-.02Z"/>
          <path class="cls-12" d="m1946.79,353.51l-3.17-4.92-.02-.03c-.74-1.16-.41-2.7.74-3.44,1.16-.74,2.7-.41,3.44.74h0s3.2,4.97,3.2,4.97c.74,1.15.41,2.69-.75,3.44-1.15.74-2.69.41-3.43-.75v-.02Z"/>
          <path class="cls-12" d="m1936,337.27l-3.36-4.79-.02-.02c-.79-1.13-.52-2.69.61-3.48,1.13-.79,2.69-.52,3.48.61h0s3.39,4.84,3.39,4.84c.79,1.13.52,2.68-.61,3.48-1.13.79-2.68.52-3.48-.61l-.02-.02Z"/>
          <path class="cls-12" d="m1924.58,321.47l-3.55-4.65-.02-.02c-.84-1.1-.63-2.68.47-3.52,1.1-.84,2.68-.63,3.52.47h0s3.58,4.7,3.58,4.7c.84,1.1.62,2.67-.48,3.51-1.1.84-2.67.62-3.51-.48l-.02-.02Z"/>
          <path class="cls-12" d="m1912.56,306.13l-3.72-4.51-.02-.02c-.89-1.07-.73-2.66.34-3.55s2.66-.73,3.55.34h0s3.76,4.56,3.76,4.56c.88,1.07.73,2.66-.34,3.54-1.07.88-2.66.73-3.54-.34l-.02-.02Z"/>
          <path class="cls-12" d="m1899.94,291.25l-3.89-4.37-.02-.02c-.93-1.04-.84-2.64.2-3.57s2.64-.84,3.57.2h0s3.93,4.42,3.93,4.42c.93,1.04.83,2.64-.21,3.57-1.04.93-2.64.83-3.57-.21l-.02-.02Z"/>
          <path class="cls-12" d="m1886.78,276.87l-4.05-4.22-.02-.02c-.97-1.01-.94-2.62.07-3.59,1.01-.97,2.62-.94,3.59.07h0s4.09,4.26,4.09,4.26c.97,1.01.94,2.62-.07,3.59-1.01.97-2.62.94-3.59-.07l-.02-.02Z"/>
          <path class="cls-12" d="m1873.08,262.99l-4.21-4.06-.02-.02c-1.01-.98-1.04-2.59-.06-3.6.98-1.01,2.59-1.04,3.6-.06h0s4.25,4.11,4.25,4.11c1.01.98,1.04,2.59.06,3.6-.98,1.01-2.59,1.04-3.6.06l-.02-.02Z"/>
          <path class="cls-12" d="m1858.87,249.63l-4.35-3.91-.02-.02c-1.05-.94-1.14-2.56-.2-3.61.94-1.05,2.56-1.14,3.61-.2h0s4.39,3.95,4.39,3.95c1.05.94,1.14,2.56.19,3.61-.94,1.05-2.56,1.14-3.61.19l-.02-.02Z"/>
          <path class="cls-12" d="m1844.2,236.78l-4.49-3.75-.02-.02c-1.09-.91-1.23-2.53-.32-3.62.91-1.09,2.53-1.23,3.62-.32h0s4.53,3.79,4.53,3.79c1.09.91,1.23,2.53.32,3.61-.91,1.09-2.53,1.23-3.61.32l-.02-.02Z"/>
          <path class="cls-12" d="m1829.08,224.46l-4.62-3.6-.02-.02c-1.12-.88-1.32-2.5-.45-3.62.88-1.12,2.5-1.32,3.62-.45h0s4.65,3.64,4.65,3.64c1.12.88,1.32,2.49.45,3.62-.88,1.12-2.49,1.32-3.61.45h-.02Z"/>
          <path class="cls-12" d="m1813.55,212.65l-4.73-3.44h-.02c-1.16-.86-1.41-2.47-.57-3.63.84-1.16,2.46-1.41,3.62-.57h0s4.77,3.48,4.77,3.48c1.15.84,1.41,2.46.57,3.61-.84,1.15-2.46,1.41-3.61.57h-.02Z"/>
          <path class="cls-12" d="m1797.64,201.36l-4.84-3.29h-.02c-1.19-.82-1.5-2.44-.69-3.62.81-1.19,2.42-1.5,3.61-.69h0s4.88,3.32,4.88,3.32c1.19.81,1.49,2.42.69,3.61-.81,1.19-2.42,1.49-3.61.69h-.02Z"/>
          <path class="cls-12" d="m1781.37,190.58l-4.95-3.13h-.02c-1.22-.78-1.58-2.4-.81-3.61.77-1.22,2.38-1.58,3.6-.81h0s4.98,3.17,4.98,3.17c1.21.77,1.57,2.38.8,3.6-.77,1.21-2.38,1.57-3.6.8h-.02Z"/>
          <path class="cls-12" d="m1764.77,180.32l-5.04-2.98h-.02c-1.24-.75-1.66-2.35-.92-3.6.74-1.24,2.34-1.66,3.59-.92h0s5.08,3.01,5.08,3.01c1.24.74,1.65,2.34.92,3.58-.74,1.24-2.34,1.65-3.58.92h-.02Z"/>
          <path class="cls-12" d="m1747.87,170.57l-5.13-2.83h-.02c-1.27-.71-1.73-2.31-1.03-3.58.7-1.27,2.3-1.73,3.57-1.03h0s5.17,2.86,5.17,2.86c1.27.7,1.73,2.3,1.03,3.57-.7,1.27-2.3,1.73-3.57,1.03h-.02Z"/>
          <path class="cls-12" d="m1730.68,161.32l-5.21-2.67h-.02c-1.3-.68-1.81-2.27-1.14-3.56.67-1.3,2.26-1.81,3.55-1.14h0s5.25,2.7,5.25,2.7c1.29.67,1.8,2.26,1.14,3.55-.67,1.29-2.25,1.8-3.55,1.14h-.02Z"/>
          <path class="cls-12" d="m1713.22,152.59l-5.29-2.52h-.02c-1.32-.64-1.88-2.22-1.25-3.54.63-1.32,2.21-1.88,3.53-1.25h0s5.32,2.55,5.32,2.55c1.32.63,1.88,2.21,1.24,3.53-.63,1.32-2.21,1.88-3.53,1.25h-.02Z"/>
          <path class="cls-12" d="m1695.52,144.36l-5.36-2.37h-.02c-1.34-.6-1.95-2.17-1.36-3.52.59-1.34,2.16-1.95,3.51-1.36h0s5.39,2.39,5.39,2.39c1.34.59,1.95,2.16,1.35,3.5-.6,1.34-2.16,1.94-3.5,1.35h-.02Z"/>
          <path class="cls-12" d="m1677.59,136.64l-5.42-2.22h-.02c-1.36-.57-2.02-2.12-1.46-3.49.56-1.36,2.12-2.02,3.48-1.46h0s5.46,2.24,5.46,2.24c1.36.56,2.01,2.12,1.45,3.48-.56,1.36-2.12,2.01-3.48,1.45h-.02Z"/>
          <path class="cls-12" d="m1659.45,129.42l-5.48-2.07h-.02c-1.38-.53-2.08-2.08-1.56-3.46.52-1.38,2.07-2.08,3.45-1.56h0s5.52,2.09,5.52,2.09c1.38.52,2.08,2.07,1.56,3.45-.52,1.38-2.07,2.08-3.45,1.56h-.02Z"/>
          <path class="cls-12" d="m1641.12,122.71l-5.53-1.91h-.02c-1.4-.49-2.15-2.02-1.66-3.43.49-1.4,2.02-2.15,3.42-1.66h0s5.57,1.94,5.57,1.94c1.4.49,2.14,2.02,1.66,3.42-.49,1.4-2.02,2.14-3.42,1.66h-.02Z"/>
          <path class="cls-12" d="m1622.61,116.5l-5.58-1.76h-.02c-1.42-.46-2.21-1.97-1.76-3.39.45-1.42,1.96-2.21,3.39-1.76h0s5.62,1.78,5.62,1.78c1.42.45,2.21,1.96,1.76,3.38-.45,1.42-1.96,2.21-3.38,1.76h-.02Z"/>
          <path class="cls-12" d="m1603.94,110.8l-5.63-1.61h-.02c-1.44-.42-2.27-1.92-1.86-3.36.41-1.44,1.91-2.27,3.35-1.86h0s5.67,1.63,5.67,1.63c1.44.41,2.27,1.91,1.85,3.35-.41,1.44-1.91,2.27-3.35,1.85h-.02Z"/>
          <path class="cls-12" d="m1585.12,105.61l-5.67-1.46h-.02c-1.45-.38-2.33-1.86-1.96-3.32.37-1.45,1.86-2.33,3.31-1.96h0s5.71,1.48,5.71,1.48c1.45.37,2.33,1.86,1.95,3.31-.38,1.45-1.86,2.33-3.31,1.95h-.02Z"/>
          <path class="cls-12" d="m1566.17,100.93l-5.71-1.31h-.02c-1.47-.34-2.39-1.8-2.05-3.27s1.8-2.39,3.27-2.05h0s5.75,1.32,5.75,1.32c1.47.34,2.38,1.8,2.05,3.27-.34,1.47-1.8,2.38-3.27,2.05h-.02Z"/>
          <path class="cls-12" d="m1547.1,96.76l-5.74-1.15h-.02c-1.48-.3-2.44-1.74-2.15-3.23.3-1.48,1.74-2.44,3.22-2.15h0s5.78,1.17,5.78,1.17c1.48.3,2.44,1.74,2.14,3.22s-1.74,2.44-3.22,2.14h-.02Z"/>
          <path class="cls-12" d="m1527.92,93.1l-5.77-1h-.02c-1.5-.26-2.5-1.68-2.24-3.18.26-1.5,1.68-2.5,3.18-2.24h0s5.81,1.01,5.81,1.01c1.49.26,2.49,1.68,2.24,3.17-.26,1.49-1.68,2.49-3.17,2.24h-.02Z"/>
          <path class="cls-12" d="m1508.65,89.96l-5.8-.84h-.02c-1.51-.22-2.55-1.62-2.33-3.13.22-1.51,1.62-2.55,3.13-2.33h0s5.84.85,5.84.85c1.51.22,2.55,1.62,2.33,3.12-.22,1.51-1.62,2.55-3.12,2.33h-.02Z"/>
          <path class="cls-12" d="m1489.31,87.34l-5.28-.62h-.02c-1.52-.18-2.6-1.56-2.43-3.08.18-1.52,1.55-2.6,3.07-2.43h0s5.32.63,5.32.63c1.52.18,2.6,1.56,2.42,3.07-.18,1.52-1.56,2.6-3.07,2.42h-.02Z"/>
        </g>
        <g>
          <polygon class="cls-12" points="1455.64 46.18 1458.55 82.73 1432.54 68.99 1455.64 46.18"/>
          <path class="cls-69" d="m1289.6,38.27l105.6,78.74c2.02,1.51,4.57,2.13,7.06,1.72,2.49-.41,4.7-1.82,6.13-3.89l75.06-109c.86-1.25.88-2.89.04-4.16-.83-1.26-2.35-1.9-3.84-1.6l-190.05,38.2Z"/>
          <polygon class="cls-12" points="1455.63 46.19 1289.6 38.27 1443.57 63.81 1444.81 73.92 1455.63 46.19"/>
          <polygon class="cls-12" points="1436.34 74.21 1458.55 82.73 1443.57 63.81 1436.34 74.21"/>
        </g>
      </g>
      <g>
        <g>
          <path class="cls-59" d="m1130.99,1074.61s-9.91-26.1-21.5-23.71c-11.58,2.39-24.25,11.29-24.25,11.29l-18.6,25.16s52.23,20.57,70.6,8.78c0,0,53.35,9.22,120.71-1.84-9.75-20.59-15.56-41.2-18.98-57.2-34.12,19.31-70.87,33.74-107.98,37.51Z"/>
          <path class="cls-30" d="m1413.57,885.3s-76.38,96.2-174.6,151.8c3.41,16,9.23,36.61,18.98,57.2,50.95-8.36,109.92-28.31,159.92-72.65l-4.29-136.34Z"/>
        </g>
        <path class="cls-60" d="m393.46,929.67l151.62,381.32c7.72,19.41,27.73,30.99,48.41,28.02l397.61-29.36-143.21-405.49c-3.81-10.03-13.54-16.57-24.26-16.32-69.71,1.61-323.61,7.88-414.44,15.96-12.61,1.12-20.51,14.16-15.72,25.88Z"/>
        <path class="cls-51" d="m580.09,1321.7l-151.49-384.74c-3.06-7.77,2.55-16.2,10.89-16.39l374.43-14.21c9.65-.37,18.47,5.41,21.99,14.4l137.14,375.06-392.97,25.89Z"/>
        <path class="cls-70" d="m1907.7,929.67l-151.62,381.32c-7.72,19.41-27.73,30.99-48.41,28.02l-397.61-27.82,143.21-407.03c3.82-10.03,13.54-16.57,24.26-16.32,69.71,1.61,323.61,7.88,414.44,15.96,12.61,1.12,20.51,14.16,15.72,25.88Z"/>
        <path class="cls-66" d="m1721.07,1321.7l151.49-384.74c3.06-7.77-2.55-16.2-10.89-16.39l-374.43-14.21c-9.65-.37-18.47,5.41-21.99,14.4l-137.14,375.06,392.97,25.89Z"/>
        <path class="cls-64" d="m841.13,898.02l4.74,127.35c13.47,4.63,26.29,8.24,38.5,10.93,7.64-24.59,24.46-54.77,38.23-77.21-50.6-17.89-81.47-61.08-81.47-61.08Z"/>
        <path class="cls-21" d="m1093.73,895.86c-69.41,74.94-125.58,79.35-171.14,63.24-13.77,22.44-30.59,52.62-38.23,77.21,185.34,40.86,228.99-129.53,228.99-129.53l-19.63-10.92Z"/>
        <path class="cls-39" d="m1107.81,887.9s7.99-8.59,22.79-5.89c14.8,2.7,27.97,7.84,37.19,0,9.22-7.84,12.46,2.68,12.46,2.68l-27.61,20.99-44.83-17.78Z"/>
        <path class="cls-5" d="m1091.3,902.58s5.48-22.91,21.99-19.77c16.51,3.14,53.99,23.52,63.65,19.77,9.66-3.75,22.01-12.74,28.35-9.57l-11.16,13.88s28.69-16.55,33.63-6.38l-47.74,26.87s-69.85-6.99-88.71-24.8Z"/>
        <path class="cls-24" d="m600.86,1317.75s-23.68-338.09,148.96-443.22c0,0,48.27-31.86,108.41,29.84,60.14,61.71,40.77,125.82-9.7,185.9-50.47,60.08-101.88,167.41-89.64,227.48h-158.02Z"/>
        <path class="cls-37" d="m836.83,782.43c-.05,4.03-57.53,85.69-57.53,85.69,0,0,10.32,20.32,59.58,36.82l42.52-87.43-44.57-35.08Z"/>
        <path class="cls-54" d="m814.22,1062.78s109.07,91.35,226.85,51.49c7.31-2.47,15.29-1.94,22.11,1.67l33.86,17.88c14.21,7.51,31.81,2.58,40.06-11.22,4.7-7.87,8.72-16.86,9.52-25.47l-66.25-26.82,4.88-8.12s-32.35-2.74-40.81,20.44c0,0-61.61,25.63-165.52-88.66,0,0-47.15,40.09-64.69,68.81Z"/>
        <path class="cls-74" d="m808.35,1062.38c-.46,0-.93-.13-1.35-.41-46.06-31.12-67.73-81.35-67.94-81.86-.52-1.23.05-2.64,1.28-3.16,1.23-.52,2.64.05,3.16,1.28.21.49,21.36,49.44,66.2,79.74,1.1.75,1.4,2.25.65,3.35-.47.69-1.23,1.06-2,1.06Z"/>
        <path class="cls-1" d="m876.76,992.97c-.79,0-1.57-.39-2.03-1.11-.14-.22-14.18-22.07-40.91-69.94-8.14-14.58-18.82-23.8-31.76-27.43-21.45-6-42.14,5.51-42.34,5.62-1.16.66-2.63.25-3.29-.91-.66-1.16-.25-2.63.9-3.29.91-.52,22.58-12.61,45.99-6.09,14.24,3.97,25.92,13.98,34.72,29.73,26.64,47.71,40.61,69.46,40.75,69.68.72,1.12.4,2.61-.72,3.34-.4.26-.86.38-1.31.38Z"/>
        <g>
          <path class="cls-48" d="m882.09,735.64s20.46,46.99,21.83,71.65c1.37,24.66,6.69,40.67-21.83,45.63-28.52,4.97-52.54-9.24-65.56-33.81,0,0-20.39-37.86-15.82-53.36,4.57-15.5,81.37-30.12,81.37-30.12Z"/>
          <path class="cls-36" d="m826.28,801.46l1.62-.72c2.07-.91,2.95-3.37,1.91-5.38-4.02-7.77-11.86-25.57-1.73-29.73,13.05-5.35,64.75-15.9,75.91-34.24,10.72-17.63,1.22-40.39-13.05-46.86-.96-.43-2.08-.09-2.57.84l-1.19,2.25c-.81,1.54-3.09,1.31-3.57-.37h0c-.46-1.61-2.6-1.92-3.49-.5-3.43,5.49-12.69,14.39-37.44,18.95-35.18,6.49-58.44,20.73-59.02,45.04-.04,1.54-1.68,2.4-3,1.6-2.6-1.58-6.75-2.33-12.31,2.35-9.66,8.12-5.71,29.2,15.47,46.53,1.01.82,1,2.39-.09,3.1-3.84,2.5-9.56,8.45,5.27,16.38,15.34,8.2,26.8,7.53,31.21,6.8,1.1-.18,1.8-1.24,1.57-2.33l-4.71-21.37c-.27-1.21.65-2.35,1.89-2.35h7.33Z"/>
          <path class="cls-26" d="m827.17,805.97s-7.8-30.02-21.26-21.6c-13.46,8.42,6.98,33.63,17.8,34.76l3.46-13.16Z"/>
        </g>
        <path class="cls-25" d="m1063.18,1115.94s27.72,27.11,33.07,23.16c1.9-1.4,6.71-6.5,11.36-12.18,3.29-4.01,3.63-9.67.81-14.02l-6.54-10.09c-6.23-9.61-19.57-11.63-28.21-4.11-4.36,3.79-8.31,9.28-10.49,17.24Z"/>
        <path class="cls-14" d="m1499.94,1312.77s-.19-121.81-71.01-247.59c-22.15-39.34-30.03-85.14-23.12-129.76l7.76-50.11s97.2-32.89,204.93-1.39c0,0,149.39,123.3,49.55,438.67l-168.11-9.82Z"/>
        <path class="cls-31" d="m1430.12,821.34l25.2,60.55c1.59,3.82,5.03,6.55,9.12,7.25,14.53,2.49,49.68,6.38,72.76-8.79,2.75-1.81,3.45-5.55,1.57-8.25l-46.56-66.85-62.08,16.09Z"/>
        <g>
          <path class="cls-13" d="m1492.28,1105.89c-3.47.92-5.2,4.82-3.53,8l72.91,139.81c1.23,2.36,3.96,3.53,6.51,2.79l238.5-68.86c2.97-.86,4.68-3.96,3.82-6.93l-41.08-142.22c-.84-2.92-3.86-4.63-6.8-3.86l-270.33,71.28Z"/>
          <path class="cls-69" d="m1507.66,1089.46c-3.42.81-5.35,4.43-4.14,7.72l58.36,158.54c1.06,2.88,4.17,4.46,7.12,3.6l237.78-68.65c2.96-.85,4.75-3.85,4.1-6.86l-32.95-152.59c-.69-3.21-3.89-5.22-7.08-4.46l-263.19,62.7Z"/>
          <path class="cls-65" d="m1528.37,1073.46c-4.17.63-6.92,4.68-5.96,8.79l39.64,171.15c.94,4.04,5.07,6.47,9.06,5.32l234.18-67.61c3.76-1.09,5.98-4.97,5-8.76l-36.01-139.71c-.93-3.6-4.43-5.91-8.1-5.35l-237.81,36.17Z"/>
        </g>
        <path class="cls-46" d="m1717.94,1138.73c18.18-137.3-87.63-242.87-87.63-242.87l-62.95,73.39c47.79,59.57,70.51,114.16,80.89,157.04,13.76-4.01,46.9-10.34,69.69,12.44Z"/>
        <path class="cls-67" d="m1648.24,1127.89c-.73,0-1.38-.49-1.56-1.23-12.87-53.18-39.99-105.81-80.58-156.41-.56-.69-.44-1.71.25-2.26.69-.56,1.71-.44,2.26.25,40.89,50.98,68.21,104.02,81.2,157.67.21.86-.32,1.73-1.18,1.94-.13.03-.25.04-.38.04Z"/>
        <path class="cls-58" d="m1648.25,1126.29c9.65,39.85,8.63,69.58,7.16,83.78-.55,5.35-4.85,9.53-10.22,9.91-6.1.43-14.39.99-21.81,1.41-8.15.47-17.2-4.68-23.25-8.99-3.09-2.2-7.08,1.22-5.36,4.6,4.51,8.83,15.97,16.7,23.87,21.32,2.87,1.68,2.33,5.98-.87,6.89l-33.78,9.57c55.5,52.29,92.14-6.22,92.14-6.22,24.5-37.86,37.17-74.87,41.79-109.83-22.79-22.78-55.93-16.45-69.69-12.44Z"/>
        <g>
          <path class="cls-55" d="m1456.18,728.71c-1.06,1-44.67,86.64-44.67,86.64l49.43,23.86,53.4-75.03s-40.44-52.15-58.16-35.47Z"/>
          <path class="cls-56" d="m1491.87,773.18l-24.65,41.1c-.37.62-.82,1.19-1.35,1.68-2.93,2.73-12.98,10.68-20.74-.14-6.62-9.22-12.82-17.6-19.48-21.06-3.88-2.02-8.66-.41-10.64,3.5-4.06,8.05-11.93,24.46-16.87,40.02-1.24,3.9.77,8.09,4.57,9.62,10.01,4.06,29.79,11.39,47.35,13.81,2.88.4,5.74-.82,7.45-3.17,7.55-10.35,28.84-39.26,36.1-46.5,6.75-6.72,19.21-4.19,24.82-2.58,2.13.61,4.4.32,6.3-.83,5.7-3.43,15.63-11.97,6.54-26.44-2.26-3.6-1.11-8.39,2.44-10.72,6.36-4.18,13.26-12.03,6.68-24.75-6.65-12.87-18.54-14.03-26.63-13.04-3.58.44-7.22-1.44-8.59-4.78-.61-1.48-1.82-2.75-4.07-3.2-4.24-.86-7.03-4.74-6.19-8.99,1.43-7.28.35-16.74-11.28-23.14-21.33-11.73-40.01,7.38-44.76,23.51-4.75,16.13,19.1,27.53,34.1,29.43,11.02,1.4,17.06,13.42,19.49,19.71.88,2.28.67,4.83-.59,6.92Z"/>
          <path class="cls-38" d="m1484.35,827.15s9.48-27.75,21.62-26.73,21.69,13.11,6.65,26.71c-18.71,16.91-28.27.02-28.27.02Z"/>
        </g>
        <path class="cls-63" d="m1126.29,1326.6c0,7.11-5.76,12.87-12.87,12.87h-522.92c-10.8,0-19.56-8.76-19.56-19.56l-8.23-9.56,542.96-4.65c11.43.15,20.62,9.47,20.62,20.9h0Z"/>
        <path class="cls-45" d="m1174.87,1326.6c0,7.11,5.76,12.87,12.87,12.87h522.92c10.8,0,19.56-8.76,19.56-19.56l8.23-9.56-542.96-4.65c-11.43.15-20.62,9.47-20.62,20.9h0Z"/>
      </g>
      <g>
        <g>
          <g>
            <path class="cls-12" d="m483.18,1063.1c-.73,0-1.45-.35-1.89-1.01-1.65-2.46-3.38-4.92-5.17-7.32-.75-1.01-.54-2.43.47-3.17,1.01-.75,2.43-.54,3.17.47,1.82,2.46,3.6,4.98,5.29,7.5.7,1.04.42,2.45-.62,3.15-.39.26-.83.38-1.26.38Z"/>
            <path class="cls-12" d="m324.44,1360.47c-3.42,0-6.88-.09-10.27-.28-1.25-.07-2.21-1.14-2.14-2.39.07-1.25,1.16-2.2,2.39-2.14,5.86.31,11.88.35,17.68.11,1.27-.04,2.31.92,2.36,2.17.05,1.25-.92,2.31-2.17,2.36-2.58.11-5.22.16-7.84.16Zm36.62-3.57c-1.06,0-2.01-.75-2.22-1.83-.24-1.23.56-2.42,1.79-2.66,5.59-1.1,11.21-2.47,16.71-4.07l.48-.14c1.2-.35,2.46.34,2.81,1.54.35,1.2-.34,2.46-1.54,2.81l-.46.14c-5.65,1.65-11.41,3.05-17.13,4.17-.15.03-.29.04-.44.04Zm44.58-14.54c-.85,0-1.67-.48-2.06-1.31-.53-1.13-.04-2.49,1.09-3.02,5.32-2.49,10.59-5.26,15.65-8.24,1.08-.63,2.47-.27,3.11.81.64,1.08.27,2.47-.81,3.11-5.18,3.05-10.58,5.89-16.03,8.43-.31.15-.64.21-.96.21Zm39.68-24.94c-.66,0-1.31-.28-1.76-.83-.79-.97-.65-2.4.32-3.19,4.54-3.71,8.96-7.69,13.15-11.82.89-.88,2.33-.87,3.21.02.88.89.87,2.33-.02,3.21-4.28,4.23-8.81,8.3-13.46,12.1-.42.34-.93.51-1.43.51Zm32.37-33.9c-.47,0-.94-.15-1.35-.45-1.01-.75-1.21-2.17-.47-3.17,3.5-4.71,6.83-9.65,9.88-14.67.65-1.07,2.04-1.41,3.12-.76,1.07.65,1.41,2.05.76,3.12-3.12,5.14-6.53,10.2-10.12,15.02-.45.6-1.13.92-1.82.92Zm23.17-40.76c-.29,0-.59-.06-.87-.18-1.16-.48-1.7-1.81-1.22-2.97,2.26-5.43,4.29-11.02,6.03-16.63.37-1.2,1.65-1.87,2.84-1.49,1.2.37,1.87,1.64,1.49,2.84-1.78,5.74-3.86,11.47-6.17,17.03-.36.87-1.21,1.4-2.1,1.4Zm12.59-45.17c-.11,0-.22,0-.34-.02-1.24-.19-2.09-1.34-1.91-2.58.87-5.82,1.47-11.74,1.79-17.6.07-1.25,1.15-2.22,2.39-2.14,1.25.07,2.21,1.14,2.14,2.39-.32,6-.94,12.06-1.83,18.02-.17,1.13-1.14,1.93-2.24,1.93Zm1.14-46.89c-1.15,0-2.14-.87-2.26-2.04-.58-5.84-1.45-11.73-2.58-17.5-.24-1.23.56-2.42,1.79-2.66,1.23-.24,2.42.56,2.66,1.79,1.16,5.91,2.05,11.94,2.64,17.92.12,1.25-.79,2.36-2.03,2.48-.08,0-.15.01-.23.01Zm-10.32-45.74c-.93,0-1.8-.58-2.14-1.51-1.99-5.55-4.25-11.05-6.73-16.36-.53-1.14-.04-2.49,1.1-3.02,1.14-.52,2.49-.04,3.02,1.1,2.54,5.44,4.86,11.07,6.89,16.75.42,1.18-.19,2.48-1.37,2.9-.25.09-.51.13-.76.13Z"/>
            <path class="cls-12" d="m285.36,1356.4c-.16,0-.31-.02-.47-.05-2.97-.63-5.98-1.33-8.93-2.1-1.21-.32-1.94-1.56-1.62-2.77.31-1.21,1.56-1.94,2.77-1.62,2.89.75,5.82,1.44,8.73,2.05,1.23.26,2.01,1.46,1.75,2.69-.22,1.07-1.17,1.8-2.22,1.8Z"/>
          </g>
          <g>
            <path class="cls-12" d="m162.05,1269.88c-.76,0-1.5-.38-1.93-1.08-1.61-2.61-3.17-5.28-4.63-7.93-.61-1.1-.21-2.48.89-3.08,1.1-.61,2.48-.21,3.08.89,1.43,2.59,2.95,5.19,4.52,7.74.66,1.07.33,2.46-.74,3.12-.37.23-.78.34-1.19.34Z"/>
            <path class="cls-12" d="m145.55,1236.04c-.92,0-1.79-.57-2.13-1.48-1.61-4.34-3.09-8.81-4.39-13.29-.36-1.23-.7-2.46-1.03-3.68-.33-1.21.39-2.46,1.6-2.78,1.22-.33,2.46.39,2.78,1.6.32,1.2.66,2.4,1.01,3.6,1.28,4.38,2.72,8.74,4.29,12.98.44,1.17-.16,2.48-1.34,2.92-.26.1-.53.14-.79.14Zm-10.77-44.87c-1.14,0-2.12-.85-2.25-2.01-.68-5.88-1.09-11.86-1.22-17.78-.03-1.25.96-2.29,2.22-2.32,1.24,0,2.29.97,2.32,2.22.13,5.78.53,11.62,1.2,17.36.14,1.24-.75,2.37-1.99,2.51-.09.01-.18.02-.26.02Zm.32-46.14c-.1,0-.2,0-.29-.02-1.24-.16-2.12-1.3-1.96-2.54.76-5.87,1.8-11.77,3.11-17.55.28-1.22,1.49-1.99,2.71-1.72,1.22.27,1.99,1.49,1.72,2.71-1.27,5.64-2.29,11.41-3.03,17.14-.15,1.14-1.12,1.98-2.25,1.98Zm11.42-44.7c-.27,0-.55-.05-.82-.16-1.17-.46-1.75-1.77-1.29-2.94,2.15-5.51,4.57-11,7.22-16.29.56-1.12,1.92-1.58,3.04-1.02,1.12.56,1.58,1.92,1.02,3.04-2.58,5.17-4.95,10.53-7.05,15.91-.35.9-1.21,1.45-2.12,1.45Zm21.77-40.67c-.45,0-.9-.13-1.3-.41-1.03-.72-1.27-2.14-.55-3.16,3.4-4.84,7.06-9.59,10.89-14.1.81-.96,2.24-1.07,3.2-.26.96.81,1.07,2.24.26,3.2-3.74,4.4-7.32,9.04-10.64,13.77-.44.63-1.14.97-1.86.97Zm30.86-34.28c-.63,0-1.26-.26-1.71-.78-.82-.94-.72-2.38.22-3.2,4.46-3.89,9.16-7.61,13.96-11.07,1.02-.73,2.44-.5,3.17.52.73,1.02.5,2.43-.52,3.17-4.69,3.37-9.27,7.01-13.63,10.8-.43.37-.96.56-1.49.56Zm38.19-25.84c-.83,0-1.62-.45-2.02-1.24-.57-1.12-.13-2.48.99-3.05,5.26-2.69,10.71-5.17,16.22-7.37,1.17-.46,2.49.1,2.95,1.26.47,1.16-.1,2.48-1.26,2.95-5.38,2.15-10.7,4.57-15.84,7.2-.33.17-.68.25-1.03.25Zm43.29-15.92c-1.03,0-1.96-.7-2.21-1.75-.29-1.22.47-2.44,1.69-2.73,5.78-1.37,11.67-2.48,17.51-3.31,1.25-.18,2.39.69,2.57,1.93.18,1.24-.69,2.39-1.93,2.57-5.71.81-11.46,1.9-17.1,3.24-.17.04-.35.06-.53.06Zm63.43-4.16c-.08,0-.16,0-.23-.01-5.75-.59-11.59-.92-17.37-.98-1.25-.01-2.26-1.04-2.25-2.29.01-1.25,1.03-2.25,2.27-2.25h.02c5.92.06,11.91.4,17.79,1,1.25.13,2.15,1.24,2.02,2.49-.12,1.17-1.11,2.04-2.25,2.04Z"/>
            <path class="cls-12" d="m381.04,987.05c-.22,0-.45-.03-.68-.1-2.83-.88-5.73-1.71-8.62-2.46-1.21-.31-1.94-1.55-1.63-2.77.31-1.21,1.56-1.94,2.77-1.63,2.96.77,5.93,1.61,8.83,2.51,1.2.37,1.86,1.65,1.49,2.84-.3.97-1.2,1.6-2.17,1.6Z"/>
          </g>
          <g>
            <path class="cls-69" d="m385.25,1033.66c-.84-.5-1.91-.41-2.65.23l-21.24,18.08c-12.43-3.89-25.57-5.83-38.98-5.54l-15.37-23.26c-.54-.82-1.54-1.2-2.48-.96l-32.4,8.33c-.95.24-1.64,1.06-1.71,2.04l-2.24,27.79c-11.88,6.21-22.45,14.25-31.46,23.66l-27.33-5.58c-.96-.2-1.93.24-2.43,1.08l-17.02,28.81c-.5.84-.41,1.91.23,2.65l18.08,21.24c-3.89,12.43-5.83,25.57-5.54,38.98l-23.26,15.37c-.82.54-1.2,1.54-.96,2.48l8.34,32.4c.24.95,1.06,1.63,2.04,1.71l27.79,2.24c6.21,11.88,14.25,22.45,23.66,31.46l-5.59,27.33c-.2.96.24,1.93,1.08,2.43l28.81,17.02c.84.5,1.91.41,2.65-.23l21.24-18.08c12.43,3.89,25.57,5.83,38.98,5.54l15.37,23.26c.54.82,1.54,1.2,2.48.96l32.41-8.33c.95-.24,1.63-1.06,1.71-2.04l2.24-27.79c11.88-6.21,22.45-14.25,31.46-23.66l27.33,5.59c.96.2,1.93-.24,2.43-1.08l17.02-28.81c.5-.84.41-1.91-.23-2.65l-18.08-21.24c3.89-12.43,5.83-25.57,5.54-38.98l23.26-15.37c.82-.54,1.2-1.54.96-2.48l-8.34-32.4c-.24-.95-1.06-1.64-2.04-1.71l-27.79-2.24c-6.21-11.88-14.25-22.45-23.66-31.46l5.58-27.33c.2-.96-.24-1.93-1.08-2.43l-28.81-17.02Z"/>
            <path class="cls-52" d="m324.98,1201.78c-3.14,0-6.3-.45-9.4-1.36-8.48-2.5-15.49-8.15-19.72-15.92-4.23-7.77-5.19-16.72-2.69-25.2,2.5-8.49,8.15-15.49,15.92-19.72,7.77-4.23,16.72-5.19,25.2-2.69,8.48,2.5,15.49,8.15,19.72,15.92,4.23,7.77,5.19,16.72,2.69,25.2s-8.15,15.49-15.92,19.72c-4.93,2.69-10.34,4.05-15.8,4.05Zm-.08-59.45c-4.34,0-8.64,1.09-12.55,3.22h0c-6.17,3.36-10.66,8.93-12.64,15.67-1.99,6.74-1.23,13.85,2.14,20.02,3.36,6.17,8.93,10.66,15.67,12.65,6.74,1.98,13.85,1.22,20.02-2.14,6.17-3.36,10.66-8.93,12.64-15.67,1.98-6.74,1.23-13.85-2.14-20.02s-8.93-10.66-15.67-12.65c-2.46-.72-4.97-1.08-7.47-1.08Zm-14.18.23h.02-.02Z"/>
            <path class="cls-34" d="m324.63,1253.45c-37.47,0-71.74-25.26-81.5-63.19-1.8-6.99-2.69-14.08-2.69-21.11,0-14.86,3.97-29.51,11.73-42.65,11.43-19.35,29.71-33.09,51.48-38.69,5.81-1.5,11.77-2.37,17.72-2.61l.27,6.8c-5.47.22-10.95,1.02-16.29,2.4h0c-.69.18-1.37.36-2.04.56-38.38,10.99-61.98,49.54-54.73,88.46.32,1.72.7,3.43,1.14,5.15,10.62,41.3,52.85,66.25,94.16,55.63,34.86-8.97,58.08-40.47,58.08-74.92,0-6.36-.79-12.81-2.45-19.24-3.49-13.58-10.58-25.93-20.5-35.73l4.78-4.84c10.8,10.66,18.52,24.1,22.31,38.87,1.8,7,2.66,14.02,2.66,20.94,0,37.48-25.26,71.75-63.19,81.51-7,1.8-14.03,2.66-20.95,2.66Z"/>
          </g>
        </g>
        <g>
          <g>
            <path class="cls-12" d="m615.26,992.54c-.77,0-1.52-.39-1.94-1.09-1.52-2.52-3.19-4.99-4.94-7.35-.75-1.01-.54-2.43.47-3.17,1.01-.75,2.43-.54,3.17.47,1.84,2.48,3.58,5.07,5.18,7.71.65,1.07.31,2.47-.76,3.12-.37.22-.77.33-1.17.33Z"/>
            <path class="cls-12" d="m545.53,1140.53c-1.11,0-2.08-.81-2.24-1.94-.18-1.24.67-2.39,1.91-2.57,4.37-.64,8.74-1.6,13-2.84,1.51-.44,2.99-.91,4.46-1.42,1.18-.41,2.48.22,2.88,1.41.41,1.19-.22,2.48-1.41,2.88-1.54.53-3.09,1.02-4.67,1.48-4.46,1.3-9.04,2.3-13.61,2.97-.11.02-.22.02-.33.02Zm44.27-18.24c-.69,0-1.38-.32-1.83-.92-.75-1.01-.53-2.43.47-3.17,4.8-3.56,9.3-7.6,13.36-12,.85-.92,2.28-.98,3.21-.13.92.85.98,2.28.13,3.21-4.25,4.62-8.96,8.85-13.99,12.58-.41.3-.88.45-1.35.45Zm30.33-37.03c-.32,0-.65-.07-.97-.22-1.13-.53-1.62-1.89-1.08-3.02,2.56-5.43,4.61-11.11,6.11-16.9.32-1.21,1.55-1.94,2.77-1.63,1.21.31,1.94,1.55,1.63,2.77-1.57,6.06-3.72,12.02-6.4,17.7-.39.82-1.2,1.3-2.05,1.3Zm9.24-46.97c-1.2,0-2.2-.94-2.26-2.15-.32-5.96-1.21-11.94-2.64-17.78-.3-1.22.45-2.45,1.66-2.75,1.21-.29,2.45.44,2.75,1.66,1.5,6.11,2.43,12.37,2.77,18.62.07,1.25-.89,2.32-2.14,2.39-.04,0-.08,0-.12,0Z"/>
            <path class="cls-12" d="m515.61,1140.29c-.12,0-.24-.01-.37-.03-3.04-.5-6.09-1.14-9.08-1.92-1.21-.32-1.94-1.56-1.62-2.77.32-1.21,1.55-1.94,2.77-1.62,2.85.74,5.77,1.36,8.67,1.84,1.24.2,2.08,1.37,1.87,2.61-.18,1.11-1.14,1.9-2.24,1.9Z"/>
          </g>
          <g>
            <path class="cls-12" d="m447.93,1095.03c-.76,0-1.5-.38-1.93-1.08-1.62-2.62-3.13-5.35-4.5-8.12-.56-1.12-.1-2.48,1.03-3.04,1.12-.56,2.49-.1,3.04,1.03,1.31,2.64,2.76,5.25,4.3,7.75.66,1.07.33,2.47-.74,3.12-.37.23-.78.34-1.19.34Z"/>
            <path class="cls-12" d="m434.55,1059.16c-1.09,0-2.06-.79-2.24-1.9-.87-5.32-1.31-10.74-1.31-16.12,0-.79,0-1.57.03-2.36.03-1.25,1.09-2.29,2.32-2.21,1.25.03,2.24,1.07,2.21,2.32-.02.75-.03,1.5-.03,2.25,0,5.13.42,10.31,1.25,15.39.2,1.24-.64,2.4-1.87,2.6-.12.02-.25.03-.37.03Zm3.84-46.93c-.24,0-.48-.04-.72-.12-1.19-.4-1.83-1.69-1.43-2.88,1.97-5.84,4.49-11.53,7.49-16.92.61-1.09,1.99-1.49,3.09-.88,1.09.61,1.49,1.99.88,3.09-2.87,5.15-5.28,10.59-7.15,16.16-.32.95-1.2,1.55-2.15,1.55Zm25.25-39.74c-.6,0-1.19-.23-1.64-.7-.87-.91-.83-2.34.07-3.21,4.46-4.27,9.34-8.13,14.5-11.5,1.05-.69,2.46-.39,3.14.66.68,1.05.39,2.46-.66,3.14-4.93,3.21-9.59,6.9-13.84,10.97-.44.42-1,.63-1.57.63Zm40.86-23.37c-.99,0-1.9-.65-2.18-1.65-.34-1.2.36-2.46,1.56-2.8,5.95-1.7,12.07-2.85,18.18-3.43,1.26-.11,2.36.8,2.47,2.05.12,1.25-.8,2.36-2.05,2.47-5.84.55-11.68,1.65-17.37,3.27-.21.06-.42.09-.62.09Z"/>
            <path class="cls-12" d="m560.41,949.75c-.22,0-.45-.03-.67-.1-2.81-.87-5.7-1.63-8.57-2.24-1.23-.26-2.01-1.46-1.75-2.69.26-1.23,1.47-2.01,2.69-1.75,3.01.64,6.04,1.43,8.98,2.34,1.2.37,1.87,1.64,1.49,2.84-.3.97-1.2,1.6-2.17,1.6Z"/>
          </g>
          <g>
            <path class="cls-69" d="m562.58,972.59c-.43-.26-.98-.21-1.36.12l-10.91,9.29c-6.39-2-13.14-3-20.02-2.85l-7.89-11.95c-.28-.42-.79-.62-1.28-.49l-16.65,4.28c-.49.13-.84.55-.88,1.05l-1.15,14.27c-6.1,3.19-11.53,7.32-16.16,12.15l-14.04-2.87c-.49-.1-.99.12-1.25.55l-8.74,14.8c-.26.43-.21.98.12,1.36l9.29,10.91c-2,6.39-3,13.14-2.85,20.02l-11.95,7.89c-.42.28-.62.79-.49,1.28l4.28,16.65c.12.49.54.84,1.05.88l14.27,1.15c3.19,6.1,7.32,11.53,12.15,16.16l-2.87,14.04c-.1.49.12.99.55,1.25l14.8,8.74c.43.26.98.21,1.36-.12l10.91-9.29c6.39,2,13.14,3,20.02,2.85l7.89,11.95c.28.42.79.62,1.28.49l16.65-4.28c.49-.13.84-.55.88-1.05l1.15-14.27c6.1-3.19,11.53-7.32,16.16-12.15l14.04,2.87c.49.1.99-.12,1.25-.55l8.74-14.8c.26-.43.21-.98-.12-1.36l-9.29-10.91c2-6.39,3-13.14,2.85-20.02l11.95-7.89c.42-.28.62-.79.49-1.28l-4.28-16.65c-.13-.49-.55-.84-1.05-.88l-14.27-1.15c-3.19-6.1-7.32-11.53-12.15-16.16l2.87-14.04c.1-.49-.12-.99-.55-1.25l-14.8-8.74Z"/>
            <path class="cls-35" d="m531.62,1060.61c-1.77,0-3.55-.25-5.3-.77-4.78-1.41-8.73-4.59-11.12-8.97-4.92-9.04-1.58-20.4,7.46-25.32,9.03-4.93,20.4-1.58,25.32,7.46,2.39,4.38,2.93,9.42,1.52,14.2-1.41,4.78-4.6,8.73-8.97,11.12-2.78,1.51-5.83,2.28-8.91,2.28Zm-.04-30.53c-1.92,0-3.86.46-5.65,1.44-5.74,3.13-7.87,10.35-4.74,16.09,3.13,5.74,10.34,7.86,16.09,4.74,2.78-1.52,4.81-4.02,5.7-7.06.9-3.04.55-6.24-.96-9.03-2.15-3.94-6.23-6.18-10.43-6.18Z"/>
            <path class="cls-71" d="m531.35,1087.16c-7.93,0-15.74-2.12-22.75-6.26-10.32-6.1-17.65-15.85-20.63-27.46-.96-3.73-1.42-7.48-1.42-11.17,0-19.99,13.47-38.27,33.7-43.47.1-.03.19-.05.29-.07,2.81-.7,5.69-1.14,8.56-1.29.2-.01.4-.02.6-.03l.27,6.8c-2.69.11-5.39.5-8.02,1.18h0c-20.33,5.23-32.61,26.02-27.38,46.35,2.53,9.85,8.75,18.12,17.51,23.29,8.76,5.17,19,6.63,28.85,4.09,17.16-4.42,28.59-19.92,28.59-36.88,0-3.13-.39-6.31-1.2-9.47-1.72-6.68-5.21-12.77-10.09-17.59l4.78-4.84c5.76,5.69,9.88,12.86,11.9,20.73.96,3.73,1.42,7.48,1.42,11.17,0,19.99-13.47,38.27-33.7,43.47-3.73.96-7.51,1.43-11.26,1.43Z"/>
          </g>
        </g>
      </g>
      <g>
        <path class="cls-69" d="m812.97,604.57c6.07-2.08,5.19-10.95-1.17-11.77-28.99-3.76-71.47-15.11-85.39-49.12-21.83-53.36,23.39-259.11-184.35-295.93-191.63-33.96-298.35,26.68-295.93,203.75,2.35,171.64,278.18,252.11,566.83,153.07Z"/>
        <g>
          <rect class="cls-9" x="340.36" y="414.48" width="18.59" height="145.45"/>
          <rect class="cls-22" x="371.42" y="464.47" width="18.59" height="95.46"/>
          <rect class="cls-41" x="402.47" y="340.93" width="18.59" height="219"/>
          <rect class="cls-40" x="433.53" y="507.32" width="18.59" height="52.61"/>
          <rect class="cls-61" x="464.59" y="370.21" width="18.59" height="189.72"/>
          <rect class="cls-7" x="495.65" y="403.06" width="18.59" height="156.87"/>
          <rect class="cls-23" x="526.71" y="438.76" width="18.59" height="121.17"/>
          <rect class="cls-68" x="557.76" y="296.65" width="18.59" height="263.27"/>
          <rect class="cls-53" x="588.82" y="324.5" width="18.59" height="235.42"/>
          <rect class="cls-27" x="619.88" y="366.64" width="18.59" height="193.29"/>
          <rect class="cls-8" x="650.94" y="512.2" width="18.59" height="47.73"/>
        </g>
      </g>
    </g>
  </g>
</svg>