<?xml version="1.0" encoding="UTF-8"?>
<svg id="katman_2" data-name="katman 2" xmlns="http://www.w3.org/2000/svg" xmlns:xlink="http://www.w3.org/1999/xlink" viewBox="0 0 500 500">
  <defs>
    <style>
      .cls-1 {
        stroke-dasharray: 0 0 12.16 5.06;
      }

      .cls-1, .cls-2, .cls-3, .cls-4, .cls-5, .cls-6, .cls-7, .cls-8, .cls-9, .cls-10, .cls-11, .cls-12, .cls-13, .cls-14, .cls-15, .cls-16, .cls-17, .cls-18, .cls-19, .cls-20, .cls-21, .cls-22, .cls-23, .cls-24, .cls-25, .cls-26 {
        stroke-miterlimit: 10;
      }

      .cls-1, .cls-2, .cls-3, .cls-4, .cls-5, .cls-6, .cls-7, .cls-8, .cls-9, .cls-10, .cls-11, .cls-12, .cls-13, .cls-14, .cls-15, .cls-17, .cls-18, .cls-19, .cls-20, .cls-21, .cls-22, .cls-23, .cls-24, .cls-25, .cls-26 {
        stroke-width: .5px;
      }

      .cls-1, .cls-2, .cls-3, .cls-5, .cls-6, .cls-7, .cls-8, .cls-10, .cls-27, .cls-11, .cls-12, .cls-13, .cls-14, .cls-15, .cls-17, .cls-18, .cls-19, .cls-21, .cls-23, .cls-25, .cls-26 {
        fill: none;
      }

      .cls-1, .cls-2, .cls-4, .cls-5, .cls-6, .cls-7, .cls-8, .cls-9, .cls-10, .cls-11, .cls-12, .cls-13, .cls-14, .cls-15, .cls-18, .cls-19, .cls-20, .cls-21, .cls-23, .cls-24, .cls-25, .cls-26 {
        stroke: #000;
      }

      .cls-1, .cls-2, .cls-5, .cls-6, .cls-7, .cls-8, .cls-10, .cls-11, .cls-12, .cls-13, .cls-14, .cls-15, .cls-18, .cls-19, .cls-21, .cls-23, .cls-26 {
        stroke-linecap: round;
      }

      .cls-2 {
        stroke-dasharray: 0 0 11.36 4.73;
      }

      .cls-3, .cls-22 {
        stroke: #222221;
      }

      .cls-4 {
        fill: #d47172;
      }

      .cls-5 {
        stroke-dasharray: 0 0 12.15 5.06;
      }

      .cls-28, .cls-29, .cls-30, .cls-27, .cls-31, .cls-32, .cls-33, .cls-34, .cls-35, .cls-36, .cls-37, .cls-38, .cls-39, .cls-40 {
        stroke-width: 0px;
      }

      .cls-28, .cls-9 {
        fill: #5f76e8;
      }

      .cls-6 {
        stroke-dasharray: 0 0 12.51 5.21;
      }

      .cls-7 {
        stroke-dasharray: 0 0 12.2 5.08;
      }

      .cls-30 {
        opacity: .5;
      }

      .cls-30, .cls-32, .cls-16, .cls-22 {
        fill: #fff;
      }

      .cls-8 {
        stroke-dasharray: 0 0 11.81 4.92;
      }

      .cls-10 {
        stroke-dasharray: 0 0 12.77 5.32;
      }

      .cls-11 {
        stroke-dasharray: 0 0 11.66 4.86;
      }

      .cls-41 {
        clip-path: url(#clippath-1);
      }

      .cls-31 {
        fill: #2d2d2d;
      }

      .cls-12 {
        stroke-dasharray: 0 0 11.97 4.99;
      }

      .cls-13 {
        stroke-dasharray: 0 0 12.22 5.09;
      }

      .cls-33 {
        fill-rule: evenodd;
      }

      .cls-33, .cls-34, .cls-24 {
        fill: #d89cc7;
      }

      .cls-15 {
        stroke-dasharray: 0 0 11.49 4.79;
      }

      .cls-35 {
        fill: #9cabfc;
      }

      .cls-16 {
        stroke: #c2c2c2;
        stroke-width: .25px;
      }

      .cls-17 {
        stroke: #2d2d2d;
      }

      .cls-18 {
        stroke-dasharray: 0 0 10.98 4.58;
      }

      .cls-19 {
        stroke-dasharray: 0 0 11.44 4.76;
      }

      .cls-42 {
        clip-path: url(#clippath);
      }

      .cls-20, .cls-38 {
        fill: #a8dca4;
      }

      .cls-36 {
        fill: #afb3bc;
      }

      .cls-21 {
        stroke-dasharray: 0 0 11.78 4.91;
      }

      .cls-37 {
        fill: #f9f9f9;
      }

      .cls-23 {
        stroke-dasharray: 0 0 12.02 5.01;
      }

      .cls-39 {
        opacity: .2;
      }

      .cls-39, .cls-40 {
        fill: #dbe0fc;
      }

      .cls-26 {
        stroke-dasharray: 0 0 12.81 5.34;
      }
    </style>
    <clipPath id="clippath">
      <rect class="cls-27" width="500" height="500"/>
    </clipPath>
    <clipPath id="clippath-1">
      <polygon class="cls-27" points="440.39 359.36 368.47 381.29 307.02 251.79 378.94 229.86 440.39 359.36"/>
    </clipPath>
  </defs>
  <g id="OBJECTS">
    <g class="cls-42">
      <g>
        <path class="cls-40" d="m405.01,409.77c-3.03,1.59-6.18,2.95-9.43,4.06-16.63,5.66-41.39,5.21-55.15-7.08-22.37-19.97,3.44-43.24,21.04-54.51,11.12-7.12,21.95-15.21,34.62-18.95,12.67-3.73,28.02-2.05,36.57,8.02,9.51,11.2,7.28,28.56.15,41.41-6.36,11.47-16.2,20.96-27.8,27.05Z"/>
        <path class="cls-40" d="m52.5,347.07c-5.45-17.5-6.61-35.98-1.99-54.02,9.23-36.05,35.56-58.01,66.3-76.07,33.68-19.79,73.83-26.3,105.07-51.46,29.73-23.94,48.44-59.77,79.33-82.19,31.48-22.85,78.45-32.57,112.46-9.64,21.76,14.67,35.65,39.8,38.33,65.91,2.52,24.6-7.81,53.98-25.43,71.76-14.78,14.91-37.04,22.63-56.99,27.32-39.82,9.37-95.05,7.1-110.8,52.02-5.13,14.62-3.95,30.58-4.95,46.04-1.68,25.74-9.99,51.55-26.58,71.3-16.59,19.76-42.01,32.76-67.76,31.25-16.48-.97-32.19-7.61-46.27-16.22-28.09-17.16-51.08-45.07-60.71-75.99Z"/>
      </g>
      <g>
        <g id="xsrjP0">
          <g>
            <path class="cls-33" d="m392.61,164.02c-.67-.31-1.19-.93-1.48-1.62-1.03-2.38-.69-5.11-.17-7.65.05-.23.1-.46.25-.64,1.17-1.36,2.6-2.23,3.62-3.79.67-1.02,1.15-2.15,1.5-3.32.28-.95.12-2.97.64-3.72,1.52-2.17,2.82,2.3,2.95,3.34.12,1.01-.24,1.99-.36,2.99-.09.73-.26,1.45-.39,2.19.18.13.38.06.58.06,2.24,0,4.49-.01,6.73-.02.95,0,1.41.27,1.54.89.16.78-.25,1.58-.97,1.95-.17.09-.47,0-.49.27-.02.27.29.24.45.35.81.55.67,1.7-.27,2.37-.23.16-.66.09-.67.42,0,.26.41.26.59.45.66.65.34,1.86-.64,2.35-.13.06-.28.07-.39.15-.11.08-.22.16,0,.31.97.69.96,1.66-.02,2.37-.1.07-.19.14-.29.21-.35.26-.77.26-1.18.26-3.52.02-7.04.03-10.56.04-.34,0-.66-.08-.95-.21Z"/>
            <path class="cls-33" d="m384.94,159.19c0-1.69,0-3.38-.02-5.06,0-.34.02-.51.3-.51,1.39.02,2.77.02,4.15-.01.27,0,.31.13.31.49,0,3.4.01,6.79.04,10.19,0,.43-.08.55-.37.55-1.34-.02-2.69-.02-4.03.02-.33,0-.38-.17-.38-.6.01-1.69,0-3.38-.01-5.06Z"/>
          </g>
        </g>
        <g id="xsrjP0-2" data-name="xsrjP0">
          <g>
            <path class="cls-33" d="m136.28,145.95c-.54-.25-.96-.75-1.2-1.31-.83-1.92-.56-4.13-.13-6.18.04-.18.08-.37.2-.52.94-1.1,2.1-1.8,2.93-3.06.54-.82.93-1.74,1.21-2.68.22-.76.09-2.4.52-3.01,1.23-1.76,2.28,1.86,2.38,2.7.1.81-.19,1.61-.29,2.41-.07.59-.21,1.17-.32,1.77.14.1.31.05.47.05,1.81,0,3.63-.01,5.44-.02.76,0,1.14.22,1.25.72.13.63-.2,1.27-.78,1.57-.14.07-.38,0-.4.22-.02.22.24.19.36.28.66.45.54,1.38-.22,1.92-.18.13-.54.07-.54.34,0,.21.33.21.48.36.53.52.27,1.5-.52,1.9-.1.05-.23.06-.32.12-.09.06-.18.13,0,.25.79.56.77,1.34-.02,1.91-.08.06-.16.11-.24.17-.29.21-.63.21-.95.21-2.84.02-5.69.02-8.53.03-.28,0-.53-.06-.77-.17Z"/>
            <path class="cls-33" d="m130.08,142.05c0-1.36,0-2.73-.02-4.09,0-.28.02-.41.25-.41,1.12.02,2.24.01,3.35,0,.22,0,.25.11.25.4,0,2.74.01,5.49.03,8.23,0,.35-.06.45-.3.44-1.09-.01-2.17-.01-3.25.01-.27,0-.31-.13-.31-.48,0-1.36,0-2.73,0-4.09Z"/>
          </g>
        </g>
        <g id="xsrjP0-3" data-name="xsrjP0">
          <g>
            <path class="cls-33" d="m267.89,342.33c-.66-.3-1.16-.91-1.46-1.59-1.01-2.33-.68-5.02-.16-7.51.05-.22.1-.46.25-.63,1.15-1.34,2.55-2.19,3.55-3.72.65-1,1.13-2.11,1.47-3.26.27-.93.11-2.91.63-3.65,1.49-2.13,2.77,2.26,2.89,3.28.12.99-.23,1.95-.35,2.93-.09.72-.25,1.42-.39,2.15.17.13.38.06.57.06,2.2,0,4.4-.01,6.61-.02.93,0,1.38.26,1.51.88.16.77-.24,1.55-.95,1.91-.16.08-.46,0-.48.27-.02.26.29.23.44.34.8.54.65,1.67-.27,2.33-.22.16-.65.09-.66.41,0,.26.4.26.58.44.65.63.33,1.82-.63,2.3-.12.06-.28.07-.39.15-.11.07-.22.16,0,.31.96.68.94,1.63-.02,2.32-.09.07-.19.14-.29.21-.35.26-.76.25-1.16.26-3.45.02-6.91.03-10.36.04-.33,0-.65-.07-.93-.2Z"/>
            <path class="cls-33" d="m260.35,337.6c0-1.66,0-3.31-.02-4.97,0-.34.02-.5.3-.5,1.36.02,2.72.02,4.07-.01.27,0,.31.13.31.48,0,3.33.01,6.66.03,10,0,.42-.07.54-.36.54-1.32-.02-2.64-.02-3.95.02-.33,0-.37-.16-.37-.59.01-1.66,0-3.31-.01-4.97Z"/>
          </g>
        </g>
        <g id="xsrjP0-4" data-name="xsrjP0">
          <g>
            <path class="cls-33" d="m244.56,318.82c-.61-.28-1.08-.85-1.35-1.48-.94-2.17-.63-4.66-.15-6.97.04-.21.09-.42.23-.58,1.06-1.24,2.37-2.03,3.3-3.45.61-.93,1.05-1.96,1.36-3.02.25-.86.11-2.7.58-3.39,1.38-1.98,2.57,2.09,2.68,3.04.11.92-.22,1.81-.33,2.72-.08.66-.23,1.32-.36,2,.16.12.35.06.52.06,2.04,0,4.09-.01,6.13-.02.86,0,1.28.24,1.41.81.15.71-.22,1.44-.88,1.78-.15.08-.43,0-.45.25-.02.24.27.22.41.32.74.51.61,1.55-.25,2.16-.21.15-.61.08-.61.38,0,.24.37.24.54.41.6.59.31,1.69-.58,2.14-.11.06-.26.07-.36.14-.1.07-.2.15,0,.28.89.63.87,1.51-.02,2.16-.09.06-.18.13-.27.19-.32.24-.71.24-1.08.24-3.21.02-6.41.03-9.62.03-.31,0-.6-.07-.86-.19Z"/>
            <path class="cls-33" d="m237.56,314.42c0-1.54,0-3.08-.02-4.61,0-.31.02-.47.28-.46,1.26.02,2.52.01,3.78-.01.25,0,.29.12.29.45,0,3.09.01,6.19.03,9.28,0,.39-.07.51-.33.5-1.22-.02-2.45-.02-3.67.02-.3,0-.35-.15-.34-.55.01-1.54,0-3.07,0-4.61Z"/>
          </g>
        </g>
        <g>
          <g>
            <line class="cls-14" x1="296.99" y1="85.17" x2="300.47" y2="90.06"/>
            <line class="cls-10" x1="303.56" y1="94.39" x2="344.02" y2="151.15"/>
            <polyline class="cls-14" points="345.57 153.32 349.05 158.21 344.91 162.55"/>
            <line class="cls-12" x1="341.47" y1="166.16" x2="273.06" y2="238.04"/>
            <line class="cls-14" x1="271.34" y1="239.85" x2="267.21" y2="244.19"/>
          </g>
          <g>
            <line class="cls-14" x1="349.05" y1="158.21" x2="343.05" y2="157.94"/>
            <polyline class="cls-11" points="338.2 157.72 244.93 153.54 135.61 106.62"/>
            <line class="cls-14" x1="133.38" y1="105.67" x2="127.87" y2="103.3"/>
          </g>
          <g>
            <line class="cls-14" x1="43.44" y1="210.52" x2="49.21" y2="208.88"/>
            <line class="cls-6" x1="54.22" y1="207.46" x2="239.24" y2="154.86"/>
            <polyline class="cls-14" points="241.75 154.15 247.52 152.51 248.64 158.4"/>
            <line class="cls-18" x1="249.5" y1="162.9" x2="263.59" y2="237.09"/>
            <line class="cls-14" x1="264.01" y1="239.33" x2="265.13" y2="245.23"/>
          </g>
          <g>
            <line class="cls-14" x1="205.31" y1="326.81" x2="208.11" y2="332.12"/>
            <line class="cls-26" x1="210.6" y1="336.84" x2="251.76" y2="414.71"/>
            <line class="cls-14" x1="253.01" y1="417.07" x2="255.81" y2="422.38"/>
          </g>
          <g>
            <line class="cls-14" x1="300.88" y1="78.96" x2="306.33" y2="81.46"/>
            <line class="cls-5" x1="310.93" y1="83.57" x2="433.75" y2="139.89"/>
            <polyline class="cls-14" points="436.05 140.94 441.51 143.44 441.55 149.44"/>
            <line class="cls-8" x1="441.58" y1="154.37" x2="442.23" y2="252.31"/>
            <polyline class="cls-14" points="442.25 254.77 442.28 260.77 436.29 260.57"/>
            <line class="cls-15" x1="431.5" y1="260.41" x2="271.26" y2="255.02"/>
            <polyline class="cls-14" points="268.86 254.94 262.87 254.74 258.63 258.99"/>
            <polyline class="cls-19" points="255.27 262.36 205.22 312.57 136.5 335.78"/>
            <line class="cls-14" x1="134.24" y1="336.54" x2="128.56" y2="338.47"/>
          </g>
          <g>
            <line class="cls-14" x1="127.18" y1="346.75" x2="132.45" y2="349.62"/>
            <line class="cls-2" x1="136.61" y1="351.87" x2="247.68" y2="412.17"/>
            <polyline class="cls-14" points="249.76 413.3 255.03 416.16 259.67 412.35"/>
            <line class="cls-23" x1="263.54" y1="409.17" x2="432.61" y2="270.06"/>
            <line class="cls-14" x1="434.54" y1="268.46" x2="439.18" y2="264.65"/>
          </g>
          <g>
            <line class="cls-14" x1="258.92" y1="256.88" x2="253.05" y2="255.64"/>
            <line class="cls-13" x1="248.07" y1="254.58" x2="47.39" y2="212.04"/>
            <polyline class="cls-14" points="44.9 211.51 39.03 210.26 42.79 205.59"/>
            <line class="cls-1" x1="45.97" y1="201.64" x2="119.93" y2="109.69"/>
            <polyline class="cls-14" points="121.52 107.72 125.28 103.04 131.25 102.42"/>
            <line class="cls-7" x1="136.3" y1="101.89" x2="288.49" y2="86.06"/>
            <polyline class="cls-14" points="291.02 85.79 296.99 85.17 291.59 87.79"/>
            <line class="cls-21" x1="287.18" y1="89.94" x2="49.14" y2="205.62"/>
            <line class="cls-14" x1="46.93" y1="206.69" x2="41.54" y2="209.31"/>
          </g>
          <g>
            <circle class="cls-35" cx="126.51" cy="336.04" r="6.68"/>
            <path class="cls-35" d="m139.61,352.03c-2.03-5.26-7.13-9-13.1-9s-11.08,3.74-13.1,9h26.2Z"/>
          </g>
          <g>
            <circle class="cls-35" cx="442.35" cy="246.97" r="8.68"/>
            <path class="cls-35" d="m459.38,267.76c-2.63-6.84-9.26-11.7-17.03-11.7s-14.4,4.86-17.03,11.7h34.06Z"/>
          </g>
          <g>
            <circle class="cls-35" cx="263.67" cy="241.43" r="8.68"/>
            <path class="cls-35" d="m280.7,262.22c-2.63-6.84-9.26-11.7-17.03-11.7s-14.4,4.86-17.03,11.7h34.06Z"/>
          </g>
          <g>
            <circle class="cls-35" cx="442.74" cy="127.28" r="9.67" transform="translate(63.22 388.39) rotate(-50.57)"/>
            <path class="cls-35" d="m461.71,150.44c-2.93-7.62-10.32-13.03-18.97-13.03s-16.04,5.41-18.97,13.03h37.94Z"/>
          </g>
          <g>
            <circle class="cls-35" cx="245.9" cy="137.64" r="9.67" transform="translate(-25.3 214.19) rotate(-45)"/>
            <path class="cls-35" d="m264.88,160.8c-2.93-7.62-10.32-13.03-18.97-13.03s-16.04,5.41-18.97,13.03h37.94Z"/>
          </g>
          <g>
            <circle class="cls-35" cx="128.06" cy="87.82" r="9.28"/>
            <path class="cls-35" d="m146.26,110.03c-2.81-7.31-9.9-12.5-18.19-12.5s-15.38,5.19-18.19,12.5h36.39Z"/>
          </g>
          <g>
            <ellipse class="cls-35" cx="42.63" cy="208.26" rx="9.01" ry="8.7"/>
            <path class="cls-35" d="m60.29,229.08c-2.73-6.85-9.61-11.72-17.66-11.72s-14.93,4.86-17.66,11.72h35.32Z"/>
          </g>
          <g>
            <circle class="cls-35" cx="204.53" cy="311.8" r="8.4" transform="translate(-135.94 463.88) rotate(-80.81)"/>
            <path class="cls-35" d="m221.01,331.91c-2.55-6.62-8.96-11.32-16.48-11.32s-13.93,4.7-16.48,11.32h32.96Z"/>
          </g>
          <g>
            <circle class="cls-35" cx="298.87" cy="67.41" r="9.48" transform="translate(39.87 231.08) rotate(-45)"/>
            <path class="cls-35" d="m317.45,90.1c-2.87-7.46-10.11-12.76-18.58-12.76s-15.71,5.3-18.58,12.76h37.17Z"/>
          </g>
          <g>
            <circle class="cls-35" cx="253.85" cy="419.31" r="9.72" transform="translate(-222.15 302.31) rotate(-45)"/>
            <path class="cls-35" d="m272.9,442.58c-2.95-7.65-10.37-13.09-19.06-13.09s-16.11,5.43-19.06,13.09h38.12Z"/>
          </g>
          <g>
            <circle class="cls-35" cx="348.08" cy="151.14" r="8.68"/>
            <path class="cls-35" d="m365.11,171.93c-2.63-6.84-9.26-11.7-17.03-11.7s-14.4,4.86-17.03,11.7h34.06Z"/>
          </g>
        </g>
        <g>
          <circle class="cls-14" cx="387.29" cy="189.97" r="15.15" transform="translate(-20.9 329.5) rotate(-45)"/>
          <path class="cls-4" d="m389.79,184.45c-1.44.44-2.51,2.47-2.51,2.47,0,0-1.07-2.02-2.52-2.43-4.19-1.19-6.06,2.58-4.45,6.07,1.55,3.36,6.99,7.41,6.99,7.41,0,0,5.43-4.14,6.96-7.52,1.59-3.51-.3-7.26-4.48-5.99Z"/>
        </g>
        <g>
          <circle class="cls-14" cx="287.7" cy="130.91" r="13.71"/>
          <path class="cls-4" d="m290.2,125.3c-1.44.43-2.49,2.46-2.49,2.46,0,0-1.07-2.01-2.5-2.42-4.17-1.19-6.03,2.57-4.44,6.04,1.54,3.35,6.96,7.37,6.96,7.37,0,0,5.41-4.12,6.93-7.49,1.58-3.5-.3-7.22-4.46-5.97Z"/>
        </g>
        <g>
          <circle class="cls-14" cx="104.27" cy="383.05" r="13.71"/>
          <path class="cls-4" d="m107.19,376.32c-1.68.51-2.92,2.88-2.92,2.88,0,0-1.25-2.36-2.93-2.84-4.88-1.39-7.06,3.01-5.19,7.07,1.8,3.92,8.15,8.63,8.15,8.63,0,0,6.33-4.82,8.11-8.77,1.85-4.09-.35-8.46-5.22-6.99Z"/>
        </g>
        <g>
          <g>
            <g>
              <circle class="cls-9" cx="297.9" cy="195.35" r="27.06" transform="translate(48.79 450) rotate(-78.89)"/>
              <path class="cls-32" d="m297.24,187.85c-.06,1.72-.02,3.46-.02,5.33h6.72c-.29,2.21-.53,4.26-.86,6.29-.02.2-.53.45-.82.47-1.62.04-3.24.02-5,.02v22.43c-2.48-.04-4.86-.43-7.13-1.11v-21.28h-5.88v-6.76h5.76c.02-.51.06-.92.06-1.31.04-1.78-.02-3.57.14-5.33.37-3.87,2.75-6.6,6.58-7.13,2.38-.33,4.86-.06,7.36-.06v6.15c-.88,0-1.78-.02-2.66,0-.78.02-1.6-.02-2.36.16-1.09.25-1.84.98-1.89,2.13Z"/>
            </g>
            <path class="cls-9" d="m321.56,203.44c-1.38,3.48-3.57,6.65-6.34,9.18"/>
            <path class="cls-9" d="m313.81,214.05c-1.1.85-2.21,1.7-3.31,2.55"/>
            <path class="cls-9" d="m315.55,209.94c-.37.57-.86,1.05-1.43,1.42"/>
            <path class="cls-9" d="m320.91,196.95c-.21,2.38-.74,4.73-1.58,6.96"/>
          </g>
          <g>
            <g>
              <circle class="cls-4" cx="439.07" cy="195.37" r="26.29" transform="translate(149.05 578.57) rotate(-76.87)"/>
              <g>
                <path class="cls-32" d="m454.74,186.71c-.02-4.27-2.68-7.03-6.91-7.07-5.85-.06-11.71-.06-17.56,0-4.14.04-6.82,2.78-6.88,6.92-.04,2.92,0,5.84,0,8.76s-.02,5.72,0,8.58c.04,4.36,2.7,7.15,7.02,7.19,5.79.06,11.58.07,17.37,0,4.23-.05,6.95-2.83,6.97-7.05.03-5.78.03-11.56,0-17.34Zm-2.8,17.39c-.03,2.7-1.48,4.19-4.18,4.21-5.79.04-11.58.04-17.37,0-2.71-.01-4.18-1.5-4.19-4.19-.03-5.84-.03-11.68,0-17.52.01-2.68,1.51-4.21,4.18-4.23,5.79-.04,11.58-.04,17.37,0,2.68.02,4.17,1.55,4.2,4.22.03,2.92,0,5.84,0,8.76s.03,5.84,0,8.76Z"/>
                <path class="cls-32" d="m439.08,187.14c-4.46-.01-8.13,3.62-8.17,8.1-.04,4.54,3.47,8.2,7.96,8.28,4.6.09,8.31-3.5,8.35-8.07.05-4.58-3.59-8.3-8.14-8.31Zm-.1,13.65c-2.92-.06-5.34-2.5-5.37-5.39-.03-2.99,2.43-5.44,5.46-5.44s5.49,2.46,5.46,5.44c-.03,2.96-2.59,5.46-5.55,5.4Z"/>
                <path class="cls-32" d="m449.71,186.95c-.09,1.15-.82,1.75-1.95,1.69-1.24-.06-1.87-.82-1.78-2.04.08-1.15.83-1.68,1.98-1.74,1.16.2,1.85.86,1.76,2.09Z"/>
              </g>
            </g>
            <path class="cls-25" d="m450.3,217.59c4.4-2.59,8.02-6.49,10.27-11.07"/>
            <path class="cls-25" d="m461.1,204.65c.5-.92.85-1.91,1.04-2.94"/>
            <path class="cls-25" d="m459.37,203.61c-.37,1.24-.96,2.41-1.72,3.45"/>
            <path class="cls-25" d="m462.52,191.7c.38,1.58.41,3.24.11,4.84"/>
            <path class="cls-25" d="m417.4,185.99c-2.18,4.21-2.78,9.21-1.66,13.82"/>
          </g>
          <g>
            <circle class="cls-20" cx="181.94" cy="378.99" r="26.26"/>
            <path class="cls-32" d="m192.06,389.48c-.3.51-.83.79-1.37.79-.27,0-.55-.07-.8-.22-4.18-2.44-9.01-2.83-12.32-2.73-3.67.11-6.36.84-6.39.84-.85.23-1.72-.27-1.95-1.11-.23-.85.26-1.72,1.11-1.95.12-.03,3.02-.82,7.05-.95,2.37-.08,4.66.09,6.79.49,2.7.51,5.16,1.41,7.32,2.67.76.44,1.01,1.42.57,2.18Z"/>
            <path class="cls-32" d="m195.01,383.34c-.35.6-.98.93-1.63.93-.32,0-.65-.08-.95-.26-4.95-2.89-10.67-3.36-14.59-3.24-4.35.13-7.54.99-7.57,1-1,.27-2.04-.32-2.31-1.32-.27-1,.31-2.04,1.32-2.31.14-.04,3.58-.97,8.35-1.13,2.81-.09,5.52.1,8.04.58,3.2.61,6.12,1.67,8.67,3.17.9.52,1.2,1.68.68,2.58Z"/>
            <path class="cls-32" d="m196.83,377.76c-.4,0-.8-.1-1.16-.32-11.77-6.88-27.03-2.79-27.19-2.75-1.23.34-2.5-.38-2.84-1.61-.34-1.23.38-2.5,1.61-2.84.18-.05,4.39-1.19,10.24-1.39,3.45-.11,6.77.13,9.87.71,3.92.74,7.5,2.05,10.64,3.88,1.1.64,1.47,2.06.83,3.16-.43.74-1.2,1.15-2,1.15Z"/>
            <path class="cls-25" d="m165.43,362.39c-.99,1.22-1.98,2.44-2.97,3.66"/>
            <path class="cls-25" d="m159.92,369.92c-2.78,6.07-2.45,13.46.85,19.26"/>
            <path class="cls-25" d="m163.54,394.21c1.26,1.62,2.66,3.13,4.19,4.51"/>
          </g>
          <g>
            <circle class="cls-4" cx="293.4" cy="383.93" r="26.02" transform="translate(-113.33 644.81) rotate(-85.29)"/>
            <path class="cls-32" d="m293.4,369.32c-8.07,0-14.63,6.56-14.63,14.62s6.56,14.62,14.63,14.62,14.63-6.56,14.63-14.62-6.57-14.62-14.63-14.62h0Zm9.63,6.9c1.67,2.07,2.68,4.68,2.73,7.53-.56-.11-2.91-.55-5.72-.55-.91,0-1.86.05-2.82.16-.08-.2-.16-.39-.25-.59-.25-.58-.52-1.16-.79-1.73,4.33-1.78,6.41-4.26,6.85-4.82h0Zm-9.63-4.61c3.12,0,5.97,1.16,8.15,3.07-.34.47-2.21,2.81-6.39,4.38-1.93-3.53-4.04-6.45-4.55-7.13.9-.21,1.83-.32,2.79-.32h0Zm-5.31,1.2c.43.59,2.54,3.54,4.52,7.04-5.32,1.4-10.04,1.49-11.17,1.49h-.12c.82-3.77,3.37-6.91,6.77-8.53h0Zm-7.05,11.15c0-.1,0-.2,0-.3.07,0,.18,0,.32,0,1.53,0,6.86-.13,12.35-1.76.33.65.65,1.31.95,1.97-.14.04-.28.08-.41.12-6.18,2-9.58,7.28-10.1,8.14-1.94-2.18-3.11-5.05-3.11-8.18h0Zm12.36,12.35c-2.84,0-5.45-.96-7.54-2.57.35-.69,2.92-5.31,9.69-7.66,0,0,0,0,.01,0,1.7,4.42,2.42,8.13,2.61,9.28-1.47.62-3.08.96-4.78.96h0Zm7-2.18c-.17-.95-.83-4.43-2.37-8.67.86-.13,1.7-.19,2.49-.19,2.58,0,4.61.57,5.08.71-.56,3.37-2.49,6.28-5.19,8.15h0Z"/>
            <path class="cls-25" d="m300.82,406.44c2.5-.44,4.87-1.59,6.76-3.3"/>
            <path class="cls-25" d="m284.31,405.02c3.53,2.35,9.49,3.07,13.62,2.12"/>
            <path class="cls-25" d="m285.91,361.68c-2.44.37-4.75,1.53-6.51,3.26"/>
            <path class="cls-25" d="m309.4,401.54c.38-.31.72-.68,1-1.08"/>
          </g>
          <g>
            <circle class="cls-24" cx="210.12" cy="83.08" r="26.7"/>
            <path class="cls-32" d="m223.99,80c-.27.03-.55.04-.82.04-3.01,0-5.82-1.52-7.46-4.03v13.74c0,5.61-4.55,10.15-10.15,10.15s-10.15-4.55-10.15-10.15,4.55-10.15,10.15-10.15h0c.21,0,.42.02.63.03v5c-.21-.02-.41-.06-.63-.06-2.86,0-5.18,2.32-5.18,5.18s2.32,5.18,5.18,5.18,5.39-2.26,5.39-5.12l.05-23.33h4.79c.45,4.29,3.91,7.65,8.22,7.96v5.56"/>
            <path class="cls-25" d="m217.75,106.19c4.6-1.5,8.66-4.58,11.34-8.61"/>
            <path class="cls-25" d="m231.24,94.25c.96-1.91,1.73-3.91,2.28-5.98"/>
            <path class="cls-25" d="m189.97,71.41c-2.95,4.54-4.05,10.25-2.98,15.56"/>
            <path class="cls-25" d="m187.82,90.61c.04,1.34.37,2.66.94,3.87"/>
            <path class="cls-25" d="m189.1,82.06c.01,1.47.16,2.95.44,4.4"/>
          </g>
          <g>
            <circle class="cls-20" cx="375.1" cy="104.28" r="29.05"/>
            <g id="_2dqxSk.tif" data-name="2dqxSk.tif">
              <g>
                <path class="cls-32" d="m363.71,89.05s.08.03.12.04c.89.07,1.66.41,2.29,1.04.57.56.92,1.24,1.04,2.03.2,1.34-.22,2.48-1.23,3.38-.49.44-1.08.7-1.73.82-.34.06-.68.08-1.01.05-1.55-.14-2.77-1.23-3.17-2.6-.07-.25-.12-.5-.13-.76,0-.05,0-.11-.06-.13v-.32c.06-.02.05-.08.06-.13.01-.1.02-.21.03-.31.12-.72.41-1.35.9-1.89.66-.72,1.48-1.1,2.45-1.17.04,0,.08-.02.12-.04h.32Z"/>
                <path class="cls-32" d="m376.77,101.86s.06-.08.09-.12c.31-.46.66-.88,1.07-1.25.85-.78,1.84-1.31,2.96-1.59.54-.13,1.09-.19,1.65-.22.37-.02.75-.01,1.12.01,1.08.08,2.14.29,3.12.78,1.01.5,1.78,1.25,2.34,2.23.35.62.59,1.28.77,1.96.13.47.22.94.28,1.42.03.24.05.48.06.72.03.45.05.9.08,1.34,0,.01,0,.03,0,.04.01.43.03.85.03,1.28,0,1.43.02,2.86.02,4.29,0,2.16,0,4.32,0,6.49,0,.24-.01.25-.25.25-.92,0-1.83,0-2.75,0-.85,0-1.71,0-2.56,0-.14,0-.27.01-.41.02-.02,0-.04,0-.07,0-.3-.02-.31-.09-.31-.31,0-1.79,0-3.59,0-5.38,0-1.78,0-3.56,0-5.34,0-.67-.06-1.34-.26-1.99-.12-.38-.26-.75-.49-1.08-.39-.57-.94-.92-1.61-1.06-.25-.05-.5-.09-.76-.08-.27,0-.55,0-.82.03-1.2.15-2.08.74-2.57,1.86-.21.48-.33.99-.41,1.51-.08.55-.1,1.11-.1,1.67,0,3.26,0,6.52,0,9.78,0,.07,0,.15,0,.22,0,.1-.05.14-.15.15-.06,0-.11,0-.17,0-1.04,0-2.08,0-3.12,0-.66,0-1.31,0-1.97,0-.19,0-.39.01-.58.02-.03,0-.05,0-.08,0-.26-.03-.28-.09-.27-.28,0-.1,0-.19,0-.29,0-4.29,0-8.59,0-12.88,0-2.17,0-4.33,0-6.5,0-.06,0-.11,0-.17,0-.14.06-.19.2-.2.04,0,.07,0,.11,0h5.47s.07,0,.11,0c.14,0,.19.05.19.2,0,.25-.01.49-.01.74,0,.36,0,.72,0,1.08,0,.17,0,.34,0,.52,0,.05,0,.09,0,.14.01,0,.03,0,.04.01Z"/>
                <path class="cls-32" d="m360.37,109.32c0-3.29,0-6.57,0-9.86,0-.06,0-.11,0-.17,0-.07.05-.11.12-.11.05,0,.1,0,.15,0,1.92,0,3.85,0,5.77,0,.01,0,.03,0,.04,0,.22,0,.28.06.28.29,0,.74,0,1.49,0,2.23,0,5.81,0,11.63,0,17.44,0,.07,0,.14-.01.21-.01.08-.06.14-.15.14-.15,0-.3.01-.45.01-.06,0-.11-.01-.17-.01-1.62,0-3.23,0-4.85,0-.13,0-.25.01-.38.02-.03,0-.05,0-.08,0-.21-.02-.28-.05-.28-.29,0-3.3,0-6.6,0-9.9h0Z"/>
              </g>
            </g>
            <path class="cls-25" d="m381,130.13c4.4-.75,8.58-2.78,11.88-5.79"/>
            <path class="cls-25" d="m394.13,122.83c.98-1.04,1.96-2.07,2.94-3.11"/>
            <path class="cls-25" d="m354.56,87.41c-1.05,1.29-1.98,2.68-2.75,4.15"/>
            <path class="cls-25" d="m350.22,95.34c-1.8,4.03-2.36,8.6-1.62,12.96"/>
          </g>
          <g>
            <circle class="cls-9" cx="82.41" cy="148.91" r="28"/>
            <path class="cls-32" d="m67.12,162.05c3.72.07,7.07-.83,10.09-3.11-4.17-1.27-5.84-2.54-6.44-4.91.94-.05,1.87-.09,2.8-.14-3.29-1.26-5.23-3.48-5.48-7.09,1.01.27,1.94.51,2.88.76-3.02-3.8-3.63-6.75-1.83-9.5,3.9,4.46,8.76,6.99,14.8,7.4-.03-.47-.05-.83-.07-1.18-.12-3.12,1.19-5.47,3.96-6.84,2.77-1.37,5.46-1,7.86.95.53.43.98.55,1.59.32,1.12-.42,2.25-.83,3.49-1.28-.52,1.5-1.49,2.62-2.75,3.52.03.07.05.14.08.2,1.15-.3,2.31-.59,3.46-.89.05.05.09.09.14.14-.89.9-1.75,1.84-2.7,2.68-.5.44-.75.84-.75,1.54.03,10.56-7.94,19.35-18.43,20.29-4.23.38-8.27-.38-12.01-2.45-.24-.13-.46-.28-.69-.42Z"/>
            <path class="cls-25" d="m106.13,158.42c-1.82,4.68-5.13,8.76-9.33,11.51"/>
            <path class="cls-25" d="m97.67,167.32c-.93.6-1.87,1.2-2.8,1.8"/>
            <path class="cls-25" d="m107.25,144.12c.7,2.65.65,5.49-.15,8.11"/>
            <path class="cls-25" d="m70.13,126.75c-3.04,1.06-5.73,3.12-7.53,5.79"/>
          </g>
        </g>
      </g>
      <g>
        <g>
          <g>
            <path class="cls-29" d="m379.85,396.72l57.97-17.19c6.25-1.85,9.09-8.08,6.35-13.91l-66.41-141.4c-2.74-5.83-10.02-9.05-16.26-7.2l-57.97,17.19c-6.25,1.85-9.09,8.08-6.35,13.91l66.41,141.4c2.74,5.83,10.02,9.05,16.26,7.2Z"/>
            <path class="cls-32" d="m379.06,392.19l61.91-18.37c3.61-1.07,5.25-4.67,3.67-8.04l-68.33-145.5c-1.58-3.37-5.79-5.23-9.4-4.16l-61.91,18.37c-3.61,1.07-5.25,4.67-3.67,8.04l68.33,145.5c1.58,3.37,5.79,5.23,9.4,4.16Z"/>
            <path class="cls-29" d="m333.45,232.96l10.52-3.12c.43-.13.63-.56.44-.96h0c-.19-.4-.69-.63-1.13-.5l-10.52,3.12c-.43.13-.63.56-.44.96h0c.19.4.69.63,1.13.5Z"/>
            <path class="cls-29" d="m350.31,227.95h0c.43-.13.63-.56.44-.96h0c-.19-.4-.69-.63-1.13-.5h0c-.43.13-.63.56-.44.96h0c.19.4.69.63,1.13.5Z"/>
            <path class="cls-38" d="m326.22,305.37h0c.85-.25,1.24-1.1.86-1.89l-2.7-5.74c-.37-.79-1.36-1.23-2.21-.98h0c-.85.25-1.24,1.1-.86,1.89l2.7,5.74c.37.79,1.36,1.23,2.21.98Z"/>
            <path class="cls-38" d="m313.48,278.24h0c.85-.25,1.24-1.1.86-1.89l-8.21-17.48c-.37-.79-1.36-1.23-2.21-.98h0c-.85.25-1.24,1.1-.86,1.89l8.21,17.48c.37.79,1.36,1.23,2.21.98Z"/>
            <path class="cls-29" d="m312.64,278.49h0c.85-.25,1.24-1.1.86-1.89l-8.21-17.48c-.37-.79-1.36-1.23-2.21-.98h0c-.85.25-1.24,1.1-.86,1.89l8.21,17.48c.37.79,1.36,1.23,2.21.98Z"/>
            <path class="cls-29" d="m325.38,305.62h0c.85-.25,1.24-1.1.86-1.89l-2.7-5.74c-.37-.79-1.36-1.23-2.21-.98h0c-.85.25-1.24,1.1-.86,1.89l2.7,5.74c.37.79,1.36,1.23,2.21.98Z"/>
            <path class="cls-36" d="m331,315.54h0c.85-.25,1.24-1.1.86-1.89l-2.7-5.74c-.37-.79-1.36-1.23-2.21-.98h0c-.85.25-1.24,1.1-.86,1.89l2.69,5.74c.37.79,1.36,1.23,2.21.98Z"/>
            <path class="cls-29" d="m330.16,315.79h0c.85-.25,1.24-1.1.86-1.89l-2.7-5.74c-.37-.79-1.36-1.23-2.21-.98h0c-.85.25-1.24,1.1-.86,1.89l2.7,5.74c.37.79,1.36,1.23,2.21.98Z"/>
            <polygon class="cls-24" points="368.5 385.33 443.49 363.09 378.25 224.19 303.27 246.43 368.5 385.33"/>
            <path class="cls-38" d="m368.37,387.44l-67.53-143.79c-2.02-4.3.09-8.9,4.69-10.27l60.08-17.82c4.6-1.37,9.99,1.02,12.01,5.31l67.53,143.79c2.02,4.3-.09,8.9-4.69,10.27l-60.08,17.82c-4.6,1.37-9.99-1.02-12.01-5.31Zm-62.06-152.39c-3.62,1.07-5.27,4.69-3.68,8.06l67.53,143.79c1.58,3.37,5.81,5.25,9.43,4.17l60.08-17.82c3.62-1.07,5.27-4.69,3.68-8.06l-67.53-143.79c-1.58-3.37-5.81-5.25-9.43-4.17l-60.08,17.82Z"/>
            <path class="cls-38" d="m369.67,387.53l-67.83-144.42c-1.72-3.66.07-7.59,4-8.75l60.33-17.9c3.92-1.16,8.51.87,10.23,4.53l67.83,144.42c1.72,3.66-.07,7.59-4,8.75l-60.33,17.9c-3.92,1.16-8.51-.87-10.23-4.53Zm-63.53-152.54c-3.55,1.05-5.18,4.61-3.62,7.92l67.83,144.42c1.56,3.32,5.71,5.16,9.27,4.1l60.33-17.9c3.55-1.05,5.18-4.61,3.62-7.92l-67.83-144.42c-1.56-3.32-5.71-5.16-9.27-4.1l-60.33,17.9Z"/>
            <g>
              <polygon class="cls-37" points="440.39 359.36 368.47 381.29 307.02 251.79 378.94 229.86 440.39 359.36"/>
              <path class="cls-34" d="m362.54,353.99c-.37.23-.43.83-.43.83,0,0-.54-.41-1.01-.39-1.35.06-1.45,1.16-.58,1.88.84.7,2.88,1.23,2.88,1.23,0,0,1.09-1.49,1.13-2.46.05-1-.93-1.77-1.99-1.1Z"/>
              <polygon class="cls-24" points="427.52 331.34 354.49 353.49 324.83 289.9 397.61 267.63 427.52 331.34"/>
              <path class="cls-39" d="m333.9,281.67c.86,1.81-.1,3.78-2.15,4.41s-4.4-.34-5.26-2.15c-.86-1.81.1-3.78,2.15-4.41,2.05-.62,4.4.34,5.26,2.15Z"/>
              <g class="cls-41">
                <polygon class="cls-16" points="393.66 257.15 319.28 279.82 310.85 262.06 385.23 239.38 393.66 257.15"/>
                <g>
                  <path class="cls-40" d="m348,260.86c1.37,2.88-.16,6.02-3.42,7.01-3.25.99-7-.54-8.37-3.42s.16-6.02,3.42-7.01c3.25-.99,7,.54,8.37,3.42Z"/>
                  <path class="cls-40" d="m363.97,255.99c1.37,2.88-.16,6.02-3.42,7.01-3.25.99-7-.54-8.37-3.42s.16-6.02,3.42-7.01,7,.54,8.37,3.42Z"/>
                  <path class="cls-40" d="m379.94,251.12c1.37,2.88-.16,6.02-3.42,7.01-3.25.99-7-.54-8.37-3.42s.16-6.02,3.42-7.01c3.25-.99,7,.54,8.37,3.42Z"/>
                  <path class="cls-40" d="m395.91,246.25c1.37,2.88-.16,6.02-3.42,7.01-3.25.99-7-.54-8.37-3.42-1.37-2.88.16-6.02,3.42-7.01s7,.54,8.37,3.42Z"/>
                </g>
              </g>
              <g>
                <path class="cls-40" d="m332.68,265.53c1.52,3.2-.18,6.68-3.8,7.79-3.61,1.1-7.77-.6-9.29-3.8-1.52-3.2.18-6.68,3.8-7.79,3.61-1.1,7.77.6,9.29,3.8Z"/>
                <path class="cls-28" d="m334.75,268.4c.38.8-.05,1.67-.95,1.95-.9.28-1.94-.15-2.32-.95-.38-.8.05-1.67.95-1.95.9-.28,1.94.15,2.32.95Z"/>
              </g>
              <g>
                <g>
                  <path class="cls-17" d="m387.65,366.55c.48,1.02-.06,2.13-1.21,2.49-1.15.35-2.48-.19-2.97-1.21-.48-1.02.06-2.13,1.21-2.49,1.15-.35,2.48.19,2.97,1.21Z"/>
                  <line class="cls-17" x1="389.33" y1="369.37" x2="387.48" y2="368.4"/>
                </g>
                <path class="cls-17" d="m370.05,369.8l-1.41,2.52,1.39,2.93,1.55-.47-.72-1.53c-.17-.36.05-.77.51-.91.45-.14.96.05,1.13.41l.72,1.53,1.36-.41-1.39-2.93-3.14-1.14Z"/>
                <g>
                  <g>
                    <line class="cls-25" x1="400.08" y1="361.77" x2="401.41" y2="364.56"/>
                    <line class="cls-25" x1="399.17" y1="363.65" x2="402.32" y2="362.69"/>
                  </g>
                  <path class="cls-17" d="m402.29,365.41l-.84.26c-1.25.38-2.69-.21-3.22-1.31l-.35-.75c-.53-1.11.06-2.31,1.31-2.69l.84-.26c1.25-.38,2.69.21,3.22,1.31l.35.75c.53,1.11-.06,2.31-1.31,2.69Z"/>
                </g>
                <path class="cls-17" d="m415.45,356.31c-.46.29-.55,1.05-.55,1.05,0,0-.69-.52-1.28-.49-1.71.08-1.83,1.47-.73,2.39,1.06.89,3.65,1.56,3.65,1.56,0,0,1.38-1.89,1.44-3.11.06-1.27-1.18-2.24-2.53-1.39Z"/>
                <g>
                  <path class="cls-31" d="m431.18,352.8c.32.67-.04,1.4-.79,1.63s-1.63-.12-1.94-.79c-.32-.67.04-1.4.79-1.63s1.63.12,1.94.79Z"/>
                  <path class="cls-31" d="m433.84,355.55l-.19-.41c-.37-.77-1.37-1.18-2.24-.92l-1.86.57c-.87.27-1.28,1.11-.92,1.88l.19.41,5.02-1.53Z"/>
                </g>
              </g>
              <g>
                <g>
                  <path class="cls-17" d="m316.69,253.15l-.31-.14c-.19-.09-.42-.1-.62-.04l-.18.05-.44.13-.18.05c-.2.06-.35.19-.42.36l-.11.27c-.07.17-.23.3-.42.36l-.28.09c-.39.12-.57.49-.41.84l1.15,2.43c.16.34.61.53,1,.41l3.88-1.18c.39-.12.57-.49.41-.84l-1.15-2.43c-.16-.34-.61-.53-1-.41l-.31.09c-.2.06-.42.04-.62-.04Z"/>
                  <path class="cls-17" d="m317.75,255.16c.28.59-.03,1.23-.7,1.43-.66.2-1.43-.11-1.7-.7s.03-1.23.7-1.43c.66-.2,1.43.11,1.7.7Z"/>
                </g>
                <g>
                  <polygon class="cls-17" points="371.23 236.34 376.56 234.71 375.39 239.42 373.89 237.31 371.23 236.34"/>
                  <line class="cls-17" x1="373.89" y1="237.31" x2="376.56" y2="234.71"/>
                </g>
              </g>
            </g>
            <path class="cls-25" d="m368.37,387.44l-67.53-143.79c-2.02-4.3.09-8.9,4.69-10.27l60.08-17.82c4.6-1.37,9.99,1.02,12.01,5.31l67.53,143.79c2.02,4.3-.09,8.9-4.69,10.27l-60.08,17.82c-4.6,1.37-9.99-1.02-12.01-5.31Zm-62.06-152.39c-3.62,1.07-5.27,4.69-3.68,8.06l67.53,143.79c1.58,3.37,5.81,5.25,9.43,4.17l60.08-17.82c3.62-1.07,5.27-4.69,3.68-8.06l-67.53-143.79c-1.58-3.37-5.81-5.25-9.43-4.17l-60.08,17.82Z"/>
          </g>
          <path class="cls-3" d="m373.39,386.12c2.94-.92,5.87-1.83,8.81-2.75"/>
          <path class="cls-3" d="m384.96,382.48c.69-.23,1.38-.46,2.07-.69"/>
          <path class="cls-3" d="m381.68,385.26c.69-.12,1.38-.23,2.07-.35"/>
          <path class="cls-3" d="m402.38,336.71c1.12-.67,2.36-1.12,3.64-1.33"/>
          <path class="cls-3" d="m420.7,331.21c-3.8,1.04-7.6,2.08-11.39,3.12"/>
          <path class="cls-3" d="m305.29,237.56c-1.58,1.65-1.69,4.49-.24,6.25"/>
        </g>
        <path class="cls-20" d="m386.3,320.84c-1.47,1.81-2.87,3.79-3.31,6.07-.45,2.29.29,4.95,2.29,6.14,2.83,1.68,6.55-.34,8.45-3.02,1.91-2.69,2.82-6,4.88-8.57,1.9-2.38,4.66-3.95,6.64-6.27,1.98-2.32,2.99-6.04.94-8.3-1.32-1.46-3.55-1.81-5.47-1.38-6.18,1.4-10.63,10.65-14.42,15.32Z"/>
        <path class="cls-22" d="m383.53,312.51c-.06-.98.09-1.97.78-3.13.94-1.57,2.54-2.74,4.33-3.14,1.18-.27,4.24.18,4.45-1.32.15-1.07-1.5-2.02-2.27-2.32-2.9-1.16-6.26-1.73-9.29-2.52-9.72-2.53-19.65-7.7-29.16-1.72-3.05,1.92-10.53,8.84-2.98,10.89,2.36.64,4.83-.19,7.24-.66,3.01-.58,7.49-1.01,10.53-.17,3.88,1.08,7.41,5.57,10.37,8.14,1,.87,2.07,1.77,3.37,2.02s2.88-.41,3.15-1.71c.05-.26.05-.52.03-.8-.12-1.33-.47-2.44-.54-3.56Z"/>
        <path class="cls-22" d="m411.38,319.52c-2.14-1.53-6.86-1.36-9.05-2.64-3.95-2.31-4.62-7.64-9.69-8.14-1.77-.17-3.81.51-4.49,2.16-.61,1.49.08,3.16.77,4.62,2.71,5.77,13.6,21.84,21.7,14.48,2.6-2.36,3.28-6.57,1.55-9.63-.19-.33-.46-.62-.79-.86Z"/>
        <path class="cls-4" d="m367.75,328.78c-3.93,6.28-13.14,4.78-15.22-2.3-1.99-6.77,5.02-15.02,10.77-17.34,6.19-2.49,11.11-6.78,12.03-13.97.18-1.43.18-2.91.7-4.25.47-1.22,1.35-2.25,2.3-3.16,2.1-2,4.75-3.56,7.64-3.74,2.89-.19,5.98,1.25,7.19,3.87,1.6,3.48-.52,7.68-3.52,10.06-3,2.39-6.76,3.59-10.05,5.55-7.52,4.48-7.96,11.92-9.55,19.54-.42,2.02-1.2,3.96-2.3,5.71Z"/>
        <path class="cls-22" d="m336.3,299.39c.48.8,1.25,1.44,2.3,1.71,6.64,1.72,7.23-9.38.46-8.18-2.98.53-4.25,3.97-2.75,6.47Z"/>
      </g>
      <g>
        <path class="cls-14" d="m217.46,233.58c-8.82,3.7-17.92,7.12-27.44,7.95-4.69.41-10.64-.7-11.86-5.25-.81-3.01.97-6.09,2.93-8.51,8.18-10.1,20.39-15.91,32.18-21.38,6.61-3.07,26.1-6.62,29.54,3.28,3.94,11.33-18.02,20.84-25.35,23.92Z"/>
        <g>
          <g>
            <path class="cls-29" d="m112.84,319.83l-49.36-34.64c-5.32-3.73-6.03-10.52-1.6-15.16l107.64-112.64c4.44-4.64,12.34-5.38,17.66-1.65l49.36,34.64c5.32,3.73,6.03,10.52,1.6,15.16l-107.64,112.64c-4.44,4.64-12.34,5.38-17.66,1.65Z"/>
            <path class="cls-32" d="m115.02,315.8l-52.72-37c-3.07-2.16-3.49-6.08-.92-8.77l110.76-115.91c2.56-2.68,7.13-3.11,10.21-.95l52.72,37c3.07,2.16,3.49,6.08.92,8.77l-110.76,115.91c-2.56,2.68-7.13,3.11-10.21.95Z"/>
            <path class="cls-29" d="m208.66,179.7l-8.96-6.29c-.37-.26-.42-.73-.11-1.05h0c.31-.32.86-.37,1.22-.11l8.96,6.29c.37.26.42.73.11,1.05h0c-.31.32-.85.37-1.22.11Z"/>
            <path class="cls-29" d="m194.3,169.62h0c-.37-.26-.42-.73-.11-1.05h0c.31-.32.86-.37,1.22-.11h0c.37.26.42.73.11,1.05h0c-.31.32-.85.37-1.22.11Z"/>
            <path class="cls-28" d="m192.52,250.46h0c-.72-.51-.82-1.43-.22-2.06l4.37-4.57c.6-.63,1.68-.73,2.4-.22h0c.72.51.82,1.43.22,2.06l-4.37,4.57c-.6.63-1.68.73-2.4.22Z"/>
            <path class="cls-28" d="m213.17,228.85h0c-.72-.51-.82-1.43-.22-2.06l13.3-13.92c.6-.63,1.68-.73,2.4-.22h0c.72.51.82,1.43.22,2.06l-13.3,13.92c-.6.63-1.68.73-2.4.22Z"/>
            <path class="cls-29" d="m213.89,229.35h0c-.72-.51-.82-1.43-.22-2.06l13.3-13.92c.6-.63,1.68-.73,2.4-.22h0c.72.51.82,1.43.22,2.06l-13.3,13.92c-.6.63-1.68.73-2.4.22Z"/>
            <path class="cls-29" d="m193.24,250.97h0c-.72-.51-.82-1.43-.22-2.06l4.37-4.57c.6-.63,1.68-.73,2.4-.22h0c.72.51.82,1.43.22,2.06l-4.37,4.57c-.6.63-1.68.73-2.4.22Z"/>
            <path class="cls-36" d="m184.78,258.57h0c-.72-.51-.82-1.43-.22-2.06l4.37-4.57c.6-.63,1.68-.73,2.4-.22h0c.72.51.82,1.43.22,2.06l-4.37,4.57c-.6.63-1.68.73-2.4.22Z"/>
            <path class="cls-29" d="m185.49,259.07h0c-.72-.51-.82-1.43-.22-2.06l4.37-4.57c.6-.63,1.68-.73,2.4-.22h0c.72.51.82,1.43.22,2.06l-4.37,4.57c-.6.63-1.68.73-2.4.22Z"/>
            <polygon class="cls-34" points="127.18 312.66 63.33 267.85 169.07 157.19 232.92 202.01 127.18 312.66"/>
            <path class="cls-28" d="m113.6,315.92l-51.16-35.91c-3.92-2.75-4.45-7.77-1.18-11.19l109.46-114.55c3.27-3.42,9.12-3.97,13.04-1.22l51.16,35.91c3.92,2.75,4.45,7.77,1.18,11.19l-109.46,114.55c-3.27,3.42-9.12,3.97-13.04,1.22Zm68.89-161.54c-3.08-2.16-7.67-1.73-10.24.96l-109.46,114.55c-2.57,2.69-2.15,6.63.93,8.79l51.16,35.91c3.08,2.16,7.67,1.73,10.24-.96l109.46-114.55c2.57-2.69,2.15-6.63-.93-8.79l-51.16-35.91Z"/>
            <path class="cls-29" d="m114.27,315.41l-51.37-36.06c-3.34-2.34-3.79-6.63-1-9.54l109.94-115.05c2.79-2.92,7.77-3.38,11.11-1.04l51.37,36.06c3.34,2.35,3.79,6.63,1,9.54l-109.94,115.05c-2.79,2.92-7.77,3.38-11.11,1.04Zm68.2-161.19c-3.03-2.12-7.54-1.7-10.06.94l-109.94,115.05c-2.52,2.64-2.12,6.52.91,8.64l51.37,36.06c3.03,2.12,7.54,1.7,10.07-.94l109.94-115.05c2.52-2.64,2.12-6.52-.91-8.64l-51.37-36.06Z"/>
          </g>
          <g>
            <g>
              <path class="cls-20" d="m208.7,220.93c-3.83,3.78-10.43,4.36-14.73,1.3-4.3-3.06-4.68-8.61-.84-12.39s10.43-4.36,14.73-1.3c4.3,3.06,4.68,8.61.84,12.39Z"/>
              <path class="cls-32" d="m201.14,220.26c-.22.07-.45.03-.62-.08-.08-.06-.14-.13-.18-.23-.59-1.52-1.92-2.64-2.93-3.32-1.12-.75-2.11-1.13-2.12-1.13-.31-.12-.44-.43-.28-.7.15-.27.53-.39.85-.27.04.02,1.11.42,2.34,1.24.72.48,1.36,1.01,1.88,1.56.67.7,1.16,1.46,1.46,2.24.11.28-.07.58-.41.69Z"/>
              <path class="cls-32" d="m203.64,219.28c-.26.08-.54.04-.73-.1-.1-.07-.17-.16-.21-.27-.7-1.8-2.28-3.13-3.47-3.93-1.33-.88-2.5-1.33-2.51-1.34-.37-.14-.52-.51-.34-.83.18-.32.63-.47,1-.33.05.02,1.32.5,2.78,1.47.86.57,1.61,1.19,2.23,1.85.79.83,1.37,1.73,1.74,2.66.13.33-.09.69-.48.81Z"/>
              <path class="cls-32" d="m205.66,218.21c-.12-.08-.21-.19-.26-.33-1.67-4.28-7.28-6.44-7.34-6.46-.45-.17-.64-.63-.42-1.02.22-.39.78-.57,1.23-.4.07.02,1.62.62,3.4,1.8,1.05.7,1.97,1.46,2.74,2.27.97,1.02,1.68,2.12,2.13,3.26.16.4-.11.85-.59,1-.32.1-.66.04-.9-.12Z"/>
            </g>
            <g>
              <path class="cls-4" d="m153.4,210.18c-3.83,3.78-10.42,4.36-14.72,1.29-4.3-3.06-4.68-8.61-.85-12.38,3.83-3.78,10.42-4.36,14.72-1.29,4.3,3.06,4.68,8.61.85,12.38Z"/>
              <path class="cls-32" d="m149.51,200.8c-2.42-1.72-6.13-1.4-8.28.72-2.15,2.12-1.93,5.24.48,6.96,2.42,1.72,6.13,1.4,8.28-.72,2.15-2.12,1.93-5.24-.48-6.96h0Zm1.04,3.87c-.05.9-.44,1.8-1.19,2.56-.14-.15-.72-.76-1.56-1.36-.27-.19-.57-.38-.89-.56.03-.07.06-.14.08-.21.08-.21.16-.42.22-.62,1.77.45,3.05.25,3.33.19h0Zm-1.65-3.26c.93.66,1.48,1.58,1.62,2.54-.23.05-1.41.27-3.08-.21.36-1.34.51-2.56.54-2.84.32.14.63.31.92.51h0Zm-1.91-.82c-.03.25-.18,1.47-.52,2.82-1.96-.77-3.4-1.75-3.74-1.99l-.04-.03c1.25-.82,2.85-1.1,4.3-.8h0Zm-5.08,1.43s.05-.05.08-.08c.02.02.05.04.1.07.46.33,2.09,1.43,4.16,2.17-.07.24-.16.48-.24.72-.05-.02-.1-.04-.16-.05-2.38-.79-4.81-.13-5.19-.01,0-.99.41-1.99,1.25-2.81h0Zm.41,5.88c-.85-.6-1.38-1.41-1.57-2.28.29-.11,2.29-.77,4.94.05,0,0,0,0,0,0-.67,1.52-1.44,2.65-1.69,3-.6-.15-1.18-.41-1.69-.77h0Zm2.68.92c.2-.29.93-1.34,1.6-2.78.29.15.56.31.79.48.77.55,1.23,1.13,1.33,1.27-1.06.77-2.42,1.12-3.73,1.03h0Z"/>
            </g>
            <path class="cls-20" d="m170.26,193.56c-3.83,3.78-10.43,4.36-14.73,1.3-4.3-3.06-4.68-8.61-.84-12.39,3.83-3.78,10.43-4.36,14.73-1.3,4.3,3.06,4.68,8.61.84,12.39Z"/>
            <path class="cls-9" d="m192.04,237.35c-3.94,3.89-10.62,4.55-14.93,1.49-4.3-3.06-4.59-8.7-.65-12.58,3.94-3.89,10.62-4.55,14.93-1.49,4.3,3.06,4.59,8.7.65,12.58Z"/>
            <g>
              <path class="cls-4" d="m189.16,207.02c-3.83,3.78-10.43,4.36-14.73,1.3-4.3-3.06-4.68-8.61-.84-12.39,3.83-3.78,10.43-4.36,14.73-1.3,4.3,3.06,4.68,8.61.84,12.39Z"/>
              <g>
                <path class="cls-32" d="m188.31,202.52c1.12-1.11,1.06-2.4-.18-3.3-1.72-1.25-3.45-2.49-5.2-3.7-1.24-.86-2.76-.71-3.87.35-.78.75-1.55,1.52-2.32,2.28-.75.74-1.52,1.49-2.26,2.23-1.14,1.14-1.09,2.43.18,3.35,1.7,1.24,3.41,2.46,5.15,3.66,1.27.88,2.81.73,3.93-.37,1.54-1.5,3.06-3,4.58-4.51Zm-5.42,3.94c-.72.7-1.55.78-2.35.21-1.72-1.21-3.44-2.43-5.14-3.66-.8-.58-.84-1.27-.14-1.98,1.53-1.53,3.08-3.05,4.63-4.56.71-.69,1.56-.78,2.36-.22,1.73,1.21,3.44,2.43,5.14,3.66.79.57.83,1.28.13,1.98-.76.77-1.54,1.52-2.31,2.28-.77.76-1.53,1.53-2.31,2.28Z"/>
                <path class="cls-32" d="m183.56,199.33c-1.32-.94-3.36-.77-4.56.39-1.21,1.17-1.14,2.87.17,3.84,1.34.99,3.38.84,4.61-.34,1.22-1.18,1.13-2.92-.22-3.88Zm-3.64,3.53c-.85-.63-.92-1.78-.17-2.54.78-.78,2.16-.9,3.05-.27.89.64.98,1.8.18,2.57-.79.77-2.21.87-3.07.23Z"/>
                <path class="cls-32" d="m186.76,201.53c-.33.28-.71.28-1.03.03-.35-.28-.34-.61.01-.91.33-.28.69-.26,1.05-.04.29.3.32.61-.03.92Z"/>
              </g>
            </g>
            <g>
              <path class="cls-24" d="m172.31,223.64c-3.83,3.78-10.43,4.36-14.73,1.3-4.3-3.06-4.68-8.61-.84-12.39,3.83-3.78,10.43-4.36,14.73-1.3,4.3,3.06,4.68,8.61.84,12.39Z"/>
              <path class="cls-32" d="m169.37,220.18c-.09-.05-.17-.1-.25-.16-.88-.62-1.3-1.6-1.13-2.58l-3.57,3.52c-1.46,1.44-3.97,1.66-5.6.49-1.64-1.16-1.78-3.27-.32-4.71,1.46-1.44,3.97-1.66,5.6-.49h0c.06.04.12.09.17.14l-1.3,1.28c-.05-.05-.1-.1-.17-.15-.83-.59-2.11-.48-2.86.25-.74.73-.67,1.81.16,2.41.83.59,2.16.54,2.9-.19l6.08-5.97,1.4.99c-.98,1.19-.85,2.77.33,3.75l-1.45,1.43"/>
            </g>
          </g>
          <g>
            <path class="cls-24" d="m174.47,255.16c-3.83,3.78-10.43,4.36-14.73,1.3-4.3-3.06-4.68-8.61-.84-12.39,3.83-3.78,10.43-4.36,14.73-1.3,4.3,3.06,4.68,8.61.84,12.39Z"/>
            <path class="cls-20" d="m119.17,244.41c-3.83,3.78-10.42,4.36-14.72,1.29-4.3-3.06-4.68-8.61-.85-12.38,3.83-3.78,10.42-4.36,14.72-1.29,4.3,3.06,4.68,8.61.85,12.38Z"/>
            <g>
              <path class="cls-9" d="m136.03,227.79c-3.83,3.78-10.43,4.36-14.73,1.3-4.3-3.06-4.68-8.61-.84-12.39s10.43-4.36,14.73-1.3c4.3,3.06,4.68,8.61.84,12.39Z"/>
              <path class="cls-32" d="m129.98,220.21c-.46.42-.89.87-1.37,1.34l1.93,1.38c-.65.5-1.25.97-1.86,1.42-.06.05-.27,0-.36-.05-.48-.32-.94-.66-1.44-1.02l-5.75,5.67c-.7-.52-1.29-1.1-1.77-1.74l5.46-5.38-1.69-1.21,1.74-1.71,1.66,1.18c.14-.13.25-.22.35-.32.47-.44.91-.91,1.41-1.32,1.1-.9,2.48-1.11,3.72-.46.77.4,1.41.98,2.13,1.49l-1.58,1.56c-.25-.18-.51-.37-.77-.55-.23-.15-.45-.33-.72-.44-.38-.16-.78-.13-1.09.15Z"/>
            </g>
            <g>
              <path class="cls-9" d="m157.81,271.58c-3.94,3.89-10.62,4.55-14.93,1.49-4.3-3.06-4.59-8.7-.65-12.58s10.62-4.55,14.93-1.49c4.3,3.06,4.59,8.7.65,12.58Z"/>
              <path class="cls-32" d="m142.42,266.32c1.02.76,2.18,1.19,3.6,1.22-.84-1.14-.98-1.79-.54-2.51.27.17.54.35.81.52-.59-.97-.57-1.91.28-2.87.21.27.41.51.61.76.13-1.55.71-2.42,1.91-2.75-.05,1.89.66,3.49,2.23,4.79.11-.12.2-.22.28-.31.76-.81,1.73-1.14,2.85-.94,1.12.2,1.77.83,1.94,1.8.04.21.13.33.36.4.42.12.84.24,1.3.37-.53.27-1.08.36-1.66.34,0,.02-.02.04-.03.07.4.15.79.31,1.19.46,0,.02,0,.04,0,.06-.48.05-.96.12-1.43.14-.25.01-.42.06-.6.24-2.68,2.66-7.14,3.29-10.3,1.45-1.27-.74-2.2-1.73-2.72-3-.03-.08-.06-.16-.09-.24Z"/>
            </g>
            <path class="cls-22" d="m154.93,241.25c-3.83,3.78-10.43,4.36-14.73,1.3-4.3-3.06-4.68-8.61-.84-12.39,3.83-3.78,10.43-4.36,14.73-1.3,4.3,3.06,4.68,8.61.84,12.39Z"/>
          </g>
          <path class="cls-30" d="m120.69,300.36l-43.44-30.46c-2.08-1.46-2.36-4.32-.61-6.17h0c1.54-1.62,4.11-1.89,5.93-.61l43.44,30.46c2.08,1.46,2.36,4.32.61,6.17h0c-1.54,1.62-4.11,1.89-5.93.61Z"/>
          <g>
            <path class="cls-4" d="m138.14,257.97c-3.83,3.78-10.42,4.36-14.72,1.29-4.3-3.06-4.68-8.61-.85-12.38,3.83-3.78,10.42-4.36,14.72-1.29,4.3,3.06,4.68,8.61.85,12.38Z"/>
            <path class="cls-32" d="m134.25,248.58c-2.42-1.72-6.13-1.4-8.28.72s-1.93,5.24.48,6.96c2.42,1.72,6.13,1.4,8.28-.72,2.15-2.12,1.93-5.24-.48-6.96h0Zm1.04,3.87c-.05.9-.44,1.8-1.19,2.56-.14-.15-.72-.77-1.56-1.36-.27-.19-.57-.38-.89-.56.03-.07.06-.14.08-.21.08-.21.16-.42.22-.62,1.77.45,3.05.25,3.33.19h0Zm-1.65-3.26c.93.66,1.48,1.58,1.62,2.54-.23.05-1.41.27-3.08-.21.36-1.34.51-2.56.54-2.84.32.14.63.31.92.51h0Zm-1.91-.82c-.03.25-.18,1.47-.52,2.82-1.96-.77-3.4-1.75-3.74-1.99l-.04-.03c1.25-.82,2.85-1.1,4.3-.8h0Zm-5.08,1.43s.05-.05.08-.08c.02.02.05.04.1.07.46.33,2.09,1.43,4.16,2.17-.07.24-.16.48-.24.72-.05-.02-.1-.04-.16-.06-2.38-.79-4.81-.13-5.19-.01,0-.99.41-1.99,1.25-2.81h0Zm.41,5.88c-.85-.6-1.38-1.41-1.57-2.28.29-.11,2.29-.77,4.94.05,0,0,0,0,0,0-.67,1.52-1.44,2.65-1.69,3-.6-.15-1.18-.41-1.69-.77h0Zm2.68.92c.2-.29.93-1.34,1.6-2.78.29.15.56.31.79.48.77.55,1.23,1.13,1.33,1.27-1.06.77-2.42,1.12-3.73,1.03h0Z"/>
          </g>
        </g>
        <path class="cls-14" d="m66.79,271.97c2.68,1.91,5.36,3.82,8.04,5.73"/>
        <path class="cls-14" d="m76.31,278.79c.53.57,1.15,1.04,1.84,1.4"/>
        <path class="cls-14" d="m72.44,277.87c.65.47,1.3.95,1.94,1.42"/>
        <path class="cls-14" d="m232.9,192c.9.78,1.87,1.66,2.03,2.84.16,1.22-.58,2.35-1.29,3.35"/>
      </g>
    </g>
  </g>
</svg>